<svg xmlns="http://www.w3.org/2000/svg" viewBox="0 0 1000 440">
    <path  fill="#ff8080" d="M454.8 247.838c-1.184.016-2.246 1.109-2.227 2.292v19.84c.001 1.182 1.078 2.257 2.26 2.257s2.258-1.075 2.26-2.257v-19.84c.019-1.205-1.087-2.311-2.292-2.292zm-20.2.026c-6.701 0-12.18 5.48-12.18 12.18 0 6.7 5.48 12.18 12.18 12.18 6.701 0 12.18-5.48 12.18-12.18 0-6.701-5.48-12.18-12.18-12.18zm0 4.515c4.261 0 7.666 3.405 7.666 7.666s-3.405 7.666-7.666 7.666-7.666-3.405-7.666-7.666 3.405-7.666 7.666-7.666zm-20.26-4.541c-1.184.016-2.246 1.109-2.227 2.292v19.84c0 1.183 1.077 2.26 2.26 2.26s2.26-1.077 2.26-2.26v-19.84c.019-1.205-1.087-2.311-2.292-2.292zm-10.98 0c-1.184.016-2.246 1.109-2.227 2.292v19.84c0 1.183 1.077 2.26 2.26 2.26s2.26-1.077 2.26-2.26v-19.84c.019-1.205-1.087-2.311-2.292-2.292zm57.22-28.9c-1.184.016-2.246 1.109-2.227 2.292v19.85c-.076 1.226 1.025 2.397 2.253 2.397s2.329-1.171 2.253-2.397v-19.85c.019-1.201-1.078-2.304-2.279-2.292zm-11.57 0c-1.184.016-2.246 1.109-2.227 2.292v19.85c.001 1.182 1.078 2.257 2.26 2.257s2.258-1.075 2.26-2.257v-19.85c.019-1.205-1.087-2.311-2.292-2.292zm-20.19.033c-6.701 0-12.18 5.48-12.18 12.18 0 6.7 5.48 12.18 12.18 12.18 6.701 0 12.18-5.48 12.18-12.18 0-6.701-5.48-12.18-12.18-12.18zm0 4.515c4.261 0 7.666 3.405 7.666 7.666s-3.405 7.666-7.666 7.666-7.666-3.405-7.666-7.666 3.405-7.666 7.666-7.666zm-28.9-4.515c-6.701 0-12.18 5.48-12.18 12.18 0 6.7 5.48 12.18 12.18 12.18 6.701 0 12.18-5.48 12.18-12.18 0-6.701-5.48-12.18-12.18-12.18zm0 4.515c4.261 0 7.666 3.405 7.666 7.666s-3.405 7.666-7.666 7.666-7.666-3.405-7.666-7.666 3.405-7.666 7.666-7.666zm-20.26-4.548c-1.184.016-2.246 1.109-2.227 2.292v19.85c0 1.183 1.077 2.26 2.26 2.26s2.26-1.077 2.26-2.26v-19.85c.019-1.205-1.087-2.311-2.292-2.292zm-20.2.033c-6.701 0-12.18 5.48-12.18 12.18 0 6.7 5.48 12.18 12.18 12.18 6.701 0 12.18-5.48 12.18-12.18 0-6.701-5.48-12.18-12.18-12.18zm0 4.515c4.261 0 7.666 3.405 7.666 7.666s-3.405 7.666-7.666 7.666-7.666-3.405-7.666-7.666 3.405-7.666 7.666-7.666zm-28.9-4.515c-6.701 0-12.18 5.48-12.18 12.18 0 6.7 5.48 12.18 12.18 12.18 6.701 0 12.18-5.48 12.18-12.18 0-6.701-5.48-12.18-12.18-12.18zm0 4.515c4.261 0 7.666 3.405 7.666 7.666s-3.405 7.666-7.666 7.666-7.666-3.405-7.666-7.666 3.405-7.666 7.666-7.666zm-20.25-4.548c-1.184.016-2.246 1.109-2.227 2.292v19.85c-.076 1.226 1.025 2.397 2.253 2.397s2.329-1.171 2.253-2.397v-19.85c.019-1.201-1.078-2.304-2.279-2.292zm144.5-28.89c-1.184.016-2.246 1.109-2.227 2.292v19.84c.001 1.182 1.078 2.257 2.26 2.257s2.258-1.075 2.26-2.257v-19.84c.019-1.205-1.087-2.311-2.292-2.292zm-10.98 0c-1.184.016-2.246 1.109-2.227 2.292v19.84c0 1.183 1.077 2.26 2.26 2.26s2.26-1.077 2.26-2.26v-19.84c.019-1.205-1.087-2.311-2.292-2.292zm-11.57 0c-1.179.022-2.233 1.113-2.214 2.292v19.84c-.076 1.226 1.025 2.397 2.253 2.397s2.329-1.171 2.253-2.397v-19.84c.019-1.205-1.087-2.311-2.292-2.292zm-20.77.027c-6.701 0-12.18 5.48-12.18 12.18 0 6.7 5.48 12.18 12.18 12.18 6.701 0 12.18-5.48 12.18-12.18 0-6.701-5.48-12.18-12.18-12.18zm0 4.515c4.261 0 7.666 3.405 7.666 7.666s-3.405 7.666-7.666 7.666-7.666-3.405-7.666-7.666 3.405-7.666 7.666-7.666zm-28.9-4.515c-6.701 0-12.18 5.48-12.18 12.18 0 6.7 5.48 12.18 12.18 12.18 6.701 0 12.18-5.48 12.18-12.18 0-6.701-5.48-12.18-12.18-12.18zm0 4.515c4.261 0 7.666 3.405 7.666 7.666s-3.405 7.666-7.666 7.666-7.666-3.405-7.666-7.666 3.405-7.666 7.666-7.666zm-20.26-4.542c-1.184.016-2.246 1.109-2.227 2.292v19.84c0 1.183 1.077 2.26 2.26 2.26s2.26-1.077 2.26-2.26v-19.84c.019-1.205-1.087-2.311-2.292-2.292zm-20.2.027c-6.701 0-12.18 5.48-12.18 12.18 0 6.7 5.48 12.18 12.18 12.18 6.701 0 12.18-5.48 12.18-12.18 0-6.701-5.48-12.18-12.18-12.18zm0 4.515c4.261 0 7.666 3.405 7.666 7.666s-3.405 7.666-7.666 7.666-7.666-3.405-7.666-7.666 3.405-7.666 7.666-7.666zm-19.68-4.542c-1.179.023-2.233 1.113-2.214 2.292v19.84c-.076 1.226 1.025 2.397 2.253 2.397s2.329-1.171 2.253-2.397v-19.84c.019-1.205-1.087-2.311-2.292-2.292zm-11.55 0c-1.184.016-2.246 1.109-2.227 2.292v19.84c.001 1.182 1.078 2.257 2.26 2.257s2.258-1.075 2.26-2.257v-19.84c.019-1.205-1.087-2.311-2.292-2.292zm3.913-16.66c-15.94 0-28.93 12.97-28.93 28.92v87.98c0 15.94 12.98 28.92 28.93 28.92h83.73a28.678 28.678 0 0 1-1.329-8.662c0-.114.012-.225.013-.339h-82.42c-11.11 0-19.93-8.803-19.93-19.92v-87.98c0-11.11 8.816-19.92 19.93-19.92h135.6c11.11 0 19.92 8.803 19.92 19.92v87.98c0 9.452-6.368 17.24-15.11 19.36.009.3.026.597.026.899 0 2.937-.442 5.771-1.263 8.44 14.27-1.763 25.35-13.96 25.35-28.69v-87.98c0-15.94-12.97-28.92-28.92-28.92h-135.6zm111.7 113.5c-13.09 0-23.65 10.57-23.65 23.65 0 8.12 4.083 15.25 10.3 19.51.552.377.9 1.037.899 1.706v27.94l10.99-10.99c.763-.765 2.154-.765 2.918 0l10.51 10.51v-27.13a2.1 2.1 0 0 1 .938-1.732c6.473-4.222 10.76-11.5 10.76-19.81 0-13.08-10.58-23.65-23.67-23.65z" color="#000"/>
    <path fill="#216778" d="M312.2 247.638c-1.644 0-2.978.475-3.975 1.423-.996.948-1.491 2.235-1.491 3.839 0 1.102.211 2.069.632 2.936a6.15 6.15 0 0 0 1.716 2.123l3.884 3.117c.365.291.648.543.858.745.211.195.464.458.723.79.26.325.443.688.565 1.085.13.388.203.802.203 1.265 0 1.555-.793 2.349-2.349 2.349-1.92 0-2.963-1.564-3.117-4.675l-3.094.79c.122 1.993.688 3.547 1.716 4.697 1.037 1.15 2.534 1.739 4.494 1.739 1.661 0 2.994-.456 3.975-1.355.988-.9 1.468-2.153 1.468-3.75 0-2.332-1.02-4.33-3.094-6.006l-3.907-3.117c-1.037-.826-1.558-1.848-1.558-3.071 0-.745.205-1.326.61-1.74.405-.42.994-.631 1.739-.631.932 0 1.622.304 2.1.903.486.591.81 1.383.948 2.371.033.275.06.472.068.61l3.094-.768c-.032-.3-.043-.53-.068-.7-.243-1.58-.897-2.8-1.942-3.66-1.037-.866-2.435-1.31-4.2-1.31zm72.76 0c-4.229 0-6.346 2.664-6.346 7.995v5.51c0 1.086.053 2.056.158 2.89.105.835.29 1.619.565 2.372.275.753.644 1.388 1.107 1.874.461.486 1.078.868 1.807 1.152.737.283 1.6.429 2.597.429 1.466 0 2.486-.85 3.094-2.552l.79 2.326h2.326v-10.86h-6.21v2.304h3.094v.79c0 .624-.02 1.163-.068 1.65-.04.485-.118.973-.248 1.467s-.315.918-.542 1.242c-.219.316-.523.566-.903.768s-.814.316-1.332.316c-.438 0-.834-.073-1.174-.203a2.295 2.295 0 0 1-.836-.587 4.137 4.137 0 0 1-.564-.858 4.69 4.69 0 0 1-.34-1.107 15.064 15.064 0 0 1-.157-1.287 18.372 18.372 0 0 1-.046-1.4v-7.001c0-.705.039-1.325.136-1.852.097-.535.27-1.03.497-1.468.235-.446.564-.767.993-.994.438-.235.972-.361 1.603-.361.462 0 .865.065 1.197.203.34.13.61.315.813.542.203.219.361.502.475.858.121.357.207.734.248 1.107.049.365.06.8.068 1.31v.655h3.117c0-.3.008-.532 0-.677a10.856 10.856 0 0 0-.43-2.71c-.234-.786-.576-1.472-1.038-2.055-.462-.584-1.061-1.01-1.807-1.31-.746-.308-1.63-.475-2.642-.475zm-64.81.226v21.77h3.117v-10.12h5.443v10.12h3.117v-21.77h-3.117v9.327h-5.443v-9.327h-3.117zm17.52 0l-4.675 21.77h3.117l1.152-5.443h3.907l1.152 5.443h3.117l-4.675-21.77h-3.094zm8.966 0v21.77h3.094v-10.12h2.349l3.117 10.12h3.094l-3.5-10.89c.891-.324 1.571-.932 2.033-1.807.462-.875.7-1.956.7-3.252 0-2.09-.587-3.572-1.762-4.472-1.175-.9-2.923-1.355-5.239-1.355h-3.884zm13.03 0v21.77h3.117v-21.77h-3.117zm5.917 0v21.77h3.094v-14.48l5.578 14.48h2.213v-21.77h-3.117v13.46l-5.443-13.46h-2.326zm-15.85 2.326h.79c1.296 0 2.265.284 2.913.835.648.543.971 1.425.971 2.665s-.323 2.137-.97 2.687c-.649.543-1.618.813-2.914.813h-.79v-7zm-10.5 2.326l1.536 9.35h-3.094l1.558-9.35zm-26.35 26.24c-.915 0-1.72.124-2.416.384-.697.259-1.248.607-1.694 1.06a5.328 5.328 0 0 0-1.107 1.717 9.47 9.47 0 0 0-.587 2.19c-.114.778-.158 1.663-.158 2.643v6.21c0 .98.044 1.842.158 2.62.113.777.311 1.525.587 2.213a5.48 5.48 0 0 0 1.107 1.716c.445.453.997.802 1.694 1.06.697.26 1.501.384 2.416.384 1.069 0 2.002-.156 2.755-.496a4.134 4.134 0 0 0 1.784-1.491 6.609 6.609 0 0 0 .971-2.258c.203-.851.294-1.832.294-2.958v-.79h-3.117v.79c0 .534-.013.995-.046 1.4-.032.405-.09.812-.203 1.242-.105.429-.257.786-.451 1.06-.187.276-.459.5-.79.678s-.736.271-1.198.271-.848-.078-1.197-.248a2.446 2.446 0 0 1-.835-.7 3.643 3.643 0 0 1-.497-1.04 7.05 7.05 0 0 1-.271-1.264c-.04-.422-.068-.882-.068-1.4v-7.791c0-.6.035-1.108.068-1.513a7.89 7.89 0 0 1 .203-1.265c.113-.43.272-.765.474-1.016.203-.26.48-.47.836-.633.364-.162.785-.225 1.287-.225.389 0 .747.023 1.039.112.291.081.514.22.7.407.194.178.353.39.474.61.13.21.229.466.294.79s.111.64.135.949c.025.3.037.654.045 1.084v.7h3.117c0-.324.008-.569 0-.723-.04-1.029-.18-1.918-.406-2.687a6.032 6.032 0 0 0-.994-2.033 4.06 4.06 0 0 0-1.762-1.332c-.737-.3-1.63-.43-2.642-.43zm12.94 0c-1.094 0-2.037.158-2.823.474-.778.316-1.39.768-1.852 1.4a6.177 6.177 0 0 0-1.016 2.213c-.21.85-.316 1.86-.316 3.004v7.904c0 1.142.105 2.137.316 3.004a6.36 6.36 0 0 0 1.016 2.236 4.333 4.333 0 0 0 1.852 1.468c.786.332 1.729.497 2.823.497 1.086 0 2-.165 2.778-.497.786-.34 1.413-.828 1.874-1.468.462-.648.806-1.4 1.016-2.258.219-.867.339-1.855.339-2.981v-7.904c0-2.301-.483-4.07-1.423-5.285-.94-1.215-2.462-1.807-4.584-1.807zm62.58 0c-.915 0-1.72.124-2.416.384-.697.259-1.271.607-1.716 1.06a5.328 5.328 0 0 0-1.107 1.717c-.275.68-.451 1.413-.565 2.19-.113.778-.18 1.663-.18 2.643v6.21c0 .98.067 1.842.18 2.62.114.777.29 1.525.565 2.213a5.48 5.48 0 0 0 1.107 1.716c.445.453 1.02.802 1.716 1.06.697.26 1.501.384 2.416.384 1.069 0 1.979-.156 2.733-.496a4.134 4.134 0 0 0 1.784-1.491 6.609 6.609 0 0 0 .971-2.258c.203-.851.294-1.832.294-2.958v-.79h-3.094v.79c0 .534-.013.995-.046 1.4a7.059 7.059 0 0 1-.225 1.242c-.106.429-.258.786-.452 1.06-.186.276-.436.5-.768.678s-.735.271-1.197.271-.871-.078-1.22-.248a2.446 2.446 0 0 1-.835-.7 3.643 3.643 0 0 1-.497-1.04 7.05 7.05 0 0 1-.271-1.264c-.04-.422-.045-.882-.045-1.4v-7.791c0-.6.012-1.108.045-1.513.032-.413.098-.836.203-1.265.113-.43.272-.765.474-1.016.203-.26.48-.47.836-.633.364-.162.807-.225 1.31-.225.389 0 .724.023 1.016.112.291.081.536.22.723.407.194.178.352.39.474.61.13.21.229.466.293.79s.112.64.136.949c.024.3.037.654.045 1.084v.7h3.094c0-.324.008-.569 0-.723-.04-1.029-.18-1.918-.406-2.687a6.032 6.032 0 0 0-.994-2.033 4.061 4.061 0 0 0-1.762-1.332c-.737-.3-1.607-.43-2.62-.43zm-54.43.203v21.77h3.117v-14.48l5.556 14.48h2.213v-21.77h-3.117v13.46l-5.443-13.46h-2.326zm11.88 0v2.778h3.884v18.99h3.117v-18.99h3.884v-2.778h-10.89zm11.88 0v21.77h3.117v-10.09h2.326l3.139 10.09H372.39l1.152-5.443h3.907l1.152 5.443h3.117l-4.675-21.77h-3.094l-4.63 21.52-3.41-10.64c.891-.324 1.571-.91 2.033-1.784.462-.875.677-1.978.677-3.275 0-2.09-.586-3.572-1.762-4.472-1.175-.9-2.923-1.355-5.239-1.355h-3.884zm36.4 0v2.778h3.884v18.99h3.117v-18.99h3.884v-2.778h-10.89zm-68.32 2.349c1.102 0 1.845.302 2.258.926.413.624.632 1.559.632 2.823v9.463c0 1.28-.21 2.257-.632 2.913-.413.656-1.165.97-2.258.97-1.094 0-1.86-.314-2.281-.97-.413-.656-.61-1.633-.61-2.913v-9.463c0-1.264.197-2.2.61-2.823.413-.624 1.179-.926 2.281-.926zm35.03 0h.768c1.296 0 2.265.262 2.913.813.648.543.97 1.425.97 2.665 0 1.239-.322 2.137-.97 2.687-.648.543-1.617.813-2.913.813h-.768v-6.978zm14.66 2.326l1.536 9.327h-3.094l1.558-9.327zm52.89 6.865a1.699 1.699 0 0 0-1.016.429l-1.716 1.513-1.852-1.332a1.699 1.699 0 0 0-2.462.497l-1.174 1.987-2.168-.7a1.699 1.699 0 0 0-2.191 1.242l-.497 2.236h-2.28a1.699 1.699 0 0 0-1.695 1.852l.203 2.304-2.168.7a1.699 1.699 0 0 0-1.039 2.28l.926 2.1-1.852 1.356a1.699 1.699 0 0 0-.27 2.507l1.512 1.716-1.355 1.852a1.699 1.699 0 0 0 .52 2.462l1.965 1.174-.7 2.168a1.699 1.699 0 0 0 1.242 2.19l2.236.498.022 2.28a1.699 1.699 0 0 0 1.852 1.695l2.281-.204.723 2.168a1.699 1.699 0 0 0 2.28 1.04l2.1-.904 1.356 1.83a1.699 1.699 0 0 0 2.484.27l1.739-1.513 1.852 1.355a1.699 1.699 0 0 0 2.462-.52l1.174-1.964 2.168.7a1.699 1.699 0 0 0 2.168-1.242l.52-2.236 2.28-.023a1.699 1.699 0 0 0 1.694-1.852l-.203-2.28 2.168-.723a1.699 1.699 0 0 0 1.016-2.281l-.903-2.1 1.852-1.355a1.699 1.699 0 0 0 .27-2.484l-1.512-1.74 1.332-1.851a1.699 1.699 0 0 0-.497-2.462l-1.987-1.174.7-2.168a1.699 1.699 0 0 0-1.242-2.168l-2.236-.52v-2.28a1.699 1.699 0 0 0-1.852-1.695l-2.304.203-.7-2.168a1.699 1.699 0 0 0-2.281-1.016l-2.1.904-1.355-1.852a1.699 1.699 0 0 0-1.491-.7zm-.158 4.2l1.06 1.446a1.699 1.699 0 0 0 2.034.565l1.649-.7.542 1.693a1.699 1.699 0 0 0 1.784 1.152l1.784-.158v1.784a1.699 1.699 0 0 0 1.332 1.65l1.739.406-.542 1.694a1.699 1.699 0 0 0 .745 1.987l1.536.903-1.039 1.445a1.699 1.699 0 0 0 .09 2.123l1.197 1.355-1.445 1.04a1.699 1.699 0 0 0-.564 2.054l.7 1.626-1.694.565a1.699 1.699 0 0 0-1.152 1.762l.158 1.784h-1.784a1.699 1.699 0 0 0-1.649 1.332l-.384 1.762-1.716-.565a1.699 1.699 0 0 0-1.987.745l-.903 1.536-1.445-1.039a1.699 1.699 0 0 0-2.123.113l-1.332 1.174-1.061-1.445a1.699 1.699 0 0 0-2.033-.564l-1.65.722-.564-1.694a1.699 1.699 0 0 0-1.762-1.174l-1.784.159v-1.784a1.699 1.699 0 0 0-1.332-1.65l-1.739-.383.542-1.694a1.699 1.699 0 0 0-.745-1.987l-1.558-.926 1.06-1.445a1.699 1.699 0 0 0-.112-2.1l-1.174-1.332 1.445-1.061a1.699 1.699 0 0 0 .565-2.055l-.7-1.65 1.67-.541a1.699 1.699 0 0 0 1.174-1.784l-.158-1.784h1.784a1.699 1.699 0 0 0 1.65-1.332l.383-1.74 1.694.543a1.699 1.699 0 0 0 1.987-.746l.926-1.536 1.445 1.04a1.699 1.699 0 0 0 2.1-.09l1.355-1.198z"/>
    <path  fill="#89a02c" d="M90.97 169.738c-13.99 0-25.41 11.43-25.41 25.43 0 8.61 4.322 16.24 10.91 20.84-15.45 5.87-26.47 20.82-26.47 38.3a3.614 3.614 0 1 0 7.227 0c0-18.55 14.86-33.53 33.36-33.74.128.002.256.022.384.022s.256-.02.384-.022c18.5.206 33.36 15.19 33.36 33.74a3.614 3.614 0 1 0 7.227 0c0-17.49-11.03-32.44-26.49-38.3 6.592-4.604 10.93-12.23 10.93-20.84 0-13.99-11.41-25.43-25.41-25.43zm0 7.249c10.09 0 18.18 8.09 18.18 18.18s-8.091 18.18-18.18 18.18-18.2-8.091-18.2-18.18 8.114-18.18 18.2-18.18zm-.068 46.25c-1.205.12-2.22 1.25-2.213 2.462v42.89c-2.804-.719-5.955-.552-8.988.745-6.528 2.791-10.64 9.539-8.514 15.7 1.062 3.078 3.61 5.259 6.572 6.188 2.963.93 6.38.718 9.643-.677 5.568-2.381 9.3-7.524 9.033-12.92-.003-.053.004-.106 0-.159v-42.52c.302.062.506.049.858.159 1.765.549 3.802 1.682 5.33 4.675 3.272 6.409 3.184 15.36 3.184 15.36-.04 1.23.99 2.405 2.213 2.529 1.225.124 2.457-.82 2.665-2.033 0 0 2.785-13.77-2.936-24.37-4.42-8.184-13.51-8.024-13.78-8.017h-2.823a2.572 2.572 0 0 0-.248 0zm9.485 71.82c-.915 0-1.72.125-2.416.384s-1.27.608-1.716 1.06c-.445.454-.8 1.029-1.084 1.717a9.47 9.47 0 0 0-.587 2.19c-.113.778-.158 1.663-.158 2.643v6.21c0 .98.045 1.842.158 2.62.113.777.312 1.525.587 2.213.284.68.639 1.255 1.084 1.716.446.453 1.02.802 1.716 1.06.697.26 1.501.385 2.416.385 1.07 0 1.98-.157 2.733-.497a4.205 4.205 0 0 0 1.807-1.491 6.609 6.609 0 0 0 .971-2.258c.203-.85.294-1.832.294-2.958v-.79h-3.117v.79c0 .535-.013.995-.045 1.4a7.059 7.059 0 0 1-.226 1.242c-.105.43-.235.786-.43 1.06-.185.276-.457.5-.79.678s-.735.271-1.197.271-.848-.078-1.197-.248a2.446 2.446 0 0 1-.835-.7 3.643 3.643 0 0 1-.497-1.04 7.05 7.05 0 0 1-.27-1.264c-.041-.421-.069-.882-.069-1.4v-7.791c0-.6.036-1.085.068-1.491.032-.413.098-.835.203-1.265.114-.43.272-.788.475-1.04.202-.258.479-.47.835-.631.365-.162.785-.226 1.287-.226.39 0 .747.046 1.04.135.29.081.513.198.7.384.194.178.352.391.474.61.13.21.228.466.293.79s.111.641.136.949c.024.3.037.677.045 1.107v.677h3.117c0-.324.008-.546 0-.7-.04-1.029-.18-1.94-.407-2.71a6.032 6.032 0 0 0-.993-2.033c-.438-.583-1.024-1.01-1.762-1.31-.737-.3-1.63-.451-2.642-.451zm-30.04.203l-4.675 21.79h3.117l1.174-5.443h3.884L75 317.05h3.117l-4.652-21.79h-3.117zm8.966 0v21.79h8.56v-2.349h-5.444v-19.44h-3.117zm9.598 0v21.79h3.094v-21.79h-3.094zm18.79 0v21.79h8.56v-2.349h-5.444v-7.769h3.884v-2.326h-3.884v-7.001h5.443v-2.349h-8.559zm-35.79 4.675l1.558 9.327h-3.117l1.558-9.327zM284.4 237.338c-5.239 0-9.676 3.422-11.2 8.153h-46.34a8.91 8.91 0 0 0-8.153-5.307 8.937 8.937 0 0 0-8.175 5.307h-48.42l-14.41-7.995v23.24l14.43-8.017h48.4a8.99 8.99 0 0 0 4.562 4.562v13.44l-7.995 14.43h23.22l-7.995-14.43v-13.44a8.957 8.957 0 0 0 4.539-4.562h46.34c1.526 4.73 5.963 8.153 11.2 8.153v-23.54zm-65.7 54.16c-6.933 0-13.21.883-17.93 2.416-2.36.766-4.32 1.694-5.849 2.868-1.433 1.1-2.572 2.58-2.71 4.38a2.091 2.091 0 0 0-.023.362V348.315c0 1.966 1.204 3.568 2.733 4.743 1.528 1.174 3.512 2.078 5.872 2.846 4.72 1.534 10.98 2.44 17.91 2.44 6.933 0 13.21-.905 17.93-2.44 2.36-.767 4.343-1.67 5.872-2.846 1.528-1.174 2.733-2.777 2.733-4.743v-46.79a2.091 2.091 0 0 0-.022-.406 2.091 2.091 0 0 0 0-.023c-.162-1.77-1.295-3.227-2.71-4.313-1.529-1.174-3.489-2.102-5.849-2.868-4.72-1.533-11.02-2.416-17.95-2.416zm0 4.178c6.566 0 12.52.873 16.64 2.213 2.063.67 3.662 1.488 4.607 2.213.877.673 1.083 1.11 1.107 1.355.002.019 0 .051 0 .068 0 .226-.162.72-1.107 1.445-.945.725-2.544 1.52-4.607 2.19-4.126 1.34-10.08 2.214-16.64 2.214-6.566 0-12.5-.874-16.62-2.213-2.063-.67-3.662-1.465-4.607-2.191-.945-.726-1.107-1.22-1.107-1.445 0-.227.162-.698 1.107-1.423.945-.726 2.544-1.543 4.607-2.213 4.126-1.34 10.06-2.213 16.62-2.213zm-22.34 11.56c1.264.729 2.733 1.355 4.404 1.897 4.72 1.533 11 2.416 17.93 2.416 6.933 0 13.23-.884 17.95-2.416 1.67-.543 3.143-1.168 4.404-1.897v41.08c0 .226-.162.697-1.107 1.423-.945.726-2.544 1.52-4.607 2.19-4.125 1.342-10.08 2.237-16.64 2.237-6.566 0-12.5-.895-16.62-2.236-2.063-.67-3.662-1.465-4.607-2.191-.945-.726-1.107-1.196-1.107-1.423 0-.172.01-.177 0-.045a2.091 2.091 0 0 0 0-.158v-40.88zm12.58 13.87c-4.486 0-8.153 3.643-8.153 8.13s3.666 8.153 8.153 8.153c3.167 0 5.881-1.84 7.227-4.494l2.394-1.762 2.304 1.829.7.52.678-.498 2.665-1.942 2.304 2.123.903.813.768-.925 1.355-1.671 2.98.745.497.113.407-.271 1.965-1.332.406-.249.09-.474.633-3.275.294-1.355h-21.54c-1.401-2.474-3.99-4.178-7.023-4.178z" color="#000"/>
    <path  fill="#216778" d="M669.1 184.138c-13.99 0-25.41 11.43-25.41 25.43 0 8.61 4.322 16.24 10.91 20.84-15.45 5.87-26.47 20.82-26.47 38.3a3.614 3.614 0 1 0 7.227 0c0-18.55 14.86-33.53 33.36-33.74.128.002.256.022.384.022s.256-.02.384-.022c18.5.206 33.36 15.19 33.36 33.74a3.614 3.614 0 1 0 7.227 0c0-17.49-11.03-32.44-26.49-38.3 6.592-4.604 10.93-12.23 10.93-20.84 0-13.99-11.41-25.43-25.41-25.43zm0 7.249c10.09 0 18.18 8.09 18.18 18.18s-8.091 18.18-18.18 18.18-18.2-8.091-18.2-18.18 8.114-18.18 18.2-18.18zm-115.2 25.05c-6.933 0-13.21.883-17.93 2.416-2.36.766-4.343 1.672-5.872 2.846-1.433 1.1-2.572 2.602-2.71 4.404a2.091 2.091 0 0 0-.023.339v46.79c0 1.967 1.204 3.592 2.733 4.766 1.528 1.174 3.512 2.078 5.872 2.846 4.72 1.534 11 2.439 17.93 2.439 6.933 0 13.21-.905 17.93-2.44 2.36-.766 4.321-1.67 5.85-2.845 1.527-1.174 2.754-2.8 2.754-4.765v-46.79a2.1 2.1 0 0 0-.045-.407c-.162-1.77-1.295-3.249-2.71-4.336-1.529-1.174-3.489-2.079-5.849-2.846-4.72-1.533-11-2.416-17.93-2.416zm0 4.178c6.566 0 12.5.873 16.62 2.213 2.063.67 3.685 1.465 4.63 2.19.922.708 1.076 1.19 1.084 1.424v.022c0 .227-.14.698-1.084 1.423-.945.726-2.567 1.521-4.63 2.191-4.126 1.34-10.06 2.236-16.62 2.236-6.566 0-12.52-.895-16.64-2.236-2.063-.67-3.662-1.465-4.607-2.19-.945-.726-1.107-1.198-1.107-1.424v-.022c.008-.233.184-.715 1.107-1.423.945-.726 2.544-1.521 4.607-2.191 4.126-1.34 10.08-2.213 16.64-2.213zm-22.36 11.56c1.264.729 2.756 1.354 4.426 1.897 4.72 1.533 11 2.416 17.93 2.416 6.933 0 13.21-.884 17.93-2.416 1.67-.543 3.143-1.168 4.404-1.897v41.06c0 .226-.162.72-1.107 1.445-.945.726-2.544 1.52-4.607 2.19-4.125 1.342-10.06 2.237-16.62 2.237-6.566 0-12.52-.895-16.64-2.236-2.063-.67-3.662-1.465-4.607-2.191-.945-.726-1.107-1.22-1.107-1.445 0-.172.01-.177 0-.045a2.091 2.091 0 0 0 0-.136v-40.88zm85.3 5.149c-5.239 0-9.676 3.422-11.2 8.153h-20.39v7.227h20.39c1.526 4.73 5.963 8.153 11.2 8.153v-23.54zm-136.2.158v23.24l14.45-8.017h27.51v-7.227h-27.53l-14.43-7.995zm63.53 8.537c-4.486 0-8.153 3.666-8.153 8.153s3.666 8.153 8.153 8.153c3.167 0 5.904-1.84 7.249-4.494l2.371-1.762 2.304 1.829.7.52.678-.497 2.665-1.942 2.326 2.123.88.813.768-.949 1.378-1.671 2.958.768.497.113.406-.271 1.987-1.332.384-.249.09-.474.656-3.275.27-1.355h-21.54c-1.4-2.474-3.99-4.201-7.022-4.201zm124.6 20.08c-1.094 0-2.037.158-2.823.474-.778.316-1.39.791-1.852 1.423a6.177 6.177 0 0 0-1.016 2.213c-.21.85-.316 1.84-.316 2.981v7.904c0 1.142.105 2.137.316 3.004a6.47 6.47 0 0 0 1.016 2.258c.462.64 1.074 1.113 1.852 1.445.786.332 1.729.497 2.823.497 1.086 0 2.023-.165 2.8-.497a4.349 4.349 0 0 0 1.852-1.468c.462-.648.806-1.4 1.016-2.258.219-.867.339-1.855.339-2.98v-7.905c0-2.3-.483-4.069-1.423-5.285-.94-1.215-2.462-1.807-4.584-1.807zm-19.02.203v21.79h5.465c1.92 0 3.429-.561 4.539-1.67 1.118-1.119 1.671-2.643 1.671-4.563 0-1.539-.323-2.719-.971-3.546-.648-.834-1.617-1.468-2.913-1.897 1.199-.332 2.09-.853 2.665-1.558.575-.713.858-1.756.858-3.117 0-.94-.173-1.757-.497-2.462-.316-.705-.755-1.264-1.355-1.694a6.227 6.227 0 0 0-2.078-.97c-.794-.211-1.706-.317-2.71-.317h-4.675zm27.17 0v21.79h5.443c1.92 0 3.429-.561 4.539-1.67 1.118-1.119 1.694-2.643 1.694-4.563 0-1.539-.323-2.719-.971-3.546-.648-.834-1.617-1.468-2.913-1.897 1.199-.332 2.067-.853 2.642-1.558.575-.713.88-1.756.88-3.117 0-.94-.172-1.757-.496-2.462a4.112 4.112 0 0 0-1.378-1.694 6.227 6.227 0 0 0-2.078-.97c-.794-.211-1.683-.317-2.687-.317h-4.675zm-24.05 2.35c.55 0 .988-.009 1.287 0 .3.007.661.027 1.107.067.454.032.796.1 1.039.18.243.082.521.208.813.362.3.146.532.323.677.542s.256.48.362.813c.105.324.158.7.158 1.129 0 2.592-1.292 3.907-3.884 3.907h-1.558v-7.001zm15.9 0c1.102 0 1.845.301 2.258.925.413.624.632 1.56.632 2.823v9.463c0 1.28-.21 2.257-.632 2.913-.413.656-1.165.971-2.258.971-1.094 0-1.86-.315-2.281-.97-.413-.657-.61-1.634-.61-2.914V272.4c0-1.264.197-2.199.61-2.823.413-.624 1.179-.926 2.281-.926zm11.27 0c.55 0 .965-.009 1.265 0 .3.007.684.027 1.129.067.454.032.796.1 1.039.18.243.082.521.208.813.362.3.146.51.323.655.542s.278.48.384.813c.105.324.158.7.158 1.129 0 2.592-1.292 3.907-3.884 3.907h-1.558v-7.001zm-27.17 9.326h1.558c1.345 0 2.335.302 2.958.926.624.616.926 1.606.926 2.958 0 1.353-.302 2.335-.926 2.958-.624.616-1.614.926-2.958.926h-1.558v-7.769zm27.17 0h1.558c1.345 0 2.335.302 2.958.926.624.616.926 1.606.926 2.958 0 1.353-.302 2.335-.926 2.958-.624.616-1.614.926-2.958.926h-1.558v-7.769zM553.5 39.638c-13.99 0-25.41 11.43-25.41 25.43 0 8.61 4.322 16.24 10.91 20.84-15.45 5.87-26.47 20.82-26.47 38.3-.027 1.909 1.704 3.665 3.613 3.665s3.64-1.756 3.613-3.665c0-18.55 14.86-33.53 33.36-33.74.128.002.256.022.384.022s.256-.02.384-.022c18.5.206 33.36 15.19 33.36 33.74-.027 1.909 1.704 3.665 3.613 3.665s3.64-1.756 3.613-3.665c0-17.49-11.03-32.44-26.49-38.3 6.592-4.604 10.93-12.23 10.93-20.84 0-13.99-11.41-25.43-25.41-25.43zm0 7.249c10.09 0 18.18 8.09 18.18 18.18s-8.091 18.18-18.18 18.18-18.2-8.091-18.2-18.18 8.114-18.18 18.2-18.18zm-115.2 25.1c-6.933 0-13.21.883-17.93 2.416-2.36.766-4.343 1.672-5.872 2.846-1.433 1.1-2.572 2.602-2.71 4.404a2.088 2.088 0 0 0-.022.339v46.79c0 1.967 1.204 3.592 2.733 4.766 1.528 1.174 3.512 2.078 5.872 2.846 4.72 1.534 11 2.439 17.93 2.439 6.933 0 13.21-.905 17.93-2.44 2.36-.766 4.32-1.67 5.849-2.845 1.528-1.174 2.755-2.8 2.755-4.765v-46.79a2.12 2.12 0 0 0-.046-.407c-.162-1.77-1.295-3.249-2.71-4.336-1.529-1.174-3.489-2.079-5.849-2.846-4.72-1.533-11-2.416-17.93-2.416zm0 4.178c6.566 0 12.5.873 16.62 2.213 2.063.67 3.685 1.465 4.63 2.19.922.708 1.076 1.19 1.084 1.424v.022c0 .227-.14.698-1.084 1.423-.945.726-2.567 1.521-4.63 2.191-4.126 1.34-10.06 2.236-16.62 2.236-6.566 0-12.52-.895-16.64-2.236-2.063-.67-3.662-1.465-4.607-2.19-.945-.726-1.107-1.198-1.107-1.424v-.022c.008-.233.184-.715 1.107-1.423.945-.726 2.544-1.521 4.607-2.191 4.126-1.34 10.08-2.213 16.64-2.213zm-22.36 11.56c1.264.729 2.756 1.355 4.426 1.897 4.72 1.533 11 2.416 17.93 2.416 6.933 0 13.21-.884 17.93-2.416 1.67-.543 3.143-1.168 4.404-1.897v41.06c0 .226-.162.72-1.107 1.445-.945.726-2.544 1.52-4.607 2.19-4.125 1.342-10.06 2.237-16.62 2.237-6.566 0-12.52-.895-16.64-2.236-2.063-.67-3.662-1.465-4.607-2.191-.945-.726-1.107-1.22-1.107-1.445 0-.172.01-.177 0-.045a3.06 3.06 0 0 0 0-.136v-40.88zm85.3 5.149c-5.239 0-9.676 3.422-11.2 8.153h-20.39v7.227h20.39c1.526 4.73 5.963 8.153 11.2 8.153v-11.77zm-72.72 8.695c-4.486 0-8.153 3.666-8.153 8.153s3.666 8.153 8.153 8.153c3.167 0 5.904-1.84 7.249-4.494l2.371-1.762 2.304 1.829.7.52.678-.498 2.665-1.942 2.326 2.123.88.813.768-.948 1.378-1.671 2.958.768.497.113.407-.271 1.987-1.332.383-.249.09-.474.656-3.275.27-1.355h-21.54c-1.4-2.474-3.99-4.201-7.022-4.201zm5.894 41.98v14.34l-7.995 14.41h23.22l-7.995-14.41v-14.3a86.088 86.088 0 0 1-3.342.045 84.99 84.99 0 0 1-3.884-.09zM639.2 296.438c-13.99 0-25.41 11.41-25.41 25.41 0 8.607 4.327 16.24 10.91 20.84-15.45 5.87-26.47 20.82-26.47 38.3-.027 1.909 1.704 3.665 3.613 3.665s3.64-1.756 3.613-3.665c0-18.5 14.79-33.44 33.22-33.72.173.004.346 0 .52 0s.346.004.519 0c18.43.278 33.22 15.22 33.22 33.72-.027 1.909 1.704 3.665 3.613 3.665s3.64-1.756 3.613-3.665c0-17.48-11.02-32.41-26.47-38.28 6.596-4.604 10.93-12.25 10.93-20.87 0-13.99-11.43-25.41-25.43-25.41zm-159.1 6.707l-16.42 16.44 15.83 4.539 13.21 13.21c.258-1.305.88-2.545 1.807-3.5.49-.505 1.097-1.827 1.716-3.23l-11.61-11.61zm159.1.52c10.09 0 18.2 8.09 18.2 18.18 0 9.953-7.896 17.99-17.8 18.2-.136-.002-.27-.023-.406-.023s-.27.02-.407.022c-9.896-.218-17.77-8.252-17.77-18.2 0-10.09 8.091-18.18 18.18-18.18zM524 328.714c-6.933 0-13.21.883-17.93 2.415-2.36.767-4.343 1.694-5.872 2.868-1.409 1.082-2.519 2.53-2.687 4.291a2.09 2.09 0 0 0-.045.452v46.59h.022c0 .078-.022.223-.022.203 0 1.966 1.204 3.568 2.733 4.743 1.528 1.174 3.512 2.101 5.872 2.868 4.72 1.534 11 2.416 17.93 2.416 6.933 0 13.21-.882 17.93-2.416 2.36-.767 4.343-1.694 5.872-2.868 1.528-1.174 2.733-2.777 2.733-4.743v-46.79a2.08 2.08 0 0 0-.068-.61c-.22-1.69-1.32-3.083-2.687-4.133-1.529-1.174-3.489-2.102-5.849-2.868-4.72-1.533-11-2.416-17.93-2.416zm0 4.177c6.566 0 12.52.896 16.64 2.236 2.063.67 3.662 1.465 4.607 2.191.945.726 1.107 1.197 1.107 1.423 0 .226-.162.72-1.107 1.445-.945.726-2.544 1.521-4.607 2.191-4.126 1.34-10.08 2.213-16.64 2.213-6.566 0-12.52-.873-16.64-2.213-2.063-.67-3.662-1.465-4.607-2.19-.945-.726-1.107-1.22-1.107-1.446 0-.226.162-.697 1.107-1.423.945-.725 2.544-1.52 4.607-2.19 4.126-1.34 10.08-2.237 16.64-2.237zm-22.36 11.56c1.269.735 2.746 1.351 4.426 1.897 4.72 1.533 11 2.416 17.93 2.416 6.933 0 13.21-.883 17.93-2.416 1.681-.546 3.16-1.162 4.426-1.897v41.08c0 .227-.162.697-1.107 1.423-.945.726-2.544 1.52-4.607 2.191-4.125 1.341-10.08 2.236-16.64 2.236-6.566 0-12.52-.895-16.64-2.236-2.063-.67-3.662-1.465-4.607-2.19-.945-.727-1.107-1.197-1.107-1.424 0-.171.01-.177 0-.045a2.084 2.084 0 0 0 0-.158v-40.88zm85.32 5.172c-5.239 0-9.676 3.422-11.2 8.153h-20.42v7.227h20.42c1.526 4.731 5.963 8.153 11.2 8.153v-11.77zm-72.72 8.695c-4.486 0-8.153 3.643-8.153 8.13s3.666 8.153 8.153 8.153c3.167 0 5.881-1.84 7.227-4.494l2.371-1.762 2.326 1.83.677.519.7-.497 2.643-1.942 2.326 2.123.88.813.768-.926 1.378-1.671 2.958.745.497.113.43-.27 1.964-1.31.384-.272.09-.474.655-3.275.294-1.355h-21.543c-1.401-2.474-3.99-4.178-7.023-4.178z" color="#000"/>
    <path opacity=".691"  d="M880.1 61.31c-14 0-25.4 11.45-25.4 25.44 0 8.61 4.3 16.25 10.9 20.85-15.4 5.9-26.4 20.8-26.4 38.3a3.614 3.614 0 1 0 7.2 0c0-18.6 14.9-33.5 33.4-33.7h.7c18.5.2 33.4 15.1 33.4 33.7a3.614 3.614 0 1 0 7.2 0c0-17.5-11-32.4-26.5-38.3 6.6-4.6 10.9-12.24 10.9-20.85 0-13.99-11.4-25.44-25.4-25.44zm0 7.25c10.1 0 18.2 8.1 18.2 18.19s-8.1 18.15-18.2 18.15-18.2-8.06-18.2-18.15 8.1-18.19 18.2-18.19zm-65.6 58.24c-4.2 3.1-5.8 8.4-4.3 13.2l-10.4 7.5c.4.7.7 1.4 1 1.7 1.3 1.3 2.1 3.1 2.1 4.9v.1l11.6-8.4c4 3 9.6 3.1 13.8.1l-6.9-9.6-6.9-9.5zm41.2 16.9c-.6 0-1.2.2-1.7.4-.7.2-1.3.6-1.8 1-.4.5-.8 1.1-1 1.7-.3.7-.5 1.5-.6 2.2-.2.8-.2 1.7-.2 2.7v6.2c0 1 0 1.8.2 2.6.1.8.3 1.5.6 2.2.2.7.6 1.3 1 1.7.5.5 1.1.8 1.8 1.1s1.5.4 2.4.4c1 0 1.9-.2 2.7-.5.8-.4 1.4-.9 1.8-1.5.5-.7.7-1.4.9-2.3.2-.8.4-1.8.4-2.9v-.8h-3.1v.8c0 .5-.1 1-.1 1.4s-.1.8-.2 1.2-.3.8-.5 1.1c-.1.3-.4.5-.7.7-.4.1-.8.2-1.2.2-.5 0-.9-.1-1.2-.2-.4-.2-.6-.4-.9-.7-.2-.3-.3-.6-.5-1.1-.1-.4-.2-.8-.2-1.2-.1-.5-.1-.9-.1-1.4v-7.8c0-.6 0-1.1.1-1.5 0-.4 0-.8.2-1.3.1-.4.2-.8.4-1 .2-.3.5-.5.9-.6.3-.2.8-.3 1.3-.3.4 0 .7.1 1 .2s.5.2.7.4c.2.1.4.3.5.5.1.3.2.5.3.9 0 .3.1.6.1.9s.1.7.1 1.1v.7h3.1v-.7c-.1-1-.2-2-.4-2.7-.3-.8-.6-1.5-1-2.1-.5-.5-1.1-1-1.8-1.3s-1.6-.4-2.6-.4h-.7zm38.8 0c-1.1 0-2.1.1-2.8.5-.8.3-1.5.7-1.9 1.4-.5.6-.8 1.3-1 2.2-.2.8-.3 1.8-.3 3v7.9c0 1.1.1 2.1.3 3 .2.8.5 1.6 1 2.2.4.7 1.1 1.1 1.9 1.5.7.3 1.7.5 2.8.5s2-.2 2.7-.5c.8-.4 1.5-.9 1.9-1.5.5-.6.8-1.4 1-2.2.2-.9.4-1.9.4-3v-7.9c0-2.3-.5-4.1-1.4-5.3-1-1.2-2.5-1.8-4.6-1.8zm-27.5.2l-4.7 21.8h3.1l1.2-5.5h3.9l1.2 5.5h3.1l-4.7-21.8H867zm8.9 0v21.8h3.2v-10.1h2.3l3.1 10.1h3.1l-3.5-10.9c.9-.4 1.6-1 2-1.8.5-.9.7-2 .7-3.3 0-2.1-.6-3.6-1.7-4.5-1.2-.9-2.9-1.3-5.3-1.3h-3.9zm26.7 0v21.8h8.6v-2.4h-5.4v-19.4h-3.2zm-131.1.1c-6.9 0-13.2.9-17.9 2.4-2.4.8-4.4 1.7-5.9 2.9s-2.7 2.8-2.7 4.8v46.7c0 2 1.2 3.6 2.8 4.8 1.5 1.2 3.4 2.1 5.8 2.8 4.7 1.6 11 2.5 17.9 2.5 7 0 13.2-.9 17.9-2.5 2.4-.7 4.4-1.6 5.9-2.8s2.8-2.8 2.8-4.8v-46.7a2.091 2.091 0 0 0-.1-.5c-.1-1.7-1.3-3.2-2.7-4.3-1.5-1.2-3.5-2.1-5.8-2.9-4.8-1.5-11-2.4-18-2.4zm107.6 2.2h.7c1.3 0 2.3.3 3 .8.6.6.9 1.5.9 2.7 0 1.3-.3 2.2-.9 2.7-.7.5-1.7.8-3 .8h-.7v-7zm15.4 0c1.1 0 1.8.3 2.2 1 .4.6.7 1.5.7 2.8v9.4c0 1.3-.3 2.3-.7 2.9-.4.7-1.1 1-2.2 1s-1.9-.3-2.3-1c-.4-.6-.6-1.6-.6-2.9V150c0-1.3.2-2.2.6-2.8.4-.7 1.2-1 2.3-1zm-123 2c6.6 0 12.5.9 16.7 2.2 2 .7 3.6 1.5 4.6 2.2.9.8 1.1 1.2 1.1 1.5 0 .2-.2.7-1.1 1.4-1 .7-2.6 1.5-4.6 2.2-4.2 1.3-10.1 2.2-16.7 2.2-6.5 0-12.5-.9-16.6-2.2-2.1-.7-3.7-1.5-4.6-2.2-.8-.6-1.1-1.1-1.1-1.3v-.1a2.091 2.091 0 0 0 0-.2c0-.2.3-.6 1.1-1.3.9-.7 2.5-1.5 4.6-2.2 4.1-1.3 10.1-2.2 16.6-2.2zm97 .4l1.6 9.3H867l1.5-9.3zm-74.6 11.2v41c0 .3-.2.8-1.1 1.5-1 .7-2.6 1.5-4.6 2.2-4.2 1.3-10.1 2.2-16.7 2.2-6.5 0-12.5-.9-16.6-2.2-2.1-.7-3.7-1.5-4.6-2.2-1-.7-1.1-1.2-1.1-1.5a2.091 2.091 0 0 0 0-.1v-40.9c1.3.7 2.7 1.3 4.4 1.9 4.7 1.5 11 2.4 17.9 2.4 7 0 13.2-.9 18-2.4 1.7-.6 3.1-1.2 4.4-1.9zm-32.1 13.8c-4.5 0-8.2 3.7-8.2 8.2s3.7 8.1 8.2 8.1c3.1 0 5.9-1.8 7.2-4.5l2.4-1.7 2.3 1.8.7.5.7-.5 2.6-1.9 2.3 2.1.9.8.8-.9 1.4-1.7 2.9.8.5.1.4-.3 2-1.3.4-.3.1-.5.6-3.2.3-1.4h-21.5c-1.4-2.5-4-4.2-7-4.2zM909 184.2c-14 0-25.4 11.4-25.4 25.4 0 8.6 4.3 16.2 10.9 20.8-15.4 5.9-26.4 20.9-26.4 38.4a3.614 3.614 0 1 0 7.2 0c0-18.6 14.9-33.6 33.4-33.8h.7c18.5.2 33.4 15.2 33.4 33.8a3.614 3.614 0 1 0 7.2 0c0-17.5-11-32.5-26.5-38.4 6.6-4.6 10.9-12.2 10.9-20.8 0-14-11.4-25.4-25.4-25.4zm-168.8 6.3l-20.7 15-16.4 1.8 13.6 18.9 7.1-14.9 16.4-11.9v-8.9zm168.8.9c10.1 0 18.2 8.1 18.2 18.2s-8.1 18.2-18.2 18.2-18.2-8.1-18.2-18.2 8.1-18.2 18.2-18.2zm-115.2 25.1c-6.9 0-13.2.8-17.9 2.4-2.4.7-4.4 1.6-5.9 2.8-1.4 1.1-2.5 2.6-2.7 4.4a2.091 2.091 0 0 0 0 .4v46.7c0 2 1.2 3.7 2.7 4.8 1.5 1.2 3.5 2.1 5.9 2.9 4.7 1.5 11 2.4 17.9 2.4s13.2-.9 18-2.4c2.3-.8 4.3-1.7 5.8-2.9 1.5-1.1 2.7-2.8 2.7-4.8v-46.7a2.1 2.1 0 0 0 0-.4c-.1-1.8-1.3-3.3-2.7-4.4-1.5-1.2-3.5-2.1-5.8-2.8-4.8-1.6-11.1-2.4-18-2.4zm0 4.1c6.6 0 12.5.9 16.6 2.2 2.1.7 3.7 1.5 4.7 2.2.9.7 1 1.2 1.1 1.5 0 .2-.2.7-1.1 1.4-1 .7-2.6 1.5-4.7 2.2-4.1 1.3-10 2.2-16.6 2.2s-12.5-.9-16.6-2.2c-2.1-.7-3.7-1.5-4.6-2.2-1-.7-1.1-1.2-1.1-1.4 0-.3.1-.8 1.1-1.5.9-.7 2.5-1.5 4.6-2.2 4.1-1.3 10-2.2 16.6-2.2zm-22.3 11.6c1.2.7 2.7 1.4 4.4 1.9 4.7 1.5 11 2.4 17.9 2.4s13.2-.9 18-2.4c1.6-.5 3.1-1.2 4.4-1.9v41c0 .3-.2.8-1.2 1.5-.9.7-2.5 1.5-4.6 2.2-4.1 1.3-10 2.2-16.6 2.2s-12.5-.9-16.6-2.2c-2.1-.7-3.7-1.5-4.6-2.2-1-.7-1.1-1.2-1.1-1.4v-.1a2.091 2.091 0 0 0 0-.1v-40.9zm85.3 5.1c-5.3 0-9.7 3.5-11.2 8.2h-20.4v7.2h20.4c1.5 4.7 5.9 8.2 11.2 8.2v-23.6zm-136.7.2v23.3l14.4-8.1h28v-7.2h-28l-14.4-8zM784 246c-4.5 0-8.1 3.7-8.1 8.2s3.6 8.1 8.1 8.1c3.2 0 5.9-1.8 7.3-4.5l2.4-1.7 2.3 1.8.7.5.6-.5 2.7-1.9 2.3 2.1.9.8.8-.9 1.3-1.7 3 .8.5.1.4-.3 2-1.3.4-.3.1-.4.6-3.3.3-1.4h-21.5c-1.4-2.4-4-4.2-7.1-4.2zm93.2 53.8c-13.9 0-25.4 11.4-25.4 25.4 0 8.6 4.4 16.3 11 20.9-15.5 5.8-26.5 20.8-26.5 38.3a3.614 3.614 0 1 0 7.2 0c0-18.6 14.8-33.6 33.3-33.8.2 0 .3.1.4.1.2 0 .3-.1.4-.1 18.5.2 33.4 15.2 33.4 33.8a3.614 3.614 0 1 0 7.2 0c0-17.5-11-32.5-26.5-38.3 6.6-4.6 11-12.3 11-20.9 0-14-11.5-25.4-25.5-25.4zm0 7.2c10.1 0 18.2 8.1 18.2 18.2s-8.1 18.2-18.2 18.2c-10 0-18.2-8.1-18.2-18.2s8.2-18.2 18.2-18.2zM762 332.1c-6.9 0-13.2.9-17.9 2.4-2.4.8-4.4 1.7-5.9 2.8-1.4 1.1-2.6 2.6-2.7 4.5a2.091 2.091 0 0 0 0 .3V388.9c0 1.9 1.2 3.6 2.7 4.8 1.5 1.1 3.5 2 5.9 2.8 4.7 1.5 11 2.4 17.9 2.4s13.2-.9 17.9-2.4c2.4-.8 4.4-1.7 5.9-2.8 1.5-1.2 2.8-2.9 2.8-4.8v-46.8a2.1 2.1 0 0 0-.1-.4c-.2-1.8-1.3-3.3-2.7-4.4-1.5-1.1-3.5-2-5.9-2.8-4.7-1.5-11-2.4-17.9-2.4zm0 4.1c6.6 0 12.5.9 16.6 2.3 2.1.6 3.7 1.4 4.6 2.2 1 .7 1.1 1.2 1.1 1.4s-.1.7-1.1 1.4c-.9.8-2.5 1.5-4.6 2.2-4.1 1.4-10 2.3-16.6 2.3s-12.5-.9-16.6-2.3c-2.1-.7-3.7-1.4-4.6-2.2-1-.7-1.1-1.2-1.1-1.4s.1-.7 1.1-1.4c.9-.8 2.5-1.6 4.6-2.2 4.1-1.4 10-2.3 16.6-2.3zm-22.3 11.6c1.2.7 2.7 1.4 4.4 1.9 4.7 1.6 11 2.4 17.9 2.4s13.2-.8 17.9-2.4c1.7-.5 3.2-1.2 4.4-1.9v41.1c0 .2-.1.7-1.1 1.4-.9.7-2.5 1.6-4.6 2.2-4.1 1.4-10 2.3-16.6 2.3s-12.5-.9-16.6-2.3c-2.1-.6-3.7-1.5-4.6-2.2-1-.7-1.1-1.2-1.1-1.4a2.091 2.091 0 0 0 0-.2v-40.9zM825 353c-5.3 0-9.7 3.4-11.2 8.1h-20.4v7.2h20.4c1.5 4.8 5.9 8.2 11.2 8.2V353zm-136.8.1v23.3l14.5-8.1h28v-7.2h-28l-14.5-8zm64 8.6c-4.4 0-8.1 3.6-8.1 8.1s3.7 8.2 8.1 8.2c3.2 0 6-1.9 7.3-4.5l2.3-1.8 2.4 1.8.7.6.6-.5 2.7-2 2.3 2.2.9.8.8-1 1.4-1.7 2.9.8.5.1.4-.2 2-1.4.4-.2.1-.5.6-3.3.3-1.3H759.2c-1.4-2.5-3.9-4.2-7-4.2z" fill="#216778" color="#000"/>
    <path  fill="#ff8080" d="M725.6 345.338a.421.421 0 0 0-.4.411v3.562c0 .213.194.406.406.406s.405-.193.406-.406v-3.562a.422.422 0 0 0-.412-.411zm-3.626.005c-1.203 0-2.187.984-2.187 2.187s.984 2.187 2.187 2.187 2.187-.984 2.187-2.187-.984-2.187-2.187-2.187zm0 .81a1.37 1.37 0 0 1 1.376 1.376 1.37 1.37 0 0 1-1.376 1.376 1.37 1.37 0 0 1-1.376-1.376 1.37 1.37 0 0 1 1.376-1.376zm-3.638-.815a.421.421 0 0 0-.4.412v3.562c0 .212.193.406.406.406s.406-.194.406-.406v-3.562a.422.422 0 0 0-.412-.412zm-1.971 0a.421.421 0 0 0-.4.412v3.562c0 .212.193.406.406.406a.422.422 0 0 0 .406-.406v-3.562a.422.422 0 0 0-.412-.412zm10.27-5.189a.421.421 0 0 0-.4.412v3.564c-.014.22.184.43.405.43s.418-.21.404-.43v-3.564a.422.422 0 0 0-.409-.412zm-2.077 0a.421.421 0 0 0-.4.412v3.564c0 .212.194.405.406.405s.405-.193.406-.405v-3.564a.422.422 0 0 0-.412-.412zm-3.625.006c-1.203 0-2.187.984-2.187 2.187s.984 2.187 2.187 2.187 2.187-.984 2.187-2.187-.984-2.187-2.187-2.187zm0 .81a1.37 1.37 0 0 1 1.376 1.377 1.37 1.37 0 0 1-1.376 1.376 1.37 1.37 0 0 1-1.376-1.376 1.37 1.37 0 0 1 1.376-1.376zm-5.188-.81c-1.203 0-2.187.984-2.187 2.187s.984 2.187 2.187 2.187 2.187-.984 2.187-2.187-.984-2.187-2.187-2.187zm0 .81a1.37 1.37 0 0 1 1.376 1.377 1.37 1.37 0 0 1-1.376 1.376 1.37 1.37 0 0 1-1.376-1.376 1.37 1.37 0 0 1 1.376-1.376zm-3.637-.816a.421.421 0 0 0-.4.412v3.564c0 .212.193.406.406.406a.422.422 0 0 0 .406-.406v-3.564a.422.422 0 0 0-.412-.412zm-3.626.006c-1.203 0-2.187.984-2.187 2.187s.984 2.187 2.187 2.187 2.187-.984 2.187-2.187-.984-2.187-2.187-2.187zm0 .81a1.37 1.37 0 0 1 1.376 1.377 1.37 1.37 0 0 1-1.376 1.376 1.37 1.37 0 0 1-1.376-1.376 1.37 1.37 0 0 1 1.376-1.376zm-5.188-.81c-1.203 0-2.187.984-2.187 2.187s.984 2.187 2.187 2.187 2.187-.984 2.187-2.187-.984-2.187-2.187-2.187zm0 .81a1.37 1.37 0 0 1 1.376 1.377 1.37 1.37 0 0 1-1.376 1.376 1.37 1.37 0 0 1-1.376-1.376 1.37 1.37 0 0 1 1.376-1.376zm-3.636-.816a.421.421 0 0 0-.4.412v3.564c-.013.22.184.43.405.43s.418-.21.404-.43v-3.564a.422.422 0 0 0-.409-.412zm25.94-5.187a.421.421 0 0 0-.4.412v3.562c0 .212.194.405.406.405s.405-.193.406-.405v-3.562a.422.422 0 0 0-.412-.412zm-1.971 0a.421.421 0 0 0-.4.412v3.562c0 .212.193.406.406.406a.422.422 0 0 0 .406-.406v-3.562a.422.422 0 0 0-.412-.412zm-2.077 0c-.212.004-.4.2-.398.412v3.562c-.013.22.184.43.405.43s.418-.21.405-.43v-3.562a.422.422 0 0 0-.412-.412zm-3.729.005c-1.203 0-2.187.984-2.187 2.187s.984 2.187 2.187 2.187 2.187-.984 2.187-2.187-.984-2.187-2.187-2.187zm0 .81a1.37 1.37 0 0 1 1.376 1.377 1.37 1.37 0 0 1-1.376 1.376 1.37 1.37 0 0 1-1.376-1.376 1.37 1.37 0 0 1 1.376-1.376zm-5.188-.81c-1.203 0-2.187.984-2.187 2.187s.984 2.187 2.187 2.187 2.187-.984 2.187-2.187-.984-2.187-2.187-2.187zm0 .81a1.37 1.37 0 0 1 1.376 1.377 1.37 1.37 0 0 1-1.376 1.376 1.37 1.37 0 0 1-1.376-1.376 1.37 1.37 0 0 1 1.376-1.376zm-3.637-.815a.421.421 0 0 0-.4.412v3.562c0 .212.193.406.406.406a.422.422 0 0 0 .406-.406v-3.562a.422.422 0 0 0-.412-.412zm-3.626.005c-1.203 0-2.187.984-2.187 2.187s.984 2.187 2.187 2.187 2.187-.984 2.187-2.187-.984-2.187-2.187-2.187zm0 .81a1.37 1.37 0 0 1 1.376 1.377 1.37 1.37 0 0 1-1.376 1.376 1.37 1.37 0 0 1-1.376-1.376 1.37 1.37 0 0 1 1.376-1.376zm-3.534-.815c-.212.004-.4.2-.398.412v3.562c-.013.22.184.43.405.43s.418-.21.405-.43v-3.562a.422.422 0 0 0-.412-.412zm-2.074 0a.421.421 0 0 0-.4.412v3.562c0 .212.194.405.406.405s.405-.193.406-.405v-3.562a.422.422 0 0 0-.412-.412zm.703-2.992a5.2 5.2 0 0 0-5.194 5.192v15.8a5.2 5.2 0 0 0 5.194 5.192h15.03a5.148 5.148 0 0 1-.239-1.555l.002-.06h-14.8a3.552 3.552 0 0 1-3.578-3.576v-15.8a3.552 3.552 0 0 1 3.578-3.576h24.35a3.55 3.55 0 0 1 3.576 3.576v15.8a3.546 3.546 0 0 1-2.713 3.475c.002.053.005.107.005.16 0 .528-.08 1.037-.227 1.516a5.198 5.198 0 0 0 4.551-5.152v-15.8a5.198 5.198 0 0 0-5.192-5.192h-24.35zm20 20.38a4.242 4.242 0 0 0-4.247 4.247c0 1.458.733 2.738 1.85 3.503.099.068.161.187.161.307v5.016l1.974-1.974a.385.385 0 0 1 .524 0l1.887 1.887v-4.871c0-.123.065-.244.168-.311a4.244 4.244 0 0 0-2.317-7.804z" color="#000"/>
    <path fill="#216778" d="M700 345.338c-.295 0-.535.085-.714.255-.179.17-.267.402-.267.69a1.105 1.105 0 0 0 .422.908l.697.56c.065.052.116.097.154.133.038.035.083.083.13.142a.707.707 0 0 1 .138.422c0 .28-.143.422-.422.422-.345 0-.532-.281-.56-.84l-.555.142c.022.358.123.637.308.843.186.207.455.313.807.313.298 0 .538-.082.714-.244.177-.161.263-.386.263-.673 0-.419-.183-.777-.555-1.079l-.702-.56a.68.68 0 0 1-.28-.55c0-.135.037-.239.11-.313.073-.076.178-.114.312-.114.167 0 .291.055.377.163a.84.84 0 0 1 .17.425l.013.11.555-.138c-.006-.054-.008-.095-.012-.126-.044-.283-.161-.502-.349-.657-.186-.155-.437-.235-.754-.235zm13.06 0c-.76 0-1.139.478-1.139 1.435v.99c0 .194.009.368.028.518.02.15.052.29.102.426.05.135.116.25.198.337s.194.156.325.206c.132.051.287.077.466.077.264 0 .447-.152.556-.458l.142.418h.417v-1.95h-1.115v.413h.556v.142c0 .112-.003.209-.012.296a1.509 1.509 0 0 1-.045.264.703.703 0 0 1-.097.223.492.492 0 0 1-.401.195.592.592 0 0 1-.212-.037.412.412 0 0 1-.15-.105.744.744 0 0 1-.101-.154.84.84 0 0 1-.06-.2 2.694 2.694 0 0 1-.037-.482v-1.257c0-.126.007-.238.024-.332a.941.941 0 0 1 .09-.264.414.414 0 0 1 .178-.178.601.601 0 0 1 .288-.065c.083 0 .155.012.215.037a.369.369 0 0 1 .23.25.938.938 0 0 1 .045.2c.01.065.01.143.012.235v.117h.56v-.121a1.941 1.941 0 0 0-.077-.487c-.042-.14-.104-.264-.186-.369s-.191-.181-.325-.235a1.239 1.239 0 0 0-.474-.085zm-11.64.04v3.91h.56v-1.818h.977v1.817h.56v-3.909h-.56v1.675h-.977v-1.675h-.56zm3.147 0l-.84 3.91h.56l.207-.978h.702l.206.977h.56l-.84-3.909h-.555zm1.61 0v3.91h.555v-1.818h.422l.56 1.817h.555l-.628-1.954c.16-.058.282-.167.365-.324s.125-.351.125-.584c0-.375-.105-.641-.316-.803-.21-.161-.525-.243-.94-.243h-.698zm2.34 0v3.91h.56v-3.91h-.56zm1.062 0v3.91h.556v-2.6l1.002 2.6h.397v-3.91h-.56v2.417l-.977-2.417h-.418zm-2.847.418h.142c.233 0 .407.051.523.15.116.097.174.256.174.478 0 .223-.058.384-.174.483-.116.097-.29.146-.523.146h-.142v-1.257zm-1.886.418l.276 1.679h-.556l.28-1.68zm-4.732 4.712c-.164 0-.309.022-.434.068s-.224.11-.304.191-.148.185-.199.308c-.05.122-.085.254-.105.394s-.028.298-.028.474v1.115c0 .176.008.33.028.47.02.14.056.274.105.398.051.122.119.225.199.308a.81.81 0 0 0 .304.19c.125.047.27.07.434.07.192 0 .36-.029.495-.09a.744.744 0 0 0 .32-.267c.08-.118.14-.253.174-.406.037-.153.053-.329.053-.531v-.142h-.56v.142c0 .096-.002.179-.008.251s-.016.146-.036.223a.562.562 0 0 1-.081.19.39.39 0 0 1-.142.123c-.06.032-.132.048-.215.048s-.152-.014-.215-.044a.439.439 0 0 1-.15-.126.653.653 0 0 1-.089-.187 1.269 1.269 0 0 1-.049-.227 2.688 2.688 0 0 1-.012-.251v-1.4c0-.107.006-.198.012-.27.006-.075.018-.15.037-.228a.486.486 0 0 1 .085-.182.391.391 0 0 1 .15-.114c.065-.03.14-.04.231-.04a.65.65 0 0 1 .186.02c.053.014.093.04.126.073.035.032.064.07.085.11.024.037.041.083.053.141s.02.115.024.17c.004.054.007.118.008.195v.126h.56v-.13a1.97 1.97 0 0 0-.073-.483 1.082 1.082 0 0 0-.178-.364c-.079-.105-.184-.186-.317-.24s-.292-.077-.474-.077zm2.323 0a1.36 1.36 0 0 0-.507.085.744.744 0 0 0-.332.251c-.083.112-.145.245-.183.397s-.057.335-.057.54v1.419c0 .205.02.383.057.539.038.154.1.287.183.401s.193.204.332.264c.141.06.31.09.507.09.195 0 .36-.03.499-.09a.794.794 0 0 0 .336-.264c.083-.116.145-.25.183-.405.04-.156.06-.333.06-.535v-1.42c0-.412-.086-.73-.255-.948-.168-.218-.442-.324-.823-.324zm11.24 0c-.164 0-.309.022-.434.068a.821.821 0 0 0-.507.5c-.05.121-.08.253-.101.393s-.033.298-.033.474v1.115c0 .176.013.33.033.47.02.14.052.274.101.398.051.122.119.225.199.308.08.081.183.144.308.19.125.047.27.07.434.07.192 0 .355-.029.49-.09a.744.744 0 0 0 .32-.267c.08-.118.14-.253.175-.406.037-.153.053-.329.053-.531v-.142h-.555v.142c0 .096-.002.179-.008.251s-.02.146-.041.223a.562.562 0 0 1-.081.19.375.375 0 0 1-.138.123c-.06.032-.132.048-.215.048s-.156-.014-.219-.044a.439.439 0 0 1-.15-.126.653.653 0 0 1-.09-.187 1.269 1.269 0 0 1-.048-.227 2.786 2.786 0 0 1-.008-.251v-1.4c0-.107.002-.198.008-.27.006-.075.018-.15.037-.228a.484.484 0 0 1 .085-.182.391.391 0 0 1 .15-.114.583.583 0 0 1 .235-.04c.07 0 .13.003.182.02a.29.29 0 0 1 .13.073c.035.032.064.07.085.11.024.037.042.083.053.141s.02.115.024.17c.004.054.007.118.008.195v.126h.556v-.13a1.97 1.97 0 0 0-.073-.483 1.082 1.082 0 0 0-.178-.364c-.079-.105-.184-.186-.317-.24s-.288-.077-.47-.077zm-9.772.036v3.909h.56v-2.599l.997 2.599h.398v-3.909h-.56v2.417l-.977-2.417h-.418zm2.133 0v.499h.697v3.41h.56v-3.41h.697v-.499h-1.954zm2.133 0v3.909h.56v-1.813h.417l.564 1.813H710.803l.206-.977h.702l.207.977h.56l-.84-3.909h-.556l-.83 3.864-.613-1.91c.16-.058.282-.163.365-.32s.121-.355.121-.588c0-.376-.105-.642-.316-.803-.21-.162-.525-.243-.94-.243h-.698zm6.536 0v.499h.697v3.41h.56v-3.41h.697v-.499h-1.954zm-12.27.422c.198 0 .331.054.406.166.074.112.113.28.113.507v1.699c0 .23-.038.405-.113.523-.075.118-.21.174-.406.174s-.334-.056-.41-.174c-.074-.118-.109-.293-.109-.523v-1.7c0-.226.035-.394.11-.506.074-.112.211-.166.409-.166zm6.289 0h.138c.233 0 .407.047.523.146.116.097.174.256.174.478 0 .223-.058.384-.174.483-.116.097-.29.146-.523.146h-.138v-1.253zm2.632.417l.276 1.675h-.556l.28-1.675zm9.496 1.233a.305.305 0 0 0-.182.077l-.309.272-.332-.24a.305.305 0 0 0-.442.09l-.211.357-.39-.126a.305.305 0 0 0-.393.223l-.089.402h-.41a.305.305 0 0 0-.303.332l.036.414-.39.125a.305.305 0 0 0-.186.41l.167.377-.333.243a.305.305 0 0 0-.049.45l.272.309-.243.332a.305.305 0 0 0 .093.442l.353.21-.126.39a.305.305 0 0 0 .223.394l.401.089.004.41a.305.305 0 0 0 .333.303l.41-.036.13.39a.305.305 0 0 0 .409.186l.377-.163.243.329a.305.305 0 0 0 .446.049l.312-.272.333.243a.305.305 0 0 0 .442-.093l.21-.353.39.126a.305.305 0 0 0 .39-.223l.093-.402.41-.004a.305.305 0 0 0 .303-.332l-.036-.41.389-.13a.305.305 0 0 0 .182-.409l-.162-.377.333-.243a.305.305 0 0 0 .048-.446l-.271-.313.239-.332a.305.305 0 0 0-.09-.442l-.356-.21.126-.39a.305.305 0 0 0-.223-.39l-.402-.093v-.41a.305.305 0 0 0-.332-.303l-.414.036-.125-.39a.305.305 0 0 0-.41-.182l-.377.163-.243-.333a.305.305 0 0 0-.268-.126zm-.028.755l.19.26a.305.305 0 0 0 .365.1l.296-.125.097.304a.305.305 0 0 0 .32.207l.321-.029v.32a.305.305 0 0 0 .24.297l.311.073-.097.304a.305.305 0 0 0 .134.357l.276.162-.187.26a.305.305 0 0 0 .016.38l.215.244-.26.186a.305.305 0 0 0-.1.37l.125.291-.304.102a.305.305 0 0 0-.207.316l.028.32h-.32a.305.305 0 0 0-.296.24l-.069.316-.308-.102a.305.305 0 0 0-.357.134l-.162.276-.26-.187a.305.305 0 0 0-.38.02l-.24.212-.19-.26a.305.305 0 0 0-.365-.101l-.296.13-.102-.305a.305.305 0 0 0-.316-.21l-.32.028v-.32a.305.305 0 0 0-.24-.296l-.312-.07.098-.303a.305.305 0 0 0-.134-.357l-.28-.166.19-.26a.305.305 0 0 0-.02-.377l-.21-.24.259-.19a.305.305 0 0 0 .101-.369l-.125-.296.3-.097a.305.305 0 0 0 .21-.32l-.028-.32h.32a.305.305 0 0 0 .296-.24l.07-.312.303.097a.305.305 0 0 0 .357-.134l.166-.275.26.186a.305.305 0 0 0 .377-.016l.243-.215z"/>
    <path  fill="#ff8080" d="M757.4 230.438a.421.421 0 0 0-.4.411v3.562c0 .213.194.406.406.406s.405-.193.406-.406v-3.562a.422.422 0 0 0-.412-.411zm-3.626.005c-1.203 0-2.187.984-2.187 2.187s.984 2.187 2.187 2.187 2.187-.984 2.187-2.187-.984-2.187-2.187-2.187zm0 .81a1.37 1.37 0 0 1 1.376 1.376 1.37 1.37 0 0 1-1.376 1.376 1.37 1.37 0 0 1-1.376-1.376 1.37 1.37 0 0 1 1.376-1.376zm-3.638-.815a.421.421 0 0 0-.4.412v3.562c0 .212.193.406.406.406s.406-.194.406-.406v-3.562a.422.422 0 0 0-.412-.412zm-1.971 0a.421.421 0 0 0-.4.412v3.562c0 .212.193.406.406.406a.422.422 0 0 0 .406-.406v-3.562a.422.422 0 0 0-.412-.412zm10.27-5.189a.421.421 0 0 0-.4.412v3.564c-.014.22.184.43.405.43s.418-.21.404-.43v-3.564a.422.422 0 0 0-.409-.412zm-2.077 0a.421.421 0 0 0-.4.412v3.564c0 .212.194.405.406.405s.405-.193.406-.405v-3.564a.422.422 0 0 0-.412-.412zm-3.625.006c-1.203 0-2.187.984-2.187 2.187s.984 2.187 2.187 2.187 2.187-.984 2.187-2.187-.984-2.187-2.187-2.187zm0 .81a1.37 1.37 0 0 1 1.376 1.377 1.37 1.37 0 0 1-1.376 1.376 1.37 1.37 0 0 1-1.376-1.376 1.37 1.37 0 0 1 1.376-1.376zm-5.188-.81c-1.203 0-2.187.984-2.187 2.187s.984 2.187 2.187 2.187 2.187-.984 2.187-2.187-.984-2.187-2.187-2.187zm0 .81a1.37 1.37 0 0 1 1.376 1.377 1.37 1.37 0 0 1-1.376 1.376 1.37 1.37 0 0 1-1.376-1.376 1.37 1.37 0 0 1 1.376-1.376zm-3.637-.816a.421.421 0 0 0-.4.412v3.564c0 .212.193.406.406.406a.422.422 0 0 0 .406-.406v-3.564a.422.422 0 0 0-.412-.412zm-3.626.006c-1.203 0-2.187.984-2.187 2.187s.984 2.187 2.187 2.187 2.187-.984 2.187-2.187-.984-2.187-2.187-2.187zm0 .81a1.37 1.37 0 0 1 1.376 1.377 1.37 1.37 0 0 1-1.376 1.376 1.37 1.37 0 0 1-1.376-1.376 1.37 1.37 0 0 1 1.376-1.376zm-5.188-.81c-1.203 0-2.187.984-2.187 2.187s.984 2.187 2.187 2.187 2.187-.984 2.187-2.187-.984-2.187-2.187-2.187zm0 .81a1.37 1.37 0 0 1 1.376 1.377 1.37 1.37 0 0 1-1.376 1.376 1.37 1.37 0 0 1-1.376-1.376 1.37 1.37 0 0 1 1.376-1.376zm-3.636-.816a.421.421 0 0 0-.4.412v3.564c-.013.22.184.43.405.43s.418-.21.404-.43v-3.564a.422.422 0 0 0-.409-.412zm25.94-5.187a.421.421 0 0 0-.4.412v3.562c0 .212.194.405.406.405s.405-.193.406-.405v-3.562a.422.422 0 0 0-.412-.412zm-1.971 0a.421.421 0 0 0-.4.412v3.562c0 .212.193.406.406.406a.422.422 0 0 0 .406-.406v-3.562a.422.422 0 0 0-.412-.412zm-2.077 0c-.212.004-.4.2-.398.412v3.562c-.013.22.184.43.405.43s.418-.21.405-.43v-3.562a.422.422 0 0 0-.412-.412zm-3.729.005c-1.203 0-2.187.984-2.187 2.187s.984 2.187 2.187 2.187 2.187-.984 2.187-2.187-.984-2.187-2.187-2.187zm0 .81a1.37 1.37 0 0 1 1.376 1.377 1.37 1.37 0 0 1-1.376 1.376 1.37 1.37 0 0 1-1.376-1.376 1.37 1.37 0 0 1 1.376-1.376zm-5.188-.81c-1.203 0-2.187.984-2.187 2.187s.984 2.187 2.187 2.187 2.187-.984 2.187-2.187-.984-2.187-2.187-2.187zm0 .81a1.37 1.37 0 0 1 1.376 1.377 1.37 1.37 0 0 1-1.376 1.376 1.37 1.37 0 0 1-1.376-1.376 1.37 1.37 0 0 1 1.376-1.376zm-3.637-.815a.421.421 0 0 0-.4.412v3.562c0 .212.193.406.406.406a.422.422 0 0 0 .406-.406v-3.562a.422.422 0 0 0-.412-.412zm-3.626.005c-1.203 0-2.187.984-2.187 2.187s.984 2.187 2.187 2.187 2.187-.984 2.187-2.187-.984-2.187-2.187-2.187zm0 .81a1.37 1.37 0 0 1 1.376 1.377 1.37 1.37 0 0 1-1.376 1.376 1.37 1.37 0 0 1-1.376-1.376 1.37 1.37 0 0 1 1.376-1.376zm-3.534-.815c-.212.004-.4.2-.398.412v3.562c-.013.22.184.43.405.43s.418-.21.405-.43v-3.562a.422.422 0 0 0-.412-.412zm-2.074 0a.421.421 0 0 0-.4.412v3.562c0 .212.194.405.406.405s.405-.193.406-.405v-3.562a.422.422 0 0 0-.412-.412zm.703-2.992a5.2 5.2 0 0 0-5.194 5.192v15.8a5.2 5.2 0 0 0 5.194 5.192h15.03a5.148 5.148 0 0 1-.239-1.555l.002-.06h-14.8a3.552 3.552 0 0 1-3.578-3.576v-15.8a3.552 3.552 0 0 1 3.578-3.576h24.35a3.55 3.55 0 0 1 3.576 3.576v15.8a3.546 3.546 0 0 1-2.713 3.475c.002.053.005.107.005.16 0 .528-.08 1.037-.227 1.516a5.198 5.198 0 0 0 4.551-5.152v-15.8a5.198 5.198 0 0 0-5.192-5.192h-24.35zm20 20.38a4.242 4.242 0 0 0-4.247 4.247c0 1.458.733 2.738 1.85 3.503.099.068.161.187.161.307v5.016l1.974-1.974a.385.385 0 0 1 .524 0l1.887 1.887v-4.871c0-.123.065-.244.168-.311a4.244 4.244 0 0 0-2.317-7.804z" color="#000"/>
    <path fill="#216778" d="M731.8 230.438c-.295 0-.535.085-.714.255-.179.17-.267.402-.267.69a1.105 1.105 0 0 0 .422.908l.697.56c.065.052.116.097.154.133.038.035.083.083.13.142a.707.707 0 0 1 .138.422c0 .28-.143.422-.422.422-.345 0-.532-.281-.56-.84l-.555.142c.022.358.123.637.308.843.186.207.455.313.807.313.298 0 .538-.082.714-.244.177-.161.263-.386.263-.673 0-.419-.183-.777-.555-1.079l-.702-.56a.68.68 0 0 1-.28-.55c0-.135.037-.239.11-.313.073-.076.178-.114.312-.114.167 0 .291.055.377.163a.84.84 0 0 1 .17.425l.013.11.555-.138c-.006-.054-.008-.095-.012-.126-.044-.283-.161-.502-.349-.657-.186-.155-.437-.235-.754-.235zm13.06 0c-.76 0-1.139.478-1.139 1.435v.99c0 .194.009.368.028.518.02.15.052.29.102.426.05.135.116.25.198.337s.194.156.325.206c.132.051.287.077.466.077.263 0 .447-.152.556-.458l.142.418h.417v-1.95h-1.115v.413h.556v.142c0 .112-.003.209-.012.296a1.509 1.509 0 0 1-.045.264.703.703 0 0 1-.097.223.492.492 0 0 1-.401.195.592.592 0 0 1-.212-.037.412.412 0 0 1-.15-.105.744.744 0 0 1-.101-.154.84.84 0 0 1-.06-.2 2.694 2.694 0 0 1-.037-.482v-1.257c0-.126.007-.238.024-.332a.941.941 0 0 1 .09-.264.414.414 0 0 1 .178-.178.601.601 0 0 1 .288-.065c.083 0 .155.012.215.037a.369.369 0 0 1 .23.25.938.938 0 0 1 .045.2c.01.065.01.143.012.235v.117h.56v-.121a1.941 1.941 0 0 0-.077-.487c-.042-.14-.104-.264-.186-.369s-.191-.181-.325-.235a1.239 1.239 0 0 0-.474-.085zm-11.64.04v3.91h.56v-1.818h.977v1.817h.56v-3.909h-.56v1.675h-.977v-1.675h-.56zm3.147 0l-.84 3.91h.56l.207-.978h.702l.206.977h.56l-.84-3.909h-.555zm1.61 0v3.91h.555v-1.818h.422l.56 1.817h.555l-.628-1.954c.16-.058.282-.167.365-.324s.125-.351.125-.584c0-.375-.105-.641-.316-.803-.21-.161-.525-.243-.94-.243h-.698zm2.34 0v3.91h.56v-3.91h-.56zm1.062 0v3.91h.555v-2.6l1.003 2.6h.397v-3.91h-.56v2.417l-.977-2.417h-.418zm-2.847.418h.142c.233 0 .407.051.523.15.116.097.174.256.174.478 0 .223-.058.384-.174.483-.116.097-.29.146-.523.146h-.142v-1.257zm-1.886.418l.276 1.679h-.556l.28-1.68zm-4.732 4.712c-.164 0-.309.022-.434.068s-.224.11-.304.191-.148.185-.199.308c-.05.122-.085.254-.105.394s-.028.298-.028.474v1.115c0 .176.008.33.028.47.02.14.056.274.105.398.051.122.119.225.199.308a.81.81 0 0 0 .304.19c.125.047.27.07.434.07.192 0 .36-.029.495-.09a.744.744 0 0 0 .32-.267c.08-.118.14-.253.174-.406.037-.153.053-.329.053-.531v-.142h-.56v.142c0 .096-.002.179-.008.251s-.016.146-.036.223a.562.562 0 0 1-.081.19.39.39 0 0 1-.142.123c-.06.032-.132.048-.215.048s-.152-.014-.215-.044a.439.439 0 0 1-.15-.126.653.653 0 0 1-.089-.187 1.269 1.269 0 0 1-.049-.227 2.688 2.688 0 0 1-.012-.251v-1.4c0-.107.006-.198.012-.27.006-.075.018-.15.037-.228a.486.486 0 0 1 .085-.182.391.391 0 0 1 .15-.114c.065-.03.14-.04.231-.04a.65.65 0 0 1 .186.02c.053.014.093.04.126.073.035.032.064.07.085.11.024.037.041.083.053.141s.02.115.024.17c.004.054.007.118.008.195v.126h.56v-.13a1.97 1.97 0 0 0-.073-.483 1.082 1.082 0 0 0-.178-.364c-.079-.105-.184-.186-.317-.24s-.292-.077-.474-.077zm2.323 0a1.36 1.36 0 0 0-.507.085.744.744 0 0 0-.332.251c-.083.112-.145.245-.183.397s-.057.335-.057.54v1.419c0 .205.02.383.057.539.038.154.1.287.183.401s.193.204.332.264c.141.06.31.09.507.09.195 0 .36-.03.499-.09a.794.794 0 0 0 .336-.264c.083-.116.145-.25.183-.405.04-.156.06-.333.06-.535v-1.42c0-.412-.086-.73-.255-.948-.168-.218-.442-.324-.823-.324zm11.24 0c-.164 0-.309.022-.434.068a.821.821 0 0 0-.507.5c-.05.121-.08.253-.101.393s-.033.298-.033.474v1.115c0 .176.012.33.033.47.02.14.052.274.101.398.051.122.119.225.199.308.08.081.183.144.308.19.125.047.27.07.434.07.192 0 .355-.029.49-.09a.744.744 0 0 0 .32-.267c.08-.118.14-.253.175-.406.037-.153.053-.329.053-.531v-.142h-.555v.142c0 .096-.003.179-.009.251s-.02.146-.04.223a.562.562 0 0 1-.081.19.375.375 0 0 1-.138.123c-.06.032-.132.048-.215.048s-.156-.014-.219-.044a.439.439 0 0 1-.15-.126.653.653 0 0 1-.09-.187 1.269 1.269 0 0 1-.048-.227 2.786 2.786 0 0 1-.008-.251v-1.4c0-.107.002-.198.008-.27.006-.075.018-.15.037-.228a.484.484 0 0 1 .085-.182.391.391 0 0 1 .15-.114.583.583 0 0 1 .235-.04c.07 0 .13.003.182.02a.29.29 0 0 1 .13.073c.035.032.064.07.085.11.024.037.041.083.053.141s.02.115.024.17c.004.054.007.118.008.195v.126h.556v-.13a1.97 1.97 0 0 0-.073-.483 1.082 1.082 0 0 0-.178-.364c-.079-.105-.184-.186-.317-.24s-.288-.077-.47-.077zm-9.772.036v3.909h.56v-2.599l.997 2.599h.398v-3.909h-.56v2.417l-.977-2.417h-.418zm2.133 0v.499h.697v3.41h.56v-3.41h.697v-.499h-1.954zm2.133 0v3.909h.56v-1.813h.417l.564 1.813H742.603l.206-.977h.702l.207.977h.56l-.84-3.909h-.556l-.83 3.864-.613-1.91c.16-.058.282-.163.365-.32s.121-.355.121-.588c0-.376-.105-.642-.316-.803-.21-.162-.525-.243-.94-.243h-.698zm6.536 0v.499h.697v3.41h.56v-3.41h.697v-.499h-1.954zm-12.27.422c.198 0 .331.054.406.166.074.112.113.28.113.507v1.699c0 .23-.038.405-.113.523-.075.118-.21.174-.406.174s-.334-.056-.41-.174c-.074-.118-.109-.293-.109-.523v-1.7c0-.226.035-.394.11-.506.074-.112.211-.166.409-.166zm6.289 0h.138c.233 0 .407.047.523.146.116.097.174.256.174.478 0 .223-.058.384-.174.483-.116.097-.29.146-.523.146h-.138v-1.253zm2.632.417l.276 1.675h-.556l.28-1.675zm9.496 1.233a.305.305 0 0 0-.182.077l-.309.272-.332-.24a.305.305 0 0 0-.442.09l-.211.357-.39-.126a.305.305 0 0 0-.393.223l-.089.402h-.41a.305.305 0 0 0-.303.332l.036.414-.39.125a.305.305 0 0 0-.186.41l.167.377-.333.243a.305.305 0 0 0-.049.45l.272.309-.243.332a.305.305 0 0 0 .093.442l.353.21-.126.39a.305.305 0 0 0 .223.394l.401.089.004.41a.305.305 0 0 0 .333.303l.41-.036.13.39a.305.305 0 0 0 .409.186l.377-.163.243.329a.305.305 0 0 0 .446.049l.312-.272.333.243a.305.305 0 0 0 .442-.093l.21-.353.39.126a.305.305 0 0 0 .39-.223l.093-.402.41-.004a.305.305 0 0 0 .303-.332l-.036-.41.389-.13a.305.305 0 0 0 .182-.409l-.162-.377.333-.243a.305.305 0 0 0 .048-.446l-.271-.313.239-.332a.305.305 0 0 0-.09-.442l-.356-.21.126-.39a.305.305 0 0 0-.223-.39l-.402-.093v-.41a.305.305 0 0 0-.332-.303l-.414.036-.125-.39a.305.305 0 0 0-.41-.182l-.377.163-.243-.333a.305.305 0 0 0-.268-.126zm-.028.755l.19.26a.305.305 0 0 0 .365.1l.296-.125.097.304a.305.305 0 0 0 .32.207l.321-.029v.32a.305.305 0 0 0 .24.297l.311.073-.097.304a.305.305 0 0 0 .134.357l.276.162-.187.26a.305.305 0 0 0 .016.38l.215.244-.26.186a.305.305 0 0 0-.1.37l.125.291-.304.102a.305.305 0 0 0-.207.316l.028.32h-.32a.305.305 0 0 0-.296.24l-.069.316-.308-.102a.305.305 0 0 0-.357.134l-.162.276-.26-.187a.305.305 0 0 0-.38.02l-.24.212-.19-.26a.305.305 0 0 0-.365-.101l-.296.13-.102-.305a.305.305 0 0 0-.316-.21l-.32.028v-.32a.305.305 0 0 0-.24-.296l-.312-.07.098-.303a.305.305 0 0 0-.134-.357l-.28-.166.19-.26a.305.305 0 0 0-.02-.377l-.21-.24.259-.19a.305.305 0 0 0 .101-.369l-.125-.296.3-.097a.305.305 0 0 0 .21-.32l-.028-.32h.32a.305.305 0 0 0 .296-.24l.07-.312.303.097a.305.305 0 0 0 .357-.134l.166-.275.26.186a.305.305 0 0 0 .377-.016l.243-.215z"/>
    <path  fill="#ff8080" d="M735.8 182.938a.421.421 0 0 0-.4.411v3.562c0 .213.194.406.406.406s.405-.193.406-.406v-3.562a.422.422 0 0 0-.412-.411zm-3.626.005c-1.203 0-2.187.984-2.187 2.187s.984 2.187 2.187 2.187 2.187-.984 2.187-2.187-.984-2.187-2.187-2.187zm0 .81a1.37 1.37 0 0 1 1.376 1.376 1.37 1.37 0 0 1-1.376 1.376 1.37 1.37 0 0 1-1.376-1.376 1.37 1.37 0 0 1 1.376-1.376zm-3.638-.815a.421.421 0 0 0-.4.412v3.562c0 .212.193.406.406.406s.406-.194.406-.406v-3.562a.422.422 0 0 0-.412-.412zm-1.971 0a.421.421 0 0 0-.4.412v3.562c0 .212.193.406.406.406a.422.422 0 0 0 .406-.406v-3.562a.422.422 0 0 0-.412-.412zm10.27-5.189a.421.421 0 0 0-.4.412v3.564c-.014.22.184.43.405.43s.418-.21.404-.43v-3.564a.422.422 0 0 0-.409-.412zm-2.077 0a.421.421 0 0 0-.4.412v3.564c0 .212.194.405.406.405s.405-.193.406-.405v-3.564a.422.422 0 0 0-.412-.412zm-3.625.006c-1.203 0-2.187.984-2.187 2.187s.984 2.187 2.187 2.187 2.187-.984 2.187-2.187-.984-2.187-2.187-2.187zm0 .81a1.37 1.37 0 0 1 1.376 1.377 1.37 1.37 0 0 1-1.376 1.376 1.37 1.37 0 0 1-1.376-1.376 1.37 1.37 0 0 1 1.376-1.376zm-5.188-.81c-1.203 0-2.187.984-2.187 2.187s.984 2.187 2.187 2.187 2.187-.984 2.187-2.187-.984-2.187-2.187-2.187zm0 .81a1.37 1.37 0 0 1 1.376 1.377 1.37 1.37 0 0 1-1.376 1.376 1.37 1.37 0 0 1-1.376-1.376 1.37 1.37 0 0 1 1.376-1.376zm-3.637-.816a.421.421 0 0 0-.4.412v3.564c0 .212.193.406.406.406a.422.422 0 0 0 .406-.406v-3.564a.422.422 0 0 0-.412-.412zm-3.626.006c-1.203 0-2.187.984-2.187 2.187s.984 2.187 2.187 2.187 2.187-.984 2.187-2.187-.984-2.187-2.187-2.187zm0 .81a1.37 1.37 0 0 1 1.376 1.377 1.37 1.37 0 0 1-1.376 1.376 1.37 1.37 0 0 1-1.376-1.376 1.37 1.37 0 0 1 1.376-1.376zm-5.188-.81c-1.203 0-2.187.984-2.187 2.187s.984 2.187 2.187 2.187 2.187-.984 2.187-2.187-.984-2.187-2.187-2.187zm0 .81a1.37 1.37 0 0 1 1.376 1.377 1.37 1.37 0 0 1-1.376 1.376 1.37 1.37 0 0 1-1.376-1.376 1.37 1.37 0 0 1 1.376-1.376zm-3.636-.816a.421.421 0 0 0-.4.412v3.564c-.013.22.184.43.405.43s.418-.21.404-.43v-3.564a.422.422 0 0 0-.409-.412zm25.94-5.187a.421.421 0 0 0-.4.412v3.562c0 .212.194.405.406.405s.405-.193.406-.405v-3.562a.422.422 0 0 0-.412-.412zm-1.971 0a.421.421 0 0 0-.4.412v3.562c0 .212.193.406.406.406a.422.422 0 0 0 .406-.406v-3.562a.422.422 0 0 0-.412-.412zm-2.077 0c-.212.004-.4.2-.398.412v3.562c-.013.22.184.43.405.43s.418-.21.405-.43v-3.562a.422.422 0 0 0-.412-.412zm-3.729.005c-1.203 0-2.187.984-2.187 2.187s.984 2.187 2.187 2.187 2.187-.984 2.187-2.187-.984-2.187-2.187-2.187zm0 .81a1.37 1.37 0 0 1 1.376 1.377 1.37 1.37 0 0 1-1.376 1.376 1.37 1.37 0 0 1-1.376-1.376 1.37 1.37 0 0 1 1.376-1.376zm-5.188-.81c-1.203 0-2.187.984-2.187 2.187s.984 2.187 2.187 2.187 2.187-.984 2.187-2.187-.984-2.187-2.187-2.187zm0 .81a1.37 1.37 0 0 1 1.376 1.377 1.37 1.37 0 0 1-1.376 1.376 1.37 1.37 0 0 1-1.376-1.376 1.37 1.37 0 0 1 1.376-1.376zm-3.637-.815a.421.421 0 0 0-.4.412v3.562c0 .212.193.406.406.406a.422.422 0 0 0 .406-.406v-3.562a.422.422 0 0 0-.412-.412zm-3.626.005c-1.203 0-2.187.984-2.187 2.187s.984 2.187 2.187 2.187 2.187-.984 2.187-2.187-.984-2.187-2.187-2.187zm0 .81a1.37 1.37 0 0 1 1.376 1.377 1.37 1.37 0 0 1-1.376 1.376 1.37 1.37 0 0 1-1.376-1.376 1.37 1.37 0 0 1 1.376-1.376zm-3.534-.815c-.212.004-.4.2-.398.412v3.562c-.013.22.184.43.405.43s.418-.21.405-.43v-3.562a.422.422 0 0 0-.412-.412zm-2.074 0a.421.421 0 0 0-.4.412v3.562c0 .212.194.405.406.405s.405-.193.406-.405v-3.562a.422.422 0 0 0-.412-.412zm.703-2.992a5.2 5.2 0 0 0-5.194 5.192v15.8a5.2 5.2 0 0 0 5.194 5.192h15.03a5.148 5.148 0 0 1-.239-1.555l.002-.06h-14.8a3.552 3.552 0 0 1-3.578-3.576v-15.8a3.552 3.552 0 0 1 3.578-3.576h24.35a3.55 3.55 0 0 1 3.576 3.576v15.8a3.546 3.546 0 0 1-2.713 3.475c.002.053.005.107.005.16 0 .528-.08 1.037-.227 1.516a5.198 5.198 0 0 0 4.551-5.152v-15.8a5.198 5.198 0 0 0-5.192-5.192h-24.35zm20 20.38a4.242 4.242 0 0 0-4.247 4.247c0 1.458.733 2.738 1.85 3.503.099.068.161.187.161.307v5.016l1.974-1.974a.385.385 0 0 1 .524 0l1.887 1.887v-4.871c0-.123.065-.244.168-.311a4.244 4.244 0 0 0-2.317-7.804z" color="#000"/>
    <path fill="#216778" d="M710.2 182.838c-.295 0-.535.085-.714.255-.179.17-.267.402-.267.69a1.105 1.105 0 0 0 .422.908l.697.56c.065.052.116.097.154.133.038.035.083.083.13.142a.707.707 0 0 1 .138.422c0 .28-.143.422-.422.422-.345 0-.532-.281-.56-.84l-.555.142c.022.358.123.637.308.843.186.207.455.313.807.313.298 0 .538-.082.714-.244.177-.161.263-.386.263-.673 0-.419-.183-.777-.555-1.079l-.702-.56a.68.68 0 0 1-.28-.55c0-.135.037-.239.11-.313.073-.076.178-.114.312-.114.167 0 .291.055.377.163a.84.84 0 0 1 .17.425l.013.11.555-.138c-.006-.054-.008-.095-.012-.126-.044-.283-.161-.502-.349-.657-.186-.155-.437-.235-.754-.235zm13.06 0c-.76 0-1.139.478-1.139 1.435v.99c0 .194.009.368.028.518.02.15.052.29.102.426.05.135.116.25.199.337s.193.156.324.206c.132.051.287.077.466.077.264 0 .447-.152.556-.458l.142.418h.417v-1.95h-1.115v.413h.556v.142c0 .112-.003.209-.012.296a1.509 1.509 0 0 1-.045.264.703.703 0 0 1-.097.223.492.492 0 0 1-.401.195.592.592 0 0 1-.212-.037.412.412 0 0 1-.15-.105.744.744 0 0 1-.101-.154.84.84 0 0 1-.06-.2 2.694 2.694 0 0 1-.037-.482v-1.257c0-.126.007-.238.024-.332a.941.941 0 0 1 .09-.264.414.414 0 0 1 .178-.178.601.601 0 0 1 .288-.065c.083 0 .155.012.215.037a.369.369 0 0 1 .23.25.938.938 0 0 1 .045.2c.01.065.01.143.012.235v.117h.56v-.121a1.941 1.941 0 0 0-.077-.487c-.042-.14-.104-.264-.186-.369s-.191-.181-.325-.235a1.239 1.239 0 0 0-.474-.085zm-11.64.04v3.91h.56v-1.818h.977v1.817h.56v-3.909h-.56v1.675h-.977v-1.675h-.56zm3.147 0l-.84 3.91h.56l.207-.978h.702l.206.977h.56l-.84-3.909h-.555zm1.61 0v3.91h.556v-1.818h.421l.56 1.817h.555l-.628-1.954c.16-.058.282-.167.365-.324s.125-.351.125-.584c0-.375-.105-.641-.316-.803-.21-.161-.525-.243-.94-.243h-.698zm2.34 0v3.91h.56v-3.91h-.56zm1.062 0v3.91h.556v-2.6l1.002 2.6h.397v-3.91h-.56v2.417l-.977-2.417h-.418zm-2.847.418h.142c.233 0 .407.051.523.15.116.097.174.256.174.478 0 .223-.058.384-.174.483-.116.097-.29.146-.523.146h-.142v-1.257zm-1.886.418l.276 1.679h-.556l.28-1.68zm-4.732 4.712c-.164 0-.309.022-.434.068s-.224.11-.304.191-.148.185-.199.308c-.05.122-.085.254-.105.394s-.028.298-.028.474v1.115c0 .176.008.33.028.47.02.14.056.274.105.398.051.122.119.225.199.308a.81.81 0 0 0 .304.19c.125.047.27.07.434.07.192 0 .36-.029.495-.09a.744.744 0 0 0 .32-.267c.08-.118.14-.253.174-.406.037-.153.053-.329.053-.531v-.142h-.56v.142c0 .096-.002.179-.008.251s-.016.146-.036.223a.562.562 0 0 1-.081.19.39.39 0 0 1-.142.123c-.06.032-.132.048-.215.048s-.152-.014-.215-.044a.439.439 0 0 1-.15-.126.653.653 0 0 1-.089-.187 1.269 1.269 0 0 1-.049-.227 2.688 2.688 0 0 1-.012-.251v-1.4c0-.107.006-.198.012-.27.006-.075.018-.15.037-.228a.486.486 0 0 1 .085-.182.391.391 0 0 1 .15-.114c.065-.03.14-.04.231-.04a.65.65 0 0 1 .187.02c.052.014.092.04.125.073.035.032.064.07.085.11.024.037.041.083.053.141s.02.115.024.17c.004.054.007.118.008.195v.126h.56v-.13a1.97 1.97 0 0 0-.073-.483 1.082 1.082 0 0 0-.178-.364c-.079-.105-.184-.186-.317-.24s-.292-.077-.474-.077zm2.323 0a1.36 1.36 0 0 0-.507.085.744.744 0 0 0-.332.251c-.083.112-.145.245-.183.397s-.057.335-.057.54v1.419c0 .205.02.383.057.539.038.154.1.287.183.401s.193.204.332.264c.141.06.31.09.507.09.195 0 .36-.03.499-.09a.794.794 0 0 0 .336-.264c.083-.116.145-.25.183-.405.04-.156.06-.333.06-.535v-1.42c0-.412-.086-.73-.255-.948-.168-.218-.442-.324-.823-.324zm11.24 0c-.164 0-.309.022-.434.068a.821.821 0 0 0-.507.5c-.05.121-.08.253-.101.393s-.033.298-.033.474v1.115c0 .176.013.33.033.47.02.14.052.274.101.398.051.122.119.225.199.308.08.081.183.144.308.19.125.047.27.07.434.07.192 0 .355-.029.49-.09a.744.744 0 0 0 .32-.267c.08-.118.14-.253.175-.406.037-.153.053-.329.053-.531v-.142h-.555v.142c0 .096-.002.179-.008.251s-.02.146-.041.223a.562.562 0 0 1-.081.19.375.375 0 0 1-.138.123c-.06.032-.132.048-.215.048s-.156-.014-.219-.044a.439.439 0 0 1-.15-.126.653.653 0 0 1-.09-.187 1.269 1.269 0 0 1-.048-.227 2.786 2.786 0 0 1-.008-.251v-1.4c0-.107.002-.198.008-.27.006-.075.018-.15.037-.228a.484.484 0 0 1 .085-.182.391.391 0 0 1 .15-.114.583.583 0 0 1 .235-.04c.07 0 .13.003.182.02a.29.29 0 0 1 .13.073c.035.032.064.07.085.11.024.037.042.083.053.141s.02.115.024.17c.004.054.007.118.008.195v.126h.556v-.13a1.97 1.97 0 0 0-.073-.483 1.082 1.082 0 0 0-.178-.364c-.079-.105-.184-.186-.317-.24s-.288-.077-.47-.077zm-9.772.036v3.909h.56v-2.599l.997 2.599h.398v-3.909h-.56v2.417l-.977-2.417h-.418zm2.133 0v.499h.697v3.41h.56v-3.41h.697v-.499h-1.954zm2.133 0v3.909h.56v-1.813h.417l.564 1.813H721.003l.206-.977h.702l.207.977h.56l-.84-3.909h-.556l-.83 3.864-.613-1.91c.16-.058.282-.163.365-.32s.121-.355.121-.588c0-.376-.105-.642-.316-.803-.21-.162-.525-.243-.94-.243h-.698zm6.536 0v.499h.697v3.41h.56v-3.41h.697v-.499h-1.954zm-12.27.422c.198 0 .331.054.406.166.074.112.113.28.113.507v1.699c0 .23-.038.405-.113.523-.075.118-.21.174-.406.174s-.334-.056-.41-.174c-.074-.118-.109-.293-.109-.523v-1.7c0-.226.035-.394.11-.506.074-.112.211-.166.409-.166zm6.289 0h.138c.233 0 .407.047.523.146.116.097.174.256.174.478 0 .223-.058.384-.174.483-.116.097-.29.146-.523.146h-.138v-1.253zm2.632.417l.276 1.675h-.556l.28-1.675zm9.496 1.233a.305.305 0 0 0-.182.077l-.309.272-.332-.24a.305.305 0 0 0-.442.09l-.211.357-.39-.126a.305.305 0 0 0-.393.223l-.089.402h-.41a.305.305 0 0 0-.303.332l.036.414-.39.125a.305.305 0 0 0-.186.41l.167.377-.333.243a.305.305 0 0 0-.049.45l.272.309-.243.332a.305.305 0 0 0 .093.442l.353.21-.126.39a.305.305 0 0 0 .223.394l.402.089.004.41a.305.305 0 0 0 .332.303l.41-.036.13.39a.305.305 0 0 0 .409.186l.377-.163.243.329a.305.305 0 0 0 .446.049l.312-.272.333.243a.305.305 0 0 0 .442-.093l.21-.353.39.126a.305.305 0 0 0 .39-.223l.093-.402.41-.004a.305.305 0 0 0 .303-.332l-.036-.41.389-.13a.305.305 0 0 0 .182-.409l-.162-.377.333-.243a.305.305 0 0 0 .048-.446l-.271-.313.239-.332a.305.305 0 0 0-.09-.442l-.356-.21.126-.39a.305.305 0 0 0-.223-.39l-.402-.093v-.41a.305.305 0 0 0-.332-.303l-.414.036-.125-.39a.305.305 0 0 0-.41-.182l-.377.163-.243-.333a.305.305 0 0 0-.268-.126zm-.028.755l.19.26a.305.305 0 0 0 .365.1l.296-.125.097.304a.305.305 0 0 0 .32.207l.321-.029v.32a.305.305 0 0 0 .24.297l.311.073-.097.304a.305.305 0 0 0 .134.357l.276.162-.187.26a.305.305 0 0 0 .016.38l.215.244-.26.186a.305.305 0 0 0-.1.37l.125.291-.304.102a.305.305 0 0 0-.207.316l.028.32h-.32a.305.305 0 0 0-.296.24l-.069.316-.308-.102a.305.305 0 0 0-.357.134l-.162.276-.26-.187a.305.305 0 0 0-.38.02l-.24.212-.19-.26a.305.305 0 0 0-.365-.101l-.296.13-.102-.305a.305.305 0 0 0-.316-.21l-.32.028v-.32a.305.305 0 0 0-.24-.296l-.312-.07.098-.303a.305.305 0 0 0-.134-.357l-.28-.166.19-.26a.305.305 0 0 0-.02-.377l-.21-.24.259-.19a.305.305 0 0 0 .101-.369l-.125-.296.3-.097a.305.305 0 0 0 .21-.32l-.028-.32h.32a.305.305 0 0 0 .296-.24l.07-.312.304.097a.305.305 0 0 0 .356-.134l.166-.275.26.186a.305.305 0 0 0 .377-.016l.243-.215z"/>
</svg>
