<svg xmlns="http://www.w3.org/2000/svg" height="440" width="1000">
    <g font-weight="400">
        <path d="M454.8 247.813c-1.183.016-2.245 1.109-2.227 2.292v19.837c.001 1.183 1.078 2.257 2.26 2.257 1.182 0 2.259-1.074 2.26-2.257v-19.837c.019-1.205-1.087-2.31-2.292-2.292zm-20.196.026c-6.7 0-12.18 5.48-12.18 12.181 0 6.701 5.48 12.182 12.18 12.182 6.701 0 12.182-5.48 12.182-12.182 0-6.7-5.48-12.18-12.182-12.18zm0 4.515a7.632 7.632 0 0 1 7.667 7.666 7.632 7.632 0 0 1-7.667 7.667 7.632 7.632 0 0 1-7.666-7.667 7.632 7.632 0 0 1 7.666-7.666zm-20.259-4.54c-1.183.015-2.245 1.108-2.227 2.291v19.837c0 1.184 1.076 2.26 2.26 2.26 1.183 0 2.26-1.076 2.26-2.26v-19.837c.018-1.205-1.088-2.31-2.293-2.292zm-10.98 0c-1.183.015-2.245 1.108-2.227 2.291v19.837c0 1.184 1.076 2.26 2.26 2.26 1.183 0 2.26-1.076 2.26-2.26v-19.837c.018-1.205-1.088-2.31-2.293-2.292zm57.219-28.903c-1.184.016-2.246 1.109-2.228 2.292v19.85c-.075 1.226 1.025 2.397 2.254 2.397 1.228 0 2.329-1.17 2.253-2.397v-19.85c.019-1.2-1.078-2.304-2.28-2.292zm-11.566 0c-1.184.016-2.246 1.109-2.228 2.292v19.85c.001 1.182 1.078 2.257 2.26 2.257 1.182 0 2.258-1.075 2.26-2.257v-19.85c.019-1.205-1.087-2.311-2.292-2.292zm-20.193.033c-6.7 0-12.18 5.48-12.18 12.18 0 6.702 5.48 12.182 12.18 12.182 6.701 0 12.182-5.48 12.182-12.181 0-6.701-5.48-12.181-12.182-12.181zm0 4.515a7.632 7.632 0 0 1 7.667 7.666 7.632 7.632 0 0 1-7.667 7.666 7.632 7.632 0 0 1-7.666-7.666 7.632 7.632 0 0 1 7.666-7.666zm-28.895-4.515c-6.701 0-12.181 5.48-12.181 12.18 0 6.702 5.48 12.182 12.181 12.182 6.7 0 12.181-5.48 12.181-12.181 0-6.701-5.48-12.181-12.181-12.181zm0 4.515a7.632 7.632 0 0 1 7.666 7.666 7.632 7.632 0 0 1-7.666 7.666 7.632 7.632 0 0 1-7.666-7.666 7.632 7.632 0 0 1 7.666-7.666zm-20.257-4.548c-1.184.015-2.246 1.108-2.227 2.292v19.85c0 1.183 1.076 2.26 2.26 2.26 1.183 0 2.26-1.077 2.26-2.26v-19.85c.018-1.205-1.088-2.311-2.293-2.292zm-20.197.033c-6.7 0-12.18 5.48-12.18 12.18 0 6.702 5.48 12.182 12.18 12.182 6.701 0 12.182-5.48 12.182-12.181 0-6.701-5.48-12.181-12.182-12.181zm0 4.515a7.632 7.632 0 0 1 7.667 7.666 7.632 7.632 0 0 1-7.667 7.666 7.632 7.632 0 0 1-7.666-7.666 7.632 7.632 0 0 1 7.666-7.666zm-28.895-4.515c-6.7 0-12.181 5.48-12.181 12.18 0 6.702 5.48 12.182 12.181 12.182 6.701 0 12.181-5.48 12.181-12.181 0-6.701-5.48-12.181-12.18-12.181zm0 4.515a7.632 7.632 0 0 1 7.666 7.666 7.632 7.632 0 0 1-7.666 7.666 7.632 7.632 0 0 1-7.666-7.666 7.632 7.632 0 0 1 7.666-7.666zm-20.253-4.548c-1.184.015-2.246 1.108-2.227 2.292v19.85c-.076 1.226 1.025 2.397 2.253 2.397 1.229 0 2.33-1.17 2.253-2.397v-19.85c.019-1.2-1.078-2.304-2.279-2.292zm144.473-28.89c-1.184.016-2.246 1.11-2.228 2.293v19.837c.001 1.182 1.078 2.257 2.26 2.257 1.182 0 2.259-1.075 2.26-2.257v-19.837c.019-1.206-1.087-2.311-2.292-2.293zm-10.98 0c-1.184.016-2.246 1.11-2.228 2.293v19.837c0 1.183 1.077 2.26 2.26 2.26 1.183 0 2.26-1.077 2.26-2.26v-19.837c.019-1.206-1.087-2.311-2.292-2.293zm-11.567 0c-1.179.023-2.232 1.113-2.214 2.293v19.837c-.075 1.226 1.025 2.396 2.254 2.396 1.228 0 2.329-1.17 2.253-2.396v-19.837c.019-1.206-1.087-2.311-2.293-2.293zm-20.766.027c-6.7 0-12.181 5.48-12.181 12.181 0 6.701 5.48 12.182 12.181 12.182 6.701 0 12.181-5.48 12.181-12.182 0-6.7-5.48-12.18-12.18-12.18zm0 4.515a7.632 7.632 0 0 1 7.666 7.666 7.632 7.632 0 0 1-7.666 7.667 7.632 7.632 0 0 1-7.666-7.667 7.632 7.632 0 0 1 7.666-7.666zm-28.895-4.515c-6.701 0-12.181 5.48-12.181 12.181 0 6.701 5.48 12.182 12.18 12.182 6.702 0 12.182-5.48 12.182-12.182 0-6.7-5.48-12.18-12.181-12.18zm0 4.515a7.632 7.632 0 0 1 7.666 7.666 7.632 7.632 0 0 1-7.666 7.667 7.632 7.632 0 0 1-7.667-7.667 7.632 7.632 0 0 1 7.667-7.666zm-20.256-4.542c-1.184.016-2.246 1.11-2.228 2.293v19.837c0 1.183 1.077 2.26 2.26 2.26 1.183 0 2.26-1.077 2.26-2.26v-19.837c.019-1.206-1.087-2.311-2.292-2.293zm-20.198.027c-6.7 0-12.181 5.48-12.181 12.182 0 6.7 5.48 12.18 12.181 12.18 6.701 0 12.181-5.48 12.181-12.18 0-6.701-5.48-12.182-12.18-12.182zm0 4.515a7.632 7.632 0 0 1 7.667 7.667 7.632 7.632 0 0 1-7.667 7.666 7.632 7.632 0 0 1-7.666-7.666 7.632 7.632 0 0 1 7.666-7.667zm-19.685-4.542c-1.179.023-2.232 1.113-2.214 2.293v19.837c-.076 1.226 1.025 2.396 2.253 2.396 1.229 0 2.33-1.17 2.254-2.396v-19.837c.018-1.206-1.087-2.311-2.293-2.293zm-11.553 0c-1.183.016-2.245 1.11-2.227 2.293v19.837c0 1.182 1.077 2.257 2.26 2.257 1.182 0 2.258-1.075 2.26-2.257v-19.837c.018-1.206-1.088-2.311-2.293-2.293zm3.913-16.664c-15.944 0-28.928 12.97-28.928 28.915v87.984c0 15.944 12.984 28.915 28.928 28.915h83.732a28.673 28.673 0 0 1-1.329-8.662c0-.114.012-.225.013-.338h-82.416c-11.113 0-19.928-8.803-19.928-19.915v-87.984c0-11.112 8.815-19.915 19.928-19.915h135.597c11.113 0 19.915 8.803 19.915 19.915v87.984c0 9.451-6.368 17.24-15.109 19.355.01.3.026.596.026.898 0 2.937-.442 5.772-1.263 8.44 14.268-1.762 25.347-13.957 25.347-28.693v-87.984c0-15.944-12.971-28.915-28.916-28.915H314.814zm111.41 113.499c-13.085 0-23.653 10.568-23.653 23.653 0 8.12 4.083 15.25 10.302 19.512.553.377.9 1.037.9 1.706v27.938l10.992-10.993c.763-.764 2.154-.764 2.918 0l10.51 10.511v-27.13a2.1 2.1 0 0 1 .939-1.733c6.472-4.221 10.758-11.496 10.758-19.81 0-13.085-10.58-23.654-23.666-23.654z" color="#000" fill="#ff8080" overflow="visible"/>
        <path d="M312.15 247.62c-1.644 0-2.978.475-3.975 1.422-.996.948-1.49 2.236-1.49 3.84 0 1.101.211 2.069.632 2.936a6.15 6.15 0 0 0 1.717 2.122l3.884 3.117c.364.292.647.543.858.745.21.195.464.458.723.79.259.325.443.688.564 1.085.13.388.204.803.204 1.264 0 1.556-.794 2.349-2.35 2.349-1.919 0-2.962-1.564-3.116-4.675l-3.094.79c.122 1.993.688 3.548 1.717 4.698 1.037 1.15 2.534 1.739 4.494 1.739 1.66 0 2.994-.456 3.975-1.355.988-.9 1.468-2.153 1.468-3.749 0-2.333-1.02-4.33-3.094-6.007l-3.907-3.117c-1.037-.826-1.559-1.848-1.559-3.071 0-.745.205-1.326.61-1.74.405-.42.994-.631 1.74-.631.93 0 1.621.304 2.1.903.485.591.81 1.383.948 2.371.032.276.06.472.068.61l3.094-.768c-.033-.3-.044-.53-.068-.7-.243-1.58-.897-2.8-1.942-3.658-1.037-.867-2.435-1.31-4.2-1.31zm72.764 0c-4.228 0-6.346 2.664-6.346 7.994v5.51c0 1.086.053 2.057.158 2.891.106.835.29 1.618.565 2.372.275.753.645 1.388 1.107 1.874.461.486 1.077.868 1.806 1.152.737.283 1.6.429 2.597.429 1.467 0 2.487-.85 3.094-2.552l.79 2.326h2.327v-10.863h-6.21v2.304h3.093v.79c0 .624-.019 1.163-.067 1.649-.04.486-.12.974-.249 1.468-.13.494-.315.918-.542 1.242-.219.316-.522.565-.903.768-.38.202-.814.316-1.333.316a3.3 3.3 0 0 1-1.174-.203 2.295 2.295 0 0 1-.836-.587 4.138 4.138 0 0 1-.564-.859 4.693 4.693 0 0 1-.339-1.106 15.051 15.051 0 0 1-.158-1.288 18.375 18.375 0 0 1-.045-1.4v-7c0-.705.038-1.326.135-1.852.098-.535.27-1.03.497-1.468.235-.446.564-.767.994-.994.437-.235.971-.361 1.603-.361.462 0 .865.065 1.197.203.34.13.61.315.813.542.203.219.361.502.474.858.122.357.208.734.249 1.107.048.364.06.8.068 1.31v.654h3.116c0-.3.008-.531 0-.677-.04-1.029-.194-1.932-.429-2.71-.235-.786-.577-1.472-1.039-2.055-.462-.583-1.061-1.01-1.806-1.31-.746-.308-1.63-.474-2.643-.474zm-64.814.226v21.77h3.116v-10.117h5.443v10.117h3.116v-21.77h-3.116v9.327h-5.443v-9.327H320.1zm17.524 0l-4.674 21.77h3.116l1.152-5.443h3.907l1.152 5.443h3.116l-4.675-21.77h-3.094zm8.966 0v21.77h3.094v-10.117h2.349l3.116 10.117h3.094l-3.5-10.885c.89-.324 1.57-.932 2.032-1.807.462-.875.7-1.956.7-3.252 0-2.09-.587-3.572-1.761-4.471-1.175-.9-2.923-1.355-5.24-1.355h-3.884zm13.03 0v21.77h3.117v-21.77h-3.116zm5.918 0v21.77h3.094V255.14l5.578 14.476h2.213v-21.77h-3.117v13.46l-5.442-13.46h-2.326zm-15.854 2.326h.79c1.297 0 2.266.284 2.914.835.648.543.97 1.426.97 2.665 0 1.24-.322 2.137-.97 2.688-.648.542-1.617.813-2.914.813h-.79v-7.001zm-10.501 2.326l1.535 9.35h-3.094l1.559-9.35zm-26.355 26.242c-.916 0-1.72.125-2.417.384-.697.259-1.248.608-1.694 1.061a5.318 5.318 0 0 0-1.106 1.716 9.47 9.47 0 0 0-.587 2.191c-.114.778-.158 1.662-.158 2.642v6.21c0 .981.044 1.843.158 2.62a9.77 9.77 0 0 0 .587 2.214 5.5 5.5 0 0 0 1.106 1.716c.446.454.997.802 1.694 1.061.697.26 1.501.384 2.417.384 1.069 0 2.001-.156 2.755-.496a4.14 4.14 0 0 0 1.784-1.49 6.605 6.605 0 0 0 .971-2.26c.203-.85.294-1.832.294-2.958v-.79h-3.117v.79c0 .535-.013.995-.045 1.4-.033.405-.09.813-.203 1.243-.106.429-.258.786-.452 1.061-.186.275-.458.5-.79.677-.333.179-.736.271-1.197.271-.462 0-.849-.078-1.197-.248a2.445 2.445 0 0 1-.836-.7 3.644 3.644 0 0 1-.497-1.039 7.056 7.056 0 0 1-.27-1.265c-.041-.42-.068-.881-.068-1.4v-7.791c0-.6.035-1.108.067-1.513.033-.413.098-.835.203-1.265.114-.43.272-.765.475-1.016.202-.26.479-.47.835-.632.365-.162.785-.226 1.288-.226.388 0 .747.024 1.038.113.292.08.514.22.7.406.195.178.353.391.475.61.13.21.229.466.293.79.065.324.112.641.136.949.024.3.037.655.045 1.084v.7h3.117c0-.324.008-.569 0-.723-.04-1.029-.18-1.918-.407-2.687a6.025 6.025 0 0 0-.994-2.033 4.07 4.07 0 0 0-1.761-1.332c-.737-.3-1.63-.43-2.642-.43zm12.94 0c-1.094 0-2.037.158-2.823.474-.778.316-1.39.768-1.852 1.4a6.178 6.178 0 0 0-1.016 2.213c-.21.851-.316 1.862-.316 3.004v7.904c0 1.142.105 2.137.316 3.004.21.859.554 1.596 1.016 2.236a4.335 4.335 0 0 0 1.852 1.468c.786.332 1.73.496 2.823.496 1.085 0 2-.164 2.778-.496.786-.34 1.412-.828 1.874-1.468.462-.648.806-1.4 1.016-2.259.22-.866.34-1.855.34-2.98v-7.905c0-2.3-.484-4.07-1.424-5.285-.94-1.215-2.462-1.806-4.584-1.806zm62.579 0c-.915 0-1.72.125-2.416.384-.697.259-1.271.608-1.717 1.061a5.318 5.318 0 0 0-1.106 1.716c-.276.681-.452 1.413-.565 2.191-.113.778-.18 1.662-.18 2.642v6.21c0 .981.067 1.843.18 2.62.113.778.29 1.525.565 2.214a5.5 5.5 0 0 0 1.106 1.716c.446.454 1.02.802 1.717 1.061.696.26 1.5.384 2.416.384 1.07 0 1.98-.156 2.733-.496a4.14 4.14 0 0 0 1.784-1.49 6.605 6.605 0 0 0 .97-2.26c.203-.85.294-1.832.294-2.958v-.79h-3.094v.79c0 .535-.012.995-.045 1.4a7.062 7.062 0 0 1-.226 1.243c-.105.429-.257.786-.451 1.061-.187.275-.436.5-.768.677-.332.179-.735.271-1.197.271-.462 0-.871-.078-1.22-.248a2.446 2.446 0 0 1-.835-.7 3.644 3.644 0 0 1-.497-1.039 7.05 7.05 0 0 1-.271-1.265c-.04-.42-.045-.881-.045-1.4v-7.791c0-.6.013-1.108.045-1.513.032-.413.098-.835.203-1.265.114-.43.272-.765.474-1.016.203-.26.48-.47.836-.632.365-.162.808-.226 1.31-.226.389 0 .725.024 1.016.113.292.08.537.22.723.406.194.178.353.391.474.61.13.21.229.466.294.79.065.324.11.641.135.949.025.3.037.655.045 1.084v.7h3.094c0-.324.008-.569 0-.723-.04-1.029-.18-1.918-.406-2.687a6.025 6.025 0 0 0-.994-2.033 4.07 4.07 0 0 0-1.761-1.332c-.738-.3-1.607-.43-2.62-.43zm-54.426.203v21.77h3.116v-14.475l5.556 14.476h2.213v-21.77h-3.117v13.459l-5.442-13.46h-2.326zm11.879 0v2.778h3.884v18.993h3.116V281.72h3.885v-2.778H345.8zm11.879 0v21.77h3.116V290.62h2.326l3.14 10.095h6.074l1.152-5.443h3.907l1.152 5.443h3.116l-4.675-21.77h-3.093l-4.63 21.521-3.41-10.637c.89-.324 1.57-.909 2.032-1.784.462-.875.678-1.978.678-3.274 0-2.09-.587-3.573-1.762-4.472-1.174-.9-2.922-1.355-5.24-1.355h-3.883zm36.404 0v2.778h3.885v18.993h3.116V281.72h3.884v-2.778h-10.885zm-68.315 2.349c1.102 0 1.845.302 2.258.926.413.623.633 1.559.633 2.823v9.462c0 1.28-.211 2.257-.633 2.913-.413.657-1.164.971-2.258.971s-1.86-.314-2.281-.97c-.413-.657-.61-1.634-.61-2.914v-9.462c0-1.264.197-2.2.61-2.823.413-.624 1.18-.926 2.281-.926zm35.027 0h.768c1.296 0 2.265.262 2.913.813.648.543.971 1.425.971 2.665 0 1.239-.323 2.136-.97 2.687-.649.543-1.618.813-2.914.813h-.768v-6.978zm14.657 2.326l1.535 9.327h-3.093l1.558-9.327zm52.89 6.865a1.7 1.7 0 0 0-1.016.43l-1.716 1.512-1.852-1.332a1.7 1.7 0 0 0-2.462.497l-1.174 1.987-2.168-.7a1.7 1.7 0 0 0-2.19 1.242l-.497 2.236h-2.281a1.7 1.7 0 0 0-1.694 1.852l.203 2.303-2.168.7a1.7 1.7 0 0 0-1.039 2.281l.926 2.1-1.852 1.356a1.7 1.7 0 0 0-.27 2.506l1.512 1.717-1.355 1.852a1.7 1.7 0 0 0 .52 2.461l1.965 1.175-.7 2.168a1.7 1.7 0 0 0 1.242 2.19l2.235.497.023 2.281a1.7 1.7 0 0 0 1.852 1.694l2.28-.204.723 2.168a1.7 1.7 0 0 0 2.281 1.04l2.1-.904 1.356 1.83a1.7 1.7 0 0 0 2.484.27l1.739-1.513 1.852 1.355a1.7 1.7 0 0 0 2.461-.52l1.174-1.964 2.168.7a1.7 1.7 0 0 0 2.168-1.242l.52-2.236 2.28-.022a1.7 1.7 0 0 0 1.695-1.852l-.204-2.281 2.168-.723a1.7 1.7 0 0 0 1.017-2.28l-.904-2.101 1.852-1.355a1.7 1.7 0 0 0 .271-2.484l-1.513-1.74 1.332-1.85a1.7 1.7 0 0 0-.496-2.463l-1.988-1.174.7-2.168a1.7 1.7 0 0 0-1.242-2.168l-2.235-.52v-2.28a1.7 1.7 0 0 0-1.852-1.694l-2.304.203-.7-2.168a1.7 1.7 0 0 0-2.28-1.016l-2.101.903-1.355-1.852a1.7 1.7 0 0 0-1.49-.7zm-.158 4.2l1.062 1.446a1.7 1.7 0 0 0 2.032.565l1.649-.7.542 1.693a1.7 1.7 0 0 0 1.784 1.152l1.784-.158v1.784a1.7 1.7 0 0 0 1.333 1.649l1.738.406-.542 1.694a1.7 1.7 0 0 0 .746 1.987l1.535.904-1.038 1.445a1.7 1.7 0 0 0 .09 2.123l1.197 1.355-1.446 1.039a1.7 1.7 0 0 0-.564 2.055l.7 1.626-1.694.564a1.7 1.7 0 0 0-1.152 1.762l.158 1.784h-1.784a1.7 1.7 0 0 0-1.648 1.333l-.384 1.761-1.716-.565a1.7 1.7 0 0 0-1.988.746l-.903 1.535-1.446-1.038a1.7 1.7 0 0 0-2.122.112l-1.333 1.175-1.061-1.446a1.7 1.7 0 0 0-2.033-.564l-1.648.723-.565-1.694a1.7 1.7 0 0 0-1.761-1.175l-1.785.159v-1.785a1.7 1.7 0 0 0-1.332-1.648l-1.739-.384.542-1.694a1.7 1.7 0 0 0-.745-1.987l-1.558-.926 1.061-1.445a1.7 1.7 0 0 0-.113-2.1l-1.174-1.333 1.445-1.062a1.7 1.7 0 0 0 .565-2.055l-.7-1.648 1.67-.542a1.7 1.7 0 0 0 1.175-1.784l-.158-1.785h1.784a1.7 1.7 0 0 0 1.649-1.332l.384-1.739 1.693.542a1.7 1.7 0 0 0 1.988-.745l.926-1.536 1.445 1.039a1.7 1.7 0 0 0 2.1-.09l1.355-1.197z" fill="#216778" />
        <path d="M90.967 169.706c-13.995 0-25.407 11.435-25.407 25.43 0 8.61 4.322 16.24 10.908 20.844C61.018 221.85 50 236.803 50 254.282a3.614 3.614 0 1 0 7.227 0c0-18.547 14.86-33.534 33.356-33.74.128.002.256.023.384.023s.256-.021.384-.023c18.497.206 33.356 15.193 33.356 33.74a3.614 3.614 0 1 0 7.226 0c0-17.487-11.029-32.437-26.49-38.302 6.592-4.604 10.93-12.23 10.93-20.844 0-13.995-11.412-25.43-25.406-25.43zm0 7.25c10.089 0 18.18 8.09 18.18 18.18 0 10.088-8.091 18.18-18.18 18.18a18.137 18.137 0 0 1-18.202-18.18 18.137 18.137 0 0 1 18.202-18.18zm-.068 46.25c-1.204.121-2.221 1.252-2.213 2.462v42.887c-2.804-.72-5.955-.552-8.988.745-6.528 2.79-10.64 9.539-8.514 15.695 1.062 3.079 3.609 5.26 6.572 6.188 2.962.93 6.379.718 9.643-.677 5.568-2.38 9.3-7.524 9.033-12.918-.003-.053.004-.105 0-.158v-42.525c.302.062.506.048.858.158 1.765.55 3.802 1.682 5.33 4.675 3.272 6.41 3.184 15.357 3.184 15.357-.04 1.23.989 2.404 2.214 2.53 1.224.124 2.457-.82 2.664-2.033 0 0 2.785-13.774-2.935-24.368-4.42-8.184-13.509-8.024-13.776-8.017h-2.823a2.573 2.573 0 0 0-.249 0zm9.485 71.817c-.915 0-1.72.124-2.416.383-.697.26-1.271.608-1.717 1.062-.445.454-.8 1.028-1.084 1.716a9.47 9.47 0 0 0-.587 2.19c-.113.779-.158 1.663-.158 2.643v6.21c0 .98.045 1.843.158 2.62a9.77 9.77 0 0 0 .587 2.213c.284.68.639 1.255 1.084 1.717.446.453 1.02.802 1.717 1.061.697.26 1.5.384 2.416.384 1.07 0 1.98-.156 2.733-.497.761-.34 1.37-.842 1.807-1.49a6.605 6.605 0 0 0 .97-2.259c.203-.85.294-1.832.294-2.958v-.79h-3.116v.79c0 .535-.013.995-.045 1.4a7.061 7.061 0 0 1-.226 1.242c-.106.43-.235.786-.43 1.062-.186.275-.458.499-.79.677-.332.178-.735.271-1.197.271-.462 0-.848-.078-1.197-.248a2.445 2.445 0 0 1-.835-.7 3.644 3.644 0 0 1-.497-1.04 7.056 7.056 0 0 1-.271-1.264c-.04-.421-.068-.882-.068-1.4v-7.791c0-.6.036-1.086.068-1.49.032-.414.098-.836.203-1.266.114-.429.272-.787.474-1.038.203-.26.48-.47.836-.633.365-.162.785-.226 1.287-.226.39 0 .747.047 1.04.136.29.081.513.198.7.384.194.178.352.39.473.61.13.21.23.466.294.79.065.324.111.64.136.949.024.3.037.677.045 1.106v.678h3.116c0-.324.008-.546 0-.7-.04-1.03-.18-1.94-.406-2.71a6.025 6.025 0 0 0-.994-2.033c-.437-.583-1.024-1.01-1.761-1.31-.738-.3-1.63-.451-2.643-.451zm-30.036.203l-4.675 21.793h3.117l1.174-5.443h3.885L75 317.02h3.117l-4.652-21.793h-3.117zm8.966 0v21.793h8.559v-2.349H82.43v-19.444h-3.116zm9.598 0v21.793h3.094v-21.793h-3.094zm18.79 0v21.793h8.559v-2.349h-5.443v-7.769h3.884v-2.326h-3.884v-7h5.443v-2.35h-8.56zM71.905 299.9l1.559 9.327h-3.117l1.558-9.327zM284.395 237.344c-5.239 0-9.676 3.422-11.201 8.153h-46.342a8.908 8.908 0 0 0-8.153-5.307 8.937 8.937 0 0 0-8.175 5.307h-48.419l-14.408-7.995v23.239l14.43-8.017h48.397a8.988 8.988 0 0 0 4.562 4.561v13.438l-7.995 14.43h23.216l-7.994-14.43v-13.438a8.958 8.958 0 0 0 4.54-4.561h46.34c1.526 4.73 5.963 8.152 11.202 8.152v-23.532zM218.699 291.5c-6.933 0-13.21.884-17.93 2.417-2.361.766-4.321 1.694-5.85 2.868-1.433 1.1-2.572 2.58-2.71 4.381a2.091 2.091 0 0 0-.023.362v46.793c0 1.965 1.205 3.568 2.733 4.742 1.528 1.175 3.512 2.079 5.872 2.846 4.72 1.534 10.975 2.439 17.909 2.439 6.933 0 13.211-.905 17.93-2.44 2.36-.766 4.344-1.67 5.873-2.845 1.528-1.174 2.732-2.777 2.732-4.742v-46.793a2.091 2.091 0 0 0-.022-.407 2.091 2.091 0 0 0 0-.022c-.162-1.772-1.295-3.227-2.71-4.314-1.53-1.174-3.49-2.101-5.85-2.868-4.72-1.533-11.02-2.416-17.953-2.416zm0 4.178c6.566 0 12.519.874 16.644 2.214 2.063.67 3.663 1.487 4.608 2.213.876.673 1.083 1.11 1.106 1.355.002.019 0 .051 0 .068 0 .226-.162.72-1.106 1.445-.945.725-2.545 1.52-4.608 2.19-4.125 1.34-10.078 2.214-16.644 2.214-6.565 0-12.495-.873-16.621-2.214-2.063-.67-3.662-1.465-4.607-2.19-.945-.726-1.107-1.22-1.107-1.445 0-.227.162-.698 1.107-1.423.945-.726 2.544-1.543 4.607-2.213 4.126-1.34 10.056-2.214 16.621-2.214zm-22.335 11.563c1.264.73 2.734 1.355 4.404 1.897 4.72 1.533 10.998 2.417 17.931 2.417 6.933 0 13.234-.884 17.954-2.417 1.67-.542 3.143-1.168 4.404-1.897v41.08c0 .226-.162.697-1.106 1.422-.945.726-2.545 1.52-4.608 2.191-4.125 1.34-10.078 2.236-16.644 2.236-6.565 0-12.496-.895-16.621-2.236-2.063-.67-3.662-1.465-4.607-2.19-.945-.726-1.107-1.197-1.107-1.423 0-.172.01-.177 0-.046a2.091 2.091 0 0 0 0-.158V307.24zm12.58 13.867c-4.486 0-8.153 3.643-8.153 8.13 0 4.486 3.666 8.152 8.152 8.152 3.167 0 5.881-1.84 7.227-4.494l2.394-1.761 2.303 1.829.7.52.678-.498 2.665-1.942 2.303 2.123.904.813.768-.926 1.355-1.671 2.98.745.497.113.407-.27 1.965-1.333.406-.249.09-.474.633-3.275.293-1.355H215.967c-1.401-2.473-3.99-4.177-7.024-4.177z" color="#000" fill="#89a02c" overflow="visible"/>
        <path d="M669.106 184.16c-13.995 0-25.407 11.435-25.407 25.429 0 8.61 4.322 16.24 10.908 20.845-15.451 5.87-26.468 20.822-26.468 38.301a3.614 3.614 0 1 0 7.227 0c0-18.546 14.859-33.534 33.356-33.74.127.002.255.023.384.023.128 0 .256-.02.383-.023 18.497.206 33.356 15.194 33.356 33.74a3.614 3.614 0 1 0 7.227 0c0-17.486-11.03-32.436-26.49-38.301 6.591-4.605 10.93-12.23 10.93-20.845 0-13.994-11.412-25.43-25.406-25.43zm0 7.25c10.088 0 18.18 8.09 18.18 18.179 0 10.089-8.092 18.18-18.18 18.18a18.137 18.137 0 0 1-18.203-18.18 18.137 18.137 0 0 1 18.203-18.18zm-115.222 25.044c-6.933 0-13.21.884-17.931 2.417-2.36.766-4.343 1.671-5.872 2.845-1.433 1.1-2.572 2.603-2.71 4.404a2.091 2.091 0 0 0-.022.339v46.792c0 1.967 1.204 3.592 2.732 4.766 1.529 1.174 3.512 2.078 5.872 2.846 4.72 1.534 10.998 2.439 17.931 2.439 6.933 0 13.212-.905 17.932-2.44 2.36-.767 4.32-1.67 5.849-2.845 1.528-1.174 2.755-2.8 2.755-4.765v-46.793a2.1 2.1 0 0 0-.045-.407c-.163-1.77-1.295-3.25-2.71-4.336-1.529-1.174-3.49-2.079-5.85-2.845-4.72-1.533-10.998-2.417-17.93-2.417zm0 4.178c6.566 0 12.496.874 16.622 2.214 2.063.67 3.685 1.465 4.63 2.19.921.708 1.076 1.19 1.083 1.423v.022c0 .227-.139.698-1.084 1.423-.944.726-2.566 1.52-4.63 2.19-4.125 1.34-10.055 2.237-16.62 2.237-6.567 0-12.519-.896-16.645-2.236-2.063-.67-3.662-1.465-4.607-2.19-.945-.726-1.106-1.197-1.106-1.424v-.022c.008-.233.184-.715 1.106-1.423.945-.725 2.544-1.52 4.607-2.19 4.126-1.34 10.078-2.214 16.644-2.214zm-22.357 11.563c1.264.73 2.756 1.355 4.426 1.897 4.72 1.533 10.998 2.417 17.931 2.417 6.933 0 13.211-.884 17.932-2.417 1.67-.542 3.142-1.168 4.403-1.897v41.057c0 .226-.161.72-1.106 1.445-.945.726-2.545 1.52-4.607 2.19-4.125 1.342-10.056 2.237-16.622 2.237-6.565 0-12.519-.895-16.644-2.236-2.062-.67-3.662-1.465-4.607-2.19-.945-.727-1.106-1.22-1.106-1.446 0-.171.01-.177 0-.045a2.091 2.091 0 0 0 0-.136v-40.876zm85.298 5.15c-5.24 0-9.676 3.42-11.202 8.152H585.23v7.227h20.393c1.526 4.73 5.963 8.152 11.202 8.152v-23.532zm-136.247.157v23.239l14.454-8.017h27.506v-7.227H495.01l-14.43-7.995zm63.528 8.537c-4.486 0-8.153 3.666-8.153 8.152 0 4.487 3.666 8.153 8.153 8.153 3.167 0 5.903-1.84 7.249-4.494l2.371-1.761 2.304 1.829.7.52.677-.498 2.665-1.942 2.326 2.123.881.813.768-.948 1.378-1.672 2.958.768.497.113.406-.27 1.988-1.333.384-.249.09-.474.655-3.275.27-1.355H551.13c-1.4-2.473-3.99-4.2-7.023-4.2zm124.593 20.077c-1.094 0-2.037.158-2.823.474-.778.316-1.39.79-1.852 1.423a6.178 6.178 0 0 0-1.016 2.213c-.21.85-.316 1.839-.316 2.98v7.905c0 1.142.105 2.137.316 3.004.21.858.555 1.618 1.016 2.258.462.64 1.074 1.113 1.852 1.445.786.333 1.73.497 2.823.497 1.086 0 2.023-.164 2.8-.497a4.348 4.348 0 0 0 1.852-1.468c.462-.648.806-1.4 1.017-2.258.218-.867.338-1.855.338-2.98v-7.905c0-2.3-.483-4.07-1.422-5.285-.94-1.215-2.463-1.806-4.585-1.806zm-19.015.203v21.793h5.465c1.92 0 3.43-.561 4.54-1.671 1.117-1.118 1.67-2.642 1.67-4.562 0-1.54-.323-2.72-.97-3.546-.649-.834-1.618-1.467-2.914-1.897 1.199-.332 2.09-.853 2.665-1.558.575-.713.858-1.756.858-3.117 0-.94-.173-1.756-.497-2.461-.316-.705-.755-1.265-1.355-1.694a6.224 6.224 0 0 0-2.077-.971c-.794-.21-1.706-.316-2.71-.316h-4.675zm27.168 0v21.793h5.442c1.92 0 3.43-.561 4.54-1.671 1.118-1.118 1.693-2.642 1.693-4.562 0-1.54-.323-2.72-.97-3.546-.649-.834-1.618-1.467-2.914-1.897 1.199-.332 2.067-.853 2.642-1.558.575-.713.881-1.756.881-3.117 0-.94-.173-1.756-.497-2.461a4.109 4.109 0 0 0-1.377-1.694 6.224 6.224 0 0 0-2.078-.971c-.794-.21-1.683-.316-2.688-.316h-4.674zm-24.052 2.349c.551 0 .988-.008 1.287 0 .3.008.662.027 1.107.067.454.033.796.1 1.039.18.243.082.521.208.813.362.3.146.532.324.677.542.146.219.256.481.362.813.105.324.158.7.158 1.13 0 2.592-1.292 3.906-3.885 3.906H652.8v-7zm15.899 0c1.102 0 1.845.302 2.258.925.414.624.633 1.56.633 2.823v9.463c0 1.28-.211 2.257-.633 2.913-.413.656-1.164.971-2.258.971s-1.86-.315-2.28-.97c-.414-.657-.61-1.634-.61-2.914v-9.463c0-1.263.196-2.199.61-2.823.412-.623 1.178-.925 2.28-.925zm11.27 0c.55 0 .964-.008 1.264 0 .3.008.684.027 1.13.067.453.033.795.1 1.038.18.243.082.521.208.813.362.3.146.509.324.655.542.146.219.278.481.384.813.105.324.158.7.158 1.13 0 2.592-1.292 3.906-3.884 3.906h-1.559v-7zm-27.169 9.327h1.558c1.345 0 2.335.302 2.959.925.624.616.926 1.606.926 2.959s-.302 2.335-.926 2.958c-.624.616-1.614.926-2.959.926H652.8v-7.768zm27.168 0h1.558c1.345 0 2.335.302 2.959.925.624.616.926 1.606.926 2.959s-.302 2.335-.926 2.958c-.624.616-1.614.926-2.959.926h-1.558v-7.768zM553.478 39.625c-13.995 0-25.407 11.435-25.407 25.43 0 8.61 4.322 16.239 10.908 20.844-15.45 5.87-26.468 20.822-26.468 38.302a3.614 3.614 0 1 0 7.227 0c0-18.547 14.86-33.534 33.356-33.74.128.002.256.022.384.022s.256-.02.384-.022c18.496.206 33.356 15.193 33.356 33.74a3.614 3.614 0 1 0 7.226 0c0-17.487-11.029-32.437-26.49-38.302 6.592-4.604 10.93-12.23 10.93-20.845 0-13.994-11.412-25.429-25.406-25.429zm0 7.25c10.089 0 18.18 8.09 18.18 18.18 0 10.088-8.091 18.18-18.18 18.18a18.137 18.137 0 0 1-18.203-18.18 18.137 18.137 0 0 1 18.203-18.18zM438.257 71.92c-6.933 0-13.211.883-17.932 2.416-2.36.767-4.343 1.672-5.871 2.846-1.434 1.1-2.573 2.602-2.71 4.403a2.091 2.091 0 0 0-.023.34V128.716c0 1.966 1.204 3.591 2.733 4.765 1.528 1.175 3.511 2.079 5.871 2.846 4.72 1.534 10.999 2.439 17.932 2.439 6.933 0 13.211-.905 17.931-2.44 2.36-.766 4.32-1.67 5.85-2.845 1.528-1.174 2.754-2.799 2.754-4.765V81.924a2.1 2.1 0 0 0-.045-.406c-.162-1.771-1.295-3.25-2.71-4.336-1.529-1.174-3.489-2.08-5.849-2.846-4.72-1.533-10.998-2.416-17.931-2.416zm0 4.178c6.565 0 12.495.873 16.621 2.213 2.063.67 3.685 1.465 4.63 2.19.921.708 1.076 1.19 1.084 1.423v.023c0 .226-.14.697-1.084 1.423-.945.725-2.567 1.52-4.63 2.19-4.126 1.34-10.056 2.236-16.621 2.236-6.566 0-12.519-.896-16.644-2.236-2.063-.67-3.663-1.465-4.608-2.19-.944-.726-1.106-1.197-1.106-1.423v-.023c.008-.233.184-.714 1.106-1.423.945-.725 2.545-1.52 4.608-2.19 4.125-1.34 10.078-2.213 16.644-2.213zM415.899 87.66c1.264.73 2.756 1.355 4.426 1.897 4.72 1.534 10.999 2.417 17.932 2.417 6.933 0 13.21-.883 17.93-2.417 1.671-.542 3.143-1.167 4.405-1.897v41.057c0 .227-.162.72-1.107 1.446s-2.544 1.52-4.607 2.19c-4.125 1.341-10.056 2.236-16.621 2.236-6.566 0-12.52-.895-16.644-2.236-2.063-.67-3.663-1.464-4.608-2.19-.944-.726-1.106-1.22-1.106-1.446 0-.171.01-.177 0-.045a2.091 2.091 0 0 0 0-.135V87.66zm85.298 5.15c-5.239 0-9.676 3.421-11.202 8.152h-20.392v7.227h20.392c1.526 4.731 5.963 8.153 11.202 8.153V92.81zm-72.72 8.694c-4.485 0-8.152 3.666-8.152 8.153s3.666 8.152 8.153 8.152c3.167 0 5.904-1.84 7.25-4.494l2.37-1.761 2.304 1.83.7.519.678-.497 2.664-1.942 2.327 2.122.88.813.768-.948 1.378-1.671 2.958.768.497.112.407-.27 1.987-1.333.384-.248.09-.475.655-3.274.271-1.355H435.501c-1.4-2.474-3.99-4.2-7.023-4.2zm100.588 20.077c-.915 0-1.72.125-2.416.384-.697.26-1.271.608-1.717 1.061-.445.454-.8 1.028-1.084 1.717a9.47 9.47 0 0 0-.587 2.19c-.113.778-.18 1.662-.18 2.643v6.21c0 .98.067 1.842.18 2.62a9.77 9.77 0 0 0 .587 2.213c.284.68.639 1.254 1.084 1.716.446.454 1.02.802 1.717 1.062.696.259 1.5.384 2.416.384 1.07 0 1.98-.157 2.733-.497.761-.34 1.369-.843 1.806-1.49.446-.657.754-1.409.949-2.26.202-.85.316-1.832.316-2.958v-.79h-3.117v.79c0 .535-.012.996-.045 1.4a7.061 7.061 0 0 1-.226 1.243c-.105.429-.257.786-.451 1.061-.187.276-.436.5-.768.678-.332.178-.735.27-1.197.27-.462 0-.871-.078-1.22-.248a2.364 2.364 0 0 1-.813-.7 3.643 3.643 0 0 1-.496-1.039 7.055 7.055 0 0 1-.271-1.264c-.04-.422-.068-.882-.068-1.4v-7.792c0-.6.013-1.085.045-1.49.033-.414.098-.836.203-1.265.114-.43.272-.788.475-1.039.202-.26.479-.47.835-.632.365-.162.808-.226 1.31-.226.389 0 .725.046 1.016.135.292.081.537.198.723.384.194.179.353.391.474.61.13.21.229.466.294.79.065.325.111.641.135.949.025.3.037.677.046 1.107v.677h3.116c0-.324-.014-.546-.022-.7-.041-1.029-.18-1.94-.407-2.71a6.025 6.025 0 0 0-.994-2.033c-.437-.583-1.024-1.01-1.761-1.31-.737-.3-1.607-.451-2.62-.451zm38.098 0c-1.093 0-2.037.158-2.822.474-.778.316-1.39.791-1.852 1.423a6.178 6.178 0 0 0-1.017 2.213c-.21.85-.316 1.839-.316 2.981v7.904c0 1.143.106 2.137.316 3.004.211.859.555 1.618 1.017 2.258.461.64 1.074 1.114 1.852 1.446.785.332 1.729.497 2.822.497 1.086 0 2-.165 2.778-.497.786-.34 1.413-.828 1.875-1.468.461-.648.805-1.4 1.016-2.259.219-.866.339-1.855.339-2.98v-7.905c0-2.3-.483-4.07-1.423-5.284-.94-1.215-2.462-1.807-4.585-1.807zm-27.484.203l-4.675 21.793h3.117l1.174-5.442h3.885l1.174 5.442h3.094l-4.652-21.793h-3.117zm8.966 0v21.793h3.116V133.46h2.327l3.139 10.117h3.071l-3.478-10.908c.891-.324 1.548-.909 2.01-1.784.462-.875.7-1.956.7-3.252 0-2.09-.587-3.595-1.761-4.494-1.175-.899-2.923-1.355-5.24-1.355h-3.884zm26.671 0v21.793h8.56v-2.348h-5.443v-19.445h-3.117zm-23.555 2.349h.768c1.296 0 2.266.262 2.914.813.648.543.97 1.448.97 2.687 0 1.24-.322 2.137-.97 2.688-.648.543-1.618.813-2.914.813h-.768v-7.001zm15.402 0c1.102 0 1.846.302 2.259.926.413.624.632 1.559.632 2.823v9.462c0 1.28-.211 2.257-.632 2.914-.413.656-1.165.97-2.259.97-1.093 0-1.86-.314-2.28-.97-.414-.657-.61-1.634-.61-2.914v-9.462c0-1.264.196-2.2.61-2.823.413-.624 1.179-.926 2.28-.926zm-25.925 2.326l1.558 9.327h-3.117l1.559-9.327zm-106.866 17.028v14.34l-7.994 14.409h23.216l-7.995-14.408v-14.296c-1.097.043-2.211.045-3.342.045-1.32 0-2.612-.032-3.885-.09zM639.182 296.445c-13.994 0-25.406 11.412-25.406 25.407 0 8.607 4.326 16.239 10.908 20.844-15.451 5.87-26.468 20.823-26.468 38.302a3.614 3.614 0 1 0 7.227 0c0-18.501 14.787-33.44 33.22-33.717.173.004.346 0 .52 0 .173 0 .346.004.519 0 18.433.278 33.22 15.216 33.22 33.717a3.614 3.614 0 1 0 7.227 0c0-17.476-11.021-32.407-26.468-38.279 6.596-4.604 10.93-12.25 10.93-20.867 0-13.995-11.434-25.407-25.429-25.407zm-159.056 6.708l-16.418 16.44 15.831 4.54 13.212 13.211c.258-1.305.88-2.545 1.806-3.5.49-.505 1.097-1.827 1.717-3.23l-11.608-11.608-4.54-15.853zm159.056.519a18.137 18.137 0 0 1 18.203 18.18c0 9.954-7.896 17.99-17.796 18.202-.137 0-.27-.022-.407-.022-.136 0-.27.02-.406.022-9.896-.218-17.773-8.252-17.773-18.202 0-10.089 8.09-18.18 18.18-18.18zm-115.22 25.045c-6.934 0-13.212.884-17.932 2.417-2.36.766-4.343 1.694-5.872 2.868-1.41 1.082-2.519 2.53-2.687 4.29a2.091 2.091 0 0 0-.046.452v46.59h.023c0 .079-.023.223-.023.203 0 1.966 1.205 3.569 2.733 4.743 1.528 1.174 3.512 2.1 5.872 2.868 4.72 1.534 10.998 2.416 17.931 2.416 6.933 0 13.212-.882 17.931-2.416 2.36-.767 4.344-1.694 5.872-2.868 1.528-1.174 2.733-2.777 2.733-4.743v-46.793a2.091 2.091 0 0 0-.068-.61c-.22-1.69-1.32-3.082-2.687-4.132-1.53-1.174-3.49-2.102-5.85-2.868-4.72-1.533-10.998-2.417-17.93-2.417zm0 4.178c6.565 0 12.517.896 16.643 2.236 2.063.67 3.662 1.465 4.607 2.19.945.726 1.107 1.197 1.107 1.423 0 .226-.162.72-1.107 1.446-.945.725-2.544 1.52-4.607 2.19-4.126 1.34-10.078 2.213-16.644 2.213-6.566 0-12.518-.873-16.644-2.213-2.063-.67-3.662-1.465-4.607-2.19-.945-.726-1.107-1.22-1.107-1.446 0-.226.162-.697 1.107-1.423.945-.725 2.544-1.52 4.607-2.19 4.126-1.34 10.078-2.236 16.644-2.236zm-22.359 11.563c1.27.735 2.746 1.351 4.427 1.897 4.72 1.533 10.998 2.416 17.931 2.416 6.933 0 13.211-.883 17.931-2.416 1.681-.546 3.16-1.162 4.427-1.897v41.08c0 .226-.162.696-1.107 1.422s-2.544 1.52-4.607 2.19c-4.125 1.342-10.078 2.237-16.644 2.237-6.566 0-12.519-.895-16.644-2.236-2.062-.67-3.662-1.465-4.607-2.19-.945-.727-1.107-1.197-1.107-1.424 0-.171.01-.177 0-.045a2.091 2.091 0 0 0 0-.158v-40.876zm85.321 5.172c-5.239 0-9.676 3.421-11.201 8.152h-20.416v7.227h20.416c1.525 4.731 5.962 8.153 11.201 8.153V349.63zm-72.719 8.694c-4.486 0-8.153 3.644-8.153 8.13 0 4.487 3.666 8.153 8.153 8.153 3.167 0 5.881-1.84 7.227-4.494l2.371-1.762 2.326 1.83.678.519.7-.497 2.642-1.942 2.326 2.123.88.813.769-.926 1.377-1.671 2.959.745.497.113.429-.271 1.964-1.31.384-.271.09-.474.656-3.275.293-1.355h-21.545c-1.4-2.474-3.99-4.178-7.023-4.178zm94.76 20.28v21.77h3.117v-10.117h3.884v-2.326h-3.884v-7h5.443v-2.327h-8.56zm9.395 0v21.77h3.117v-10.117h2.326l3.14 10.118h6.074l1.174-5.443h3.885l1.174 5.443h3.094l-4.652-21.77h-3.117l-4.63 21.521-3.41-10.636c.892-.325 1.571-.932 2.033-1.807.462-.875.678-1.956.678-3.252 0-2.09-.587-3.595-1.762-4.494-1.175-.9-2.9-1.333-5.217-1.333h-3.907zm25.181 0v21.77h3.117V385.9l5.555 14.476h2.213v-21.77h-3.116v13.459l-5.443-13.46h-2.326zm13.437 0v21.77h3.094v-7l1.558-3.117 3.885 10.118h3.907l-5.465-13.212 4.674-8.559h-3.884l-4.675 9.327v-9.327h-3.094zm-35.501 2.326h.79c1.296 0 2.266.285 2.914.836.648.543.97 1.425.97 2.665s-.322 2.136-.97 2.687c-.648.543-1.618.813-2.914.813h-.79v-7zm14.657 2.326l1.558 9.35h-3.117l1.559-9.35z" color="#000" fill="#216778" overflow="visible"/>
        <path d="M880.126 61.305c-13.994 0-25.406 11.435-25.406 25.43 0 8.61 4.322 16.24 10.908 20.844-15.451 5.87-26.468 20.823-26.468 38.302a3.614 3.614 0 1 0 7.226 0c0-18.547 14.86-33.534 33.356-33.74.128.002.256.023.384.023s.256-.021.384-.023c18.497.206 33.356 15.193 33.356 33.74a3.614 3.614 0 1 0 7.227 0c0-17.487-11.03-32.437-26.49-38.302 6.591-4.604 10.93-12.23 10.93-20.844 0-13.995-11.412-25.43-25.407-25.43zm0 7.25c10.089 0 18.18 8.09 18.18 18.18 0 10.088-8.091 18.18-18.18 18.18a18.137 18.137 0 0 1-18.202-18.18 18.137 18.137 0 0 1 18.202-18.18zm-65.582 58.243c-4.248 3.066-5.846 8.437-4.314 13.166l-10.41 7.52c.366.768.726 1.382 1.038 1.694a6.971 6.971 0 0 1 2.01 4.878v.158l11.608-8.378a11.755 11.755 0 0 0 13.844.045l-6.888-9.53-6.888-9.553zm-43.022 17.231c-6.933 0-13.21.883-17.931 2.416-2.36.767-4.344 1.695-5.872 2.869-1.529 1.173-2.733 2.776-2.733 4.742 0 .085.018.165.023.248v46.545c0 1.966 1.204 3.568 2.732 4.743 1.529 1.174 3.49 2.078 5.85 2.845 4.72 1.534 10.997 2.44 17.93 2.44 6.934 0 13.212-.906 17.932-2.44 2.36-.767 4.344-1.671 5.872-2.845 1.528-1.175 2.732-2.777 2.732-4.743v-46.793a2.091 2.091 0 0 0-.022-.429c-.162-1.771-1.294-3.227-2.71-4.313-1.528-1.174-3.512-2.102-5.872-2.869-4.72-1.533-10.998-2.416-17.931-2.416zm0 4.178c6.566 0 12.518.873 16.644 2.213 2.063.67 3.662 1.488 4.607 2.213.945.726 1.107 1.197 1.107 1.423 0 .226-.162.72-1.107 1.445-.945.726-2.544 1.521-4.607 2.191-4.126 1.34-10.078 2.213-16.644 2.213-6.566 0-12.496-.873-16.622-2.213-2.063-.67-3.684-1.465-4.63-2.19-.826-.635-1.04-1.08-1.083-1.333v-.113a2.091 2.091 0 0 0 0-.113c.044-.254.257-.675 1.084-1.31.945-.725 2.566-1.543 4.63-2.213 4.125-1.34 10.055-2.213 16.621-2.213zm22.358 11.54v41.102c0 .227-.162.697-1.107 1.423-.945.726-2.544 1.52-4.607 2.19-4.125 1.341-10.079 2.236-16.644 2.236-6.566 0-12.497-.895-16.622-2.235-2.062-.67-3.662-1.465-4.607-2.191-.945-.726-1.106-1.196-1.106-1.423 0 .01-.023 0-.023 0a2.091 2.091 0 0 0 .023-.203V159.77c1.264.729 2.733 1.354 4.404 1.897 4.72 1.533 10.998 2.416 17.931 2.416 6.933 0 13.211-.883 17.931-2.416 1.682-.547 3.16-1.184 4.427-1.92zm-32.114 13.889c-4.486 0-8.153 3.643-8.153 8.13 0 4.487 3.666 8.153 8.153 8.153 3.167 0 5.88-1.84 7.227-4.494l2.37-1.762 2.327 1.83.677.519.7-.497 2.665-1.942 2.304 2.123.88.813.791-.926 1.355-1.671 2.981.745.474.113.43-.271 1.964-1.333.407-.248.068-.474.655-3.275.293-1.355H768.79c-1.4-2.474-3.99-4.178-7.023-4.178zm147.267 10.524c-13.994 0-25.406 11.435-25.406 25.429 0 8.61 4.322 16.24 10.907 20.845-15.45 5.87-26.467 20.822-26.467 38.301a3.614 3.614 0 1 0 7.226 0c0-18.546 14.86-33.534 33.356-33.74.128.002.256.023.384.023s.256-.02.384-.023c18.497.206 33.356 15.194 33.356 33.74a3.614 3.614 0 1 0 7.227 0c0-17.486-11.03-32.436-26.49-38.301 6.59-4.605 10.93-12.23 10.93-20.845 0-13.994-11.412-25.43-25.407-25.43zm-168.857 6.368l-20.664 14.928-16.373 1.897 13.527 18.903 7.092-14.95 16.418-11.857v-8.92zm168.857.881c10.089 0 18.18 8.091 18.18 18.18s-8.091 18.18-18.18 18.18a18.137 18.137 0 0 1-18.202-18.18 18.137 18.137 0 0 1 18.202-18.18zm-115.221 25.045c-6.933 0-13.211.884-17.931 2.417-2.36.766-4.344 1.671-5.872 2.845-1.433 1.1-2.572 2.603-2.71 4.404a2.091 2.091 0 0 0-.023.339v46.792c0 1.967 1.205 3.592 2.733 4.766s3.512 2.078 5.872 2.846c4.72 1.534 10.998 2.439 17.931 2.439 6.933 0 13.212-.905 17.931-2.44 2.36-.767 4.32-1.67 5.85-2.845 1.528-1.174 2.755-2.8 2.755-4.765v-46.793a2.1 2.1 0 0 0-.045-.407c-.163-1.77-1.295-3.25-2.71-4.336-1.529-1.174-3.49-2.079-5.85-2.845-4.72-1.533-10.998-2.417-17.93-2.417zm0 4.178c6.566 0 12.495.874 16.621 2.214 2.063.67 3.685 1.465 4.63 2.19.921.708 1.076 1.19 1.084 1.423v.022c0 .227-.14.698-1.084 1.423-.945.726-2.567 1.52-4.63 2.19-4.126 1.34-10.055 2.237-16.621 2.237-6.566 0-12.518-.896-16.644-2.236-2.063-.67-3.662-1.465-4.607-2.19-.945-.726-1.107-1.197-1.107-1.424v-.022c.008-.233.185-.715 1.107-1.423.945-.725 2.544-1.52 4.607-2.19 4.126-1.34 10.078-2.214 16.644-2.214zm-22.358 11.563c1.264.73 2.756 1.355 4.427 1.897 4.72 1.533 10.998 2.417 17.93 2.417 6.934 0 13.212-.884 17.932-2.417 1.67-.542 3.143-1.168 4.404-1.897v41.057c0 .226-.162.72-1.107 1.445-.944.726-2.544 1.52-4.607 2.19-4.125 1.342-10.055 2.237-16.621 2.237-6.566 0-12.519-.895-16.644-2.236-2.063-.67-3.662-1.465-4.607-2.19-.928-.713-1.101-1.192-1.107-1.423.023-.216 0-.239 0-.023a2.091 2.091 0 0 0 0-.18v-40.877zm85.298 5.15c-5.238 0-9.675 3.42-11.201 8.152h-20.393v7.227h20.393c1.526 4.73 5.963 8.152 11.201 8.152v-23.532zm-136.698.157v23.239l14.43-8.017h27.982v-7.227h-28.004l-14.408-7.995zm63.98 8.537c-4.486 0-8.153 3.666-8.153 8.152 0 4.487 3.665 8.153 8.152 8.153 3.167 0 5.904-1.84 7.25-4.494l2.37-1.761 2.304 1.829.7.52.678-.498 2.665-1.942 2.326 2.123.88.813.768-.948 1.378-1.672 2.958.768.497.113.407-.27 1.987-1.333.384-.249.09-.474.655-3.275.271-1.355H791.057c-1.401-2.473-3.99-4.2-7.024-4.2zm93.201 53.749c-13.994 0-25.406 11.434-25.406 25.429 0 8.61 4.322 16.24 10.908 20.844-15.451 5.87-26.468 20.823-26.468 38.302a3.614 3.614 0 1 0 7.227 0c0-18.547 14.859-33.534 33.356-33.74.127.002.255.023.383.023.129 0 .257-.02.384-.023 18.497.206 33.356 15.193 33.356 33.74a3.614 3.614 0 1 0 7.227 0c0-17.487-11.03-32.437-26.49-38.302 6.591-4.604 10.93-12.23 10.93-20.844 0-13.995-11.412-25.43-25.407-25.43zm0 7.249c10.09 0 18.18 8.09 18.18 18.18 0 10.089-8.09 18.18-18.18 18.18a18.137 18.137 0 0 1-18.202-18.18 18.137 18.137 0 0 1 18.202-18.18zm-115.22 25.045c-6.934 0-13.212.883-17.932 2.417-2.36.766-4.343 1.671-5.872 2.845-1.433 1.1-2.572 2.602-2.71 4.404a2.091 2.091 0 0 0-.022.339v46.792c0 1.966 1.204 3.591 2.732 4.766 1.529 1.174 3.512 2.078 5.872 2.845 4.72 1.534 10.998 2.44 17.931 2.44 6.934 0 13.212-.906 17.932-2.44 2.36-.767 4.32-1.67 5.849-2.845 1.528-1.175 2.755-2.8 2.755-4.765v-46.793a2.1 2.1 0 0 0-.045-.407c-.162-1.77-1.295-3.25-2.71-4.336-1.529-1.174-3.489-2.079-5.849-2.846-4.72-1.533-10.998-2.416-17.931-2.416zm0 4.178c6.565 0 12.495.873 16.62 2.213 2.064.67 3.685 1.465 4.63 2.19.922.709 1.077 1.19 1.084 1.424v.022c0 .226-.139.697-1.084 1.423-.945.726-2.566 1.52-4.63 2.19-4.125 1.34-10.055 2.236-16.62 2.236-6.567 0-12.519-.895-16.645-2.235-2.063-.67-3.662-1.465-4.607-2.191-.945-.726-1.106-1.197-1.106-1.423v-.022c.008-.233.184-.715 1.106-1.423.945-.726 2.544-1.52 4.607-2.19 4.126-1.34 10.078-2.214 16.644-2.214zm-22.358 11.563c1.263.73 2.756 1.354 4.426 1.897 4.72 1.533 10.998 2.416 17.931 2.416 6.933 0 13.211-.883 17.932-2.416 1.67-.543 3.142-1.168 4.403-1.897v41.057c0 .226-.161.72-1.106 1.445-.945.726-2.545 1.52-4.607 2.19-4.125 1.342-10.056 2.236-16.622 2.236-6.565 0-12.519-.894-16.644-2.235-2.062-.67-3.662-1.465-4.607-2.191-.927-.713-1.1-1.191-1.106-1.423.023-.215 0-.238 0-.023a2.091 2.091 0 0 0 0-.18v-40.877zm85.298 5.149c-5.239 0-9.676 3.421-11.202 8.153H793.36v7.226h20.393c1.526 4.731 5.963 8.153 11.202 8.153v-23.532zm-136.699.158v23.238l14.431-8.017h27.981v-7.226h-28.003l-14.409-7.995zm63.98 8.537c-4.486 0-8.153 3.666-8.153 8.152 0 4.487 3.666 8.153 8.153 8.153 3.167 0 5.903-1.84 7.249-4.494l2.371-1.762 2.304 1.83.7.519.677-.497 2.665-1.942 2.326 2.123.881.813.768-.949 1.377-1.67 2.959.767.497.113.406-.271 1.988-1.333.383-.248.09-.474.656-3.275.27-1.355H759.26c-1.4-2.474-3.99-4.2-7.024-4.2z" opacity=".523" color="#000" fill="#216778" overflow="visible"/>
        <path d="M725.626 345.336a.421.421 0 0 0-.4.411v3.562c0 .212.194.405.406.405a.422.422 0 0 0 .406-.405v-3.562a.422.422 0 0 0-.412-.411zm-3.626.005a2.193 2.193 0 0 0-2.187 2.187c0 1.203.984 2.187 2.187 2.187a2.193 2.193 0 0 0 2.187-2.187 2.193 2.193 0 0 0-2.187-2.187zm0 .81a1.37 1.37 0 0 1 1.376 1.377 1.37 1.37 0 0 1-1.376 1.376 1.37 1.37 0 0 1-1.377-1.376 1.37 1.37 0 0 1 1.377-1.376zm-3.638-.815a.421.421 0 0 0-.4.412v3.561c0 .213.194.406.406.406a.422.422 0 0 0 .406-.406v-3.561a.422.422 0 0 0-.412-.412zm-1.971 0a.421.421 0 0 0-.4.412v3.561c0 .213.193.406.406.406a.422.422 0 0 0 .406-.406v-3.561a.422.422 0 0 0-.412-.412zm10.273-5.19a.421.421 0 0 0-.4.412v3.564c-.013.22.185.43.405.43.22 0 .418-.21.405-.43v-3.564a.422.422 0 0 0-.41-.411zm-2.076 0a.421.421 0 0 0-.4.412v3.564c0 .213.193.406.406.406a.422.422 0 0 0 .405-.406v-3.564a.422.422 0 0 0-.411-.411zm-3.626.007a2.193 2.193 0 0 0-2.187 2.187c0 1.203.984 2.187 2.187 2.187a2.193 2.193 0 0 0 2.187-2.187 2.193 2.193 0 0 0-2.187-2.187zm0 .81a1.37 1.37 0 0 1 1.377 1.377 1.37 1.37 0 0 1-1.377 1.376 1.37 1.37 0 0 1-1.376-1.376 1.37 1.37 0 0 1 1.376-1.377zm-5.188-.81a2.193 2.193 0 0 0-2.187 2.187c0 1.203.984 2.187 2.187 2.187a2.193 2.193 0 0 0 2.187-2.187 2.193 2.193 0 0 0-2.187-2.187zm0 .81a1.37 1.37 0 0 1 1.377 1.377 1.37 1.37 0 0 1-1.377 1.376 1.37 1.37 0 0 1-1.376-1.376 1.37 1.37 0 0 1 1.376-1.377zm-3.637-.816a.421.421 0 0 0-.4.411v3.565c0 .212.193.405.406.405a.422.422 0 0 0 .406-.405v-3.565a.422.422 0 0 0-.412-.411zm-3.626.006a2.193 2.193 0 0 0-2.187 2.187c0 1.203.984 2.187 2.187 2.187a2.193 2.193 0 0 0 2.187-2.187 2.193 2.193 0 0 0-2.187-2.187zm0 .81a1.37 1.37 0 0 1 1.376 1.377 1.37 1.37 0 0 1-1.376 1.376 1.37 1.37 0 0 1-1.377-1.376 1.37 1.37 0 0 1 1.377-1.376zm-5.188-.81a2.193 2.193 0 0 0-2.187 2.187c0 1.203.983 2.187 2.187 2.187a2.193 2.193 0 0 0 2.187-2.187 2.193 2.193 0 0 0-2.187-2.187zm0 .81a1.37 1.37 0 0 1 1.376 1.377 1.37 1.37 0 0 1-1.376 1.376 1.37 1.37 0 0 1-1.377-1.376 1.37 1.37 0 0 1 1.377-1.376zm-3.637-.816a.421.421 0 0 0-.4.412v3.564c-.013.22.184.43.405.43.22 0 .418-.21.404-.43v-3.564a.422.422 0 0 0-.409-.412zm25.94-5.187a.421.421 0 0 0-.4.411v3.562c0 .212.194.405.406.405a.422.422 0 0 0 .406-.405v-3.562a.422.422 0 0 0-.412-.411zm-1.971 0a.421.421 0 0 0-.4.411v3.562c0 .213.193.406.405.406a.422.422 0 0 0 .406-.406v-3.562a.422.422 0 0 0-.411-.411zm-2.077 0c-.212.004-.4.2-.398.411v3.562c-.013.22.184.43.405.43.22 0 .418-.21.405-.43v-3.562a.422.422 0 0 0-.412-.411zm-3.729.005a2.193 2.193 0 0 0-2.187 2.187c0 1.203.984 2.187 2.187 2.187a2.193 2.193 0 0 0 2.188-2.187 2.193 2.193 0 0 0-2.188-2.187zm0 .81a1.37 1.37 0 0 1 1.377 1.377 1.37 1.37 0 0 1-1.377 1.376 1.37 1.37 0 0 1-1.376-1.376 1.37 1.37 0 0 1 1.376-1.376zm-5.188-.81a2.193 2.193 0 0 0-2.187 2.187c0 1.203.984 2.187 2.187 2.187a2.193 2.193 0 0 0 2.187-2.187 2.193 2.193 0 0 0-2.187-2.187zm0 .81a1.37 1.37 0 0 1 1.377 1.377 1.37 1.37 0 0 1-1.377 1.376 1.37 1.37 0 0 1-1.376-1.376 1.37 1.37 0 0 1 1.376-1.376zm-3.637-.815a.421.421 0 0 0-.4.412v3.561c0 .213.194.406.406.406a.422.422 0 0 0 .406-.406v-3.561a.422.422 0 0 0-.412-.412zm-3.626.005a2.193 2.193 0 0 0-2.187 2.187c0 1.203.984 2.187 2.187 2.187a2.193 2.193 0 0 0 2.187-2.187 2.193 2.193 0 0 0-2.187-2.187zm0 .81a1.37 1.37 0 0 1 1.376 1.377 1.37 1.37 0 0 1-1.376 1.377 1.37 1.37 0 0 1-1.377-1.377 1.37 1.37 0 0 1 1.377-1.376zm-3.535-.815c-.211.004-.4.2-.397.412v3.562c-.014.22.184.43.404.43.221 0 .419-.21.405-.43v-3.562a.422.422 0 0 0-.412-.412zm-2.074 0a.421.421 0 0 0-.4.412v3.562c0 .212.194.405.406.405a.422.422 0 0 0 .406-.405v-3.562a.422.422 0 0 0-.412-.412zm.703-2.992a5.2 5.2 0 0 0-5.194 5.192v15.797a5.2 5.2 0 0 0 5.194 5.192h15.034a5.148 5.148 0 0 1-.239-1.555l.002-.061h-14.798a3.552 3.552 0 0 1-3.578-3.576V337.16a3.552 3.552 0 0 1 3.578-3.576h24.347a3.55 3.55 0 0 1 3.575 3.576v15.797a3.547 3.547 0 0 1-2.712 3.475c.002.054.005.107.005.162 0 .527-.08 1.036-.227 1.515a5.199 5.199 0 0 0 4.55-5.152V337.16a5.197 5.197 0 0 0-5.191-5.192h-24.346zm20.003 20.379a4.242 4.242 0 0 0-4.247 4.247c0 1.458.733 2.738 1.85 3.503.1.068.162.186.161.306v5.017l1.974-1.974a.385.385 0 0 1 .524 0l1.887 1.887v-4.871c0-.123.066-.244.169-.311a4.244 4.244 0 0 0-2.318-7.804z" color="#000" fill="#ff8080" overflow="visible"/>
        <path d="M700.013 345.301c-.295 0-.534.085-.713.256-.18.17-.268.4-.268.689a1.104 1.104 0 0 0 .422.908l.697.56c.066.052.117.097.154.134.038.034.084.082.13.142a.707.707 0 0 1 .138.422c0 .278-.142.42-.422.42-.344 0-.532-.28-.56-.838l-.555.141c.022.358.124.637.308.844.187.206.455.312.807.312.298 0 .538-.082.714-.243.177-.162.263-.387.263-.673 0-.42-.183-.778-.555-1.079l-.702-.56a.68.68 0 0 1-.28-.55c0-.135.037-.239.11-.313.073-.076.179-.114.312-.114.168 0 .292.055.377.163a.84.84 0 0 1 .17.425c.007.05.011.085.013.11l.556-.138c-.006-.054-.008-.095-.013-.126-.043-.283-.16-.502-.348-.657-.187-.155-.438-.235-.755-.235zm13.065 0c-.76 0-1.14.479-1.14 1.436v.989c0 .195.01.37.03.519.018.15.051.29.1.426.05.135.116.249.2.336a.882.882 0 0 0 .324.207c.132.051.287.077.466.077.263 0 .446-.153.555-.458l.142.418h.418v-1.95h-1.115v.413h.555v.142c0 .112-.003.208-.012.296a1.507 1.507 0 0 1-.044.263.703.703 0 0 1-.098.223.497.497 0 0 1-.401.195.592.592 0 0 1-.211-.037.412.412 0 0 1-.15-.105.743.743 0 0 1-.101-.154.84.84 0 0 1-.061-.199 2.69 2.69 0 0 1-.037-.482v-1.257c0-.127.007-.238.025-.333a.94.94 0 0 1 .089-.263.414.414 0 0 1 .178-.179.601.601 0 0 1 .288-.065c.083 0 .155.012.215.037a.368.368 0 0 1 .231.251.938.938 0 0 1 .045.199c.009.065.01.143.012.235v.118h.56v-.122a1.94 1.94 0 0 0-.077-.487 1.09 1.09 0 0 0-.187-.369.766.766 0 0 0-.324-.235 1.239 1.239 0 0 0-.475-.085zm-11.637.04v3.91h.56v-1.817h.976v1.817h.56v-3.91h-.56v1.675H702v-1.674h-.56zm3.146 0l-.84 3.91h.56l.207-.978h.702l.207.978h.56l-.84-3.91h-.556zm1.61 0v3.91h.556v-1.817h.421l.56 1.817h.555l-.628-1.955a.659.659 0 0 0 .365-.324c.083-.157.125-.351.125-.584 0-.375-.105-.642-.316-.803-.21-.161-.525-.243-.94-.243h-.698zm2.34 0v3.91h.56v-3.91h-.56zm1.062 0v3.91h.556v-2.6l1.001 2.6h.397v-3.91h-.56v2.417l-.976-2.416h-.418zm-2.846.418h.141c.233 0 .407.051.524.15.116.098.174.256.174.479 0 .222-.058.383-.174.482-.117.098-.29.146-.524.146h-.141v-1.257zm-1.886.418l.276 1.679h-.556l.28-1.679zm-4.732 4.712c-.164 0-.309.022-.434.069a.81.81 0 0 0-.304.19.955.955 0 0 0-.199.308c-.049.123-.085.254-.105.394a3.35 3.35 0 0 0-.028.474v1.115c0 .176.008.33.028.47.02.14.056.274.105.398.051.122.119.225.199.308a.81.81 0 0 0 .304.19c.125.047.27.07.434.07.192 0 .36-.029.495-.09a.743.743 0 0 0 .32-.267c.08-.118.14-.253.174-.406.037-.152.053-.329.053-.53v-.143h-.56v.142c0 .096-.001.179-.007.251a1.263 1.263 0 0 1-.037.223.562.562 0 0 1-.081.191.39.39 0 0 1-.142.122.45.45 0 0 1-.215.048.476.476 0 0 1-.215-.044.439.439 0 0 1-.15-.126.654.654 0 0 1-.089-.187 1.27 1.27 0 0 1-.049-.227 2.688 2.688 0 0 1-.012-.251v-1.399c0-.108.006-.199.012-.272.006-.074.018-.15.037-.227a.486.486 0 0 1 .085-.182.392.392 0 0 1 .15-.114c.065-.029.14-.04.231-.04a.65.65 0 0 1 .187.02c.052.015.092.04.125.073.035.032.064.07.085.11a.424.424 0 0 1 .053.141c.012.059.02.115.024.17.004.055.007.118.008.195v.126h.56v-.13a1.97 1.97 0 0 0-.073-.482 1.082 1.082 0 0 0-.178-.365.73.73 0 0 0-.317-.24 1.268 1.268 0 0 0-.474-.076zm2.323 0a1.36 1.36 0 0 0-.506.085.743.743 0 0 0-.333.251 1.11 1.11 0 0 0-.182.398 2.274 2.274 0 0 0-.057.539v1.42c0 .204.019.383.057.538.037.155.1.287.182.402a.778.778 0 0 0 .333.263c.14.06.31.09.506.09.195 0 .36-.03.5-.09a.793.793 0 0 0 .336-.263c.083-.117.144-.252.182-.406.04-.155.061-.333.061-.535v-1.42c0-.412-.087-.73-.255-.948-.17-.218-.442-.324-.824-.324zm11.236 0c-.164 0-.308.022-.433.069a.828.828 0 0 0-.309.19.955.955 0 0 0-.198.308 1.7 1.7 0 0 0-.102.394c-.02.14-.032.298-.032.474v1.115c0 .176.012.33.032.47.02.14.052.274.102.398.05.122.118.225.198.308.08.082.183.144.309.19.125.047.27.07.433.07.192 0 .356-.029.491-.09a.743.743 0 0 0 .32-.267c.08-.118.14-.253.175-.406.036-.152.052-.329.052-.53v-.143h-.555v.142c0 .096-.002.179-.008.251-.006.073-.02.146-.04.223a.562.562 0 0 1-.082.191.376.376 0 0 1-.138.122.45.45 0 0 1-.215.048.494.494 0 0 1-.218-.044.44.44 0 0 1-.15-.126.654.654 0 0 1-.09-.187 1.27 1.27 0 0 1-.048-.227 2.786 2.786 0 0 1-.008-.251v-1.399c0-.108.002-.199.008-.272.006-.074.017-.15.036-.227a.484.484 0 0 1 .085-.182.392.392 0 0 1 .15-.114.583.583 0 0 1 .235-.04c.07 0 .13.004.183.02a.29.29 0 0 1 .13.073c.035.032.063.07.085.11a.424.424 0 0 1 .053.141c.011.059.02.115.024.17.004.055.007.118.008.195v.126h.555v-.13a1.97 1.97 0 0 0-.073-.482 1.082 1.082 0 0 0-.178-.365.73.73 0 0 0-.316-.24 1.246 1.246 0 0 0-.47-.076zm-9.772.036v3.91h.56v-2.6l.997 2.6h.398v-3.91h-.56v2.417l-.977-2.417h-.418zm2.133 0v.499h.698v3.41h.56v-3.41h.697v-.499h-1.955zm2.133 0v3.91h.56v-1.813h.417l.564 1.812H710.82l.206-.977h.702l.207.977h.56l-.84-3.909h-.556l-.83 3.864-.613-1.91a.651.651 0 0 0 .365-.32c.083-.157.121-.355.121-.588 0-.375-.105-.641-.316-.803-.21-.161-.525-.243-.94-.243h-.698zm6.536 0v.499h.698v3.41h.56v-3.41h.697v-.499h-1.955zm-12.266.422c.198 0 .332.054.406.166.074.112.113.28.113.507v1.699c0 .23-.037.405-.113.523-.074.118-.21.174-.406.174-.196 0-.333-.056-.41-.174-.073-.118-.109-.293-.109-.523v-1.699c0-.227.036-.395.11-.507.074-.112.212-.166.41-.166zm6.29 0h.137c.233 0 .407.047.523.146.117.097.175.256.175.478 0 .223-.058.384-.175.483-.116.097-.29.146-.523.146h-.137v-1.253zm2.631.418l.276 1.674h-.556l.28-1.674zm9.497 1.232a.305.305 0 0 0-.183.077l-.308.272-.333-.24a.305.305 0 0 0-.442.09l-.21.357-.39-.126a.305.305 0 0 0-.393.223l-.09.401h-.409a.305.305 0 0 0-.304.333l.037.414-.39.125a.305.305 0 0 0-.186.41l.166.377-.332.243a.305.305 0 0 0-.05.45l.273.308-.244.333a.305.305 0 0 0 .094.442l.352.21-.125.39a.305.305 0 0 0 .223.393l.401.09.004.41a.305.305 0 0 0 .333.303l.41-.036.129.389a.305.305 0 0 0 .41.186l.377-.162.243.329a.305.305 0 0 0 .446.048l.312-.271.333.243a.305.305 0 0 0 .442-.093l.21-.353.39.126a.305.305 0 0 0 .389-.223l.093-.402.41-.004a.305.305 0 0 0 .304-.332l-.037-.41.39-.13a.305.305 0 0 0 .182-.41l-.162-.376.332-.244a.305.305 0 0 0 .05-.446l-.272-.312.239-.332a.305.305 0 0 0-.09-.442l-.356-.211.125-.39a.305.305 0 0 0-.223-.389l-.401-.093v-.41a.305.305 0 0 0-.333-.304l-.413.037-.126-.39a.305.305 0 0 0-.41-.182l-.376.162-.244-.332a.305.305 0 0 0-.267-.126zm-.029.754l.19.26a.305.305 0 0 0 .366.101l.296-.125.097.304a.305.305 0 0 0 .32.207l.32-.029v.32a.305.305 0 0 0 .24.296l.312.073-.097.305a.305.305 0 0 0 .134.356l.275.163-.186.26a.305.305 0 0 0 .016.38l.215.244-.26.186a.305.305 0 0 0-.1.37l.125.291-.304.101a.305.305 0 0 0-.207.317l.028.32h-.32a.305.305 0 0 0-.296.24l-.069.315-.308-.1a.305.305 0 0 0-.357.133l-.162.276-.26-.187a.305.305 0 0 0-.38.02l-.24.211-.19-.26a.305.305 0 0 0-.366-.1l-.296.13-.101-.305a.305.305 0 0 0-.316-.21l-.32.028v-.32a.305.305 0 0 0-.24-.297l-.312-.069.097-.304a.305.305 0 0 0-.134-.357l-.28-.166.191-.26a.305.305 0 0 0-.02-.376l-.21-.24.259-.19a.305.305 0 0 0 .101-.37l-.126-.295.3-.098a.305.305 0 0 0 .211-.32l-.028-.32h.32a.305.305 0 0 0 .296-.24l.069-.312.304.098a.305.305 0 0 0 .357-.134l.166-.276.26.187a.305.305 0 0 0 .377-.017l.243-.214z" fill="#216778" />
        <path d="M757.367 230.434a.421.421 0 0 0-.4.412v3.561c0 .213.194.406.406.406a.422.422 0 0 0 .406-.406v-3.561a.422.422 0 0 0-.412-.412zm-3.626.005a2.193 2.193 0 0 0-2.187 2.187c0 1.203.984 2.187 2.187 2.187a2.193 2.193 0 0 0 2.187-2.187 2.193 2.193 0 0 0-2.187-2.187zm0 .81a1.37 1.37 0 0 1 1.376 1.377 1.37 1.37 0 0 1-1.376 1.377 1.37 1.37 0 0 1-1.377-1.377 1.37 1.37 0 0 1 1.377-1.376zm-3.638-.815a.421.421 0 0 0-.4.412v3.562c0 .212.194.405.406.405a.422.422 0 0 0 .406-.405v-3.562a.422.422 0 0 0-.412-.412zm-1.971 0a.421.421 0 0 0-.4.412v3.562c0 .212.193.405.406.405a.422.422 0 0 0 .406-.405v-3.562a.422.422 0 0 0-.412-.412zm10.273-5.19a.421.421 0 0 0-.4.412v3.565c-.013.22.185.43.405.43.22 0 .418-.21.405-.43v-3.565a.422.422 0 0 0-.41-.411zm-2.076 0a.421.421 0 0 0-.4.412v3.565c0 .212.193.405.406.405a.422.422 0 0 0 .405-.405v-3.565a.422.422 0 0 0-.411-.411zm-3.626.007a2.193 2.193 0 0 0-2.187 2.187c0 1.203.984 2.187 2.187 2.187a2.193 2.193 0 0 0 2.187-2.187 2.193 2.193 0 0 0-2.187-2.187zm0 .81a1.37 1.37 0 0 1 1.377 1.377 1.37 1.37 0 0 1-1.377 1.377 1.37 1.37 0 0 1-1.376-1.377 1.37 1.37 0 0 1 1.376-1.376zm-5.188-.81a2.193 2.193 0 0 0-2.187 2.187c0 1.203.984 2.187 2.187 2.187a2.193 2.193 0 0 0 2.187-2.187 2.193 2.193 0 0 0-2.187-2.187zm0 .81a1.37 1.37 0 0 1 1.377 1.377 1.37 1.37 0 0 1-1.377 1.377 1.37 1.37 0 0 1-1.376-1.377 1.37 1.37 0 0 1 1.376-1.376zm-3.637-.816a.421.421 0 0 0-.4.412v3.564c0 .212.193.405.406.405a.422.422 0 0 0 .406-.405v-3.564a.422.422 0 0 0-.412-.412zm-3.626.006a2.193 2.193 0 0 0-2.187 2.187c0 1.203.984 2.187 2.187 2.187a2.193 2.193 0 0 0 2.187-2.187 2.193 2.193 0 0 0-2.187-2.187zm0 .81a1.37 1.37 0 0 1 1.376 1.377 1.37 1.37 0 0 1-1.376 1.377 1.37 1.37 0 0 1-1.377-1.377 1.37 1.37 0 0 1 1.377-1.376zm-5.188-.81a2.193 2.193 0 0 0-2.187 2.187c0 1.203.983 2.187 2.187 2.187a2.193 2.193 0 0 0 2.187-2.187 2.193 2.193 0 0 0-2.187-2.187zm0 .81a1.37 1.37 0 0 1 1.376 1.377 1.37 1.37 0 0 1-1.376 1.377 1.37 1.37 0 0 1-1.377-1.377 1.37 1.37 0 0 1 1.377-1.376zm-3.637-.816a.421.421 0 0 0-.4.412v3.564c-.013.22.184.43.405.43.22 0 .418-.21.404-.43v-3.564a.422.422 0 0 0-.409-.412zm25.94-5.187a.421.421 0 0 0-.4.412v3.561c0 .213.194.406.406.406a.422.422 0 0 0 .406-.406v-3.561a.422.422 0 0 0-.412-.412zm-1.971 0a.421.421 0 0 0-.4.412v3.561c0 .213.193.406.405.406a.422.422 0 0 0 .406-.406v-3.561a.422.422 0 0 0-.411-.412zm-2.077 0c-.212.004-.4.2-.398.412v3.561c-.013.22.184.43.405.43.22 0 .418-.21.405-.43v-3.561a.422.422 0 0 0-.412-.412zm-3.729.005a2.193 2.193 0 0 0-2.187 2.187c0 1.203.984 2.187 2.187 2.187a2.193 2.193 0 0 0 2.188-2.187 2.193 2.193 0 0 0-2.188-2.187zm0 .81a1.37 1.37 0 0 1 1.377 1.377 1.37 1.37 0 0 1-1.377 1.377 1.37 1.37 0 0 1-1.376-1.377 1.37 1.37 0 0 1 1.376-1.376zm-5.188-.81a2.193 2.193 0 0 0-2.187 2.187c0 1.203.984 2.187 2.187 2.187a2.193 2.193 0 0 0 2.187-2.187 2.193 2.193 0 0 0-2.187-2.187zm0 .81a1.37 1.37 0 0 1 1.377 1.377 1.37 1.37 0 0 1-1.377 1.377 1.37 1.37 0 0 1-1.376-1.377 1.37 1.37 0 0 1 1.376-1.376zm-3.637-.815a.421.421 0 0 0-.4.412v3.561c0 .213.194.406.406.406a.422.422 0 0 0 .406-.406v-3.561a.422.422 0 0 0-.412-.412zm-3.626.005a2.193 2.193 0 0 0-2.187 2.187c0 1.203.984 2.187 2.187 2.187a2.193 2.193 0 0 0 2.187-2.187 2.193 2.193 0 0 0-2.187-2.187zm0 .81a1.37 1.37 0 0 1 1.376 1.377 1.37 1.37 0 0 1-1.376 1.377 1.37 1.37 0 0 1-1.377-1.377 1.37 1.37 0 0 1 1.377-1.376zm-3.535-.815c-.211.004-.4.2-.397.412v3.562c-.014.22.184.43.404.43.221 0 .419-.21.405-.43v-3.562a.422.422 0 0 0-.412-.412zm-2.074 0a.421.421 0 0 0-.4.412v3.562c0 .212.194.405.406.405a.422.422 0 0 0 .406-.405v-3.562a.422.422 0 0 0-.412-.412zm.703-2.992a5.2 5.2 0 0 0-5.194 5.192v15.797a5.2 5.2 0 0 0 5.194 5.192h15.034a5.148 5.148 0 0 1-.239-1.555l.002-.061h-14.798a3.552 3.552 0 0 1-3.578-3.576v-15.797a3.552 3.552 0 0 1 3.578-3.576h24.347a3.55 3.55 0 0 1 3.575 3.576v15.797a3.547 3.547 0 0 1-2.712 3.475c.002.054.005.108.005.162 0 .527-.08 1.036-.227 1.515a5.199 5.199 0 0 0 4.55-5.152v-15.797a5.197 5.197 0 0 0-5.191-5.192h-24.346zm20.003 20.379a4.242 4.242 0 0 0-4.247 4.247c0 1.458.733 2.738 1.85 3.503.1.068.162.186.161.306v5.017l1.974-1.974a.385.385 0 0 1 .524 0l1.887 1.887v-4.871c0-.123.066-.244.169-.311a4.244 4.244 0 0 0-2.318-7.804z" color="#000" fill="#ff8080" overflow="visible"/>
        <path d="M731.754 230.4c-.295 0-.534.085-.713.255-.18.17-.268.401-.268.689a1.104 1.104 0 0 0 .422.908l.697.56c.066.052.117.097.154.134.038.035.084.082.13.142a.707.707 0 0 1 .138.422c0 .279-.142.421-.422.421-.344 0-.532-.28-.56-.84l-.555.143c.022.357.124.636.308.843.187.207.455.312.807.312.298 0 .538-.082.714-.243.177-.162.263-.387.263-.673 0-.42-.183-.778-.555-1.079l-.702-.56a.68.68 0 0 1-.28-.55c0-.135.037-.239.11-.313.073-.076.179-.114.312-.114.168 0 .292.055.377.163a.84.84 0 0 1 .17.425c.007.05.011.085.013.11l.556-.138c-.006-.054-.008-.095-.013-.126-.043-.283-.16-.502-.348-.657-.187-.155-.438-.235-.755-.235zm13.065 0c-.76 0-1.14.478-1.14 1.435v.99c0 .194.01.368.03.518.018.15.051.29.1.426.05.135.116.25.2.336a.882.882 0 0 0 .324.207c.132.051.287.077.466.077.263 0 .446-.153.555-.458l.142.418h.418v-1.95h-1.115v.413h.555v.142c0 .112-.003.209-.012.296a1.507 1.507 0 0 1-.044.263.703.703 0 0 1-.098.223.497.497 0 0 1-.401.195.592.592 0 0 1-.211-.036.412.412 0 0 1-.15-.106.743.743 0 0 1-.101-.154.84.84 0 0 1-.061-.199 2.69 2.69 0 0 1-.037-.482v-1.257c0-.127.007-.238.025-.333a.94.94 0 0 1 .089-.263.414.414 0 0 1 .178-.179.601.601 0 0 1 .288-.065c.083 0 .155.012.215.037a.368.368 0 0 1 .231.251.938.938 0 0 1 .045.199c.009.065.01.144.012.235v.118h.56v-.122a1.94 1.94 0 0 0-.077-.486 1.09 1.09 0 0 0-.187-.37.766.766 0 0 0-.324-.235 1.239 1.239 0 0 0-.475-.085zm-11.637.04v3.909h.56v-1.817h.976v1.817h.56v-3.91h-.56v1.675h-.977v-1.674h-.56zm3.146 0l-.84 3.909h.56l.207-.978h.702l.207.978h.56l-.84-3.91h-.556zm1.61 0v3.909h.556v-1.817h.421l.56 1.817h.555l-.628-1.955a.659.659 0 0 0 .365-.324c.083-.157.125-.351.125-.584 0-.375-.105-.642-.316-.803-.21-.161-.525-.243-.94-.243h-.698zm2.34 0v3.909h.56v-3.91h-.56zm1.062 0v3.909h.556v-2.6l1.001 2.6h.397v-3.91h-.56v2.417l-.976-2.416h-.418zm-2.846.417h.141c.233 0 .407.051.524.15.116.098.174.256.174.479 0 .222-.058.384-.174.482-.117.098-.29.146-.524.146h-.141v-1.257zm-1.886.418l.276 1.679h-.556l.28-1.679zm-4.732 4.712c-.164 0-.309.022-.434.069a.81.81 0 0 0-.304.19.955.955 0 0 0-.199.308c-.049.123-.085.254-.105.394a3.35 3.35 0 0 0-.028.474v1.115c0 .176.008.331.028.47.02.14.056.274.105.398.051.122.119.225.199.308a.81.81 0 0 0 .304.19c.125.047.27.07.434.07.192 0 .36-.028.495-.09a.743.743 0 0 0 .32-.267c.08-.118.14-.253.174-.406.037-.152.053-.329.053-.53v-.143h-.56v.142c0 .096-.001.179-.007.252a1.263 1.263 0 0 1-.037.223.562.562 0 0 1-.081.19.39.39 0 0 1-.142.122.45.45 0 0 1-.215.048.476.476 0 0 1-.215-.044.439.439 0 0 1-.15-.126.654.654 0 0 1-.089-.186 1.27 1.27 0 0 1-.049-.228 2.688 2.688 0 0 1-.012-.25v-1.4c0-.107.006-.199.012-.272.006-.074.018-.15.037-.227a.486.486 0 0 1 .085-.182.392.392 0 0 1 .15-.114c.065-.029.14-.04.231-.04a.65.65 0 0 1 .187.02c.052.015.092.04.125.073.035.032.064.07.085.11a.424.424 0 0 1 .053.142c.012.058.02.115.024.17.004.054.007.117.008.194v.126h.56v-.13a1.97 1.97 0 0 0-.073-.482 1.082 1.082 0 0 0-.178-.365.73.73 0 0 0-.317-.24 1.268 1.268 0 0 0-.474-.076zm2.323 0a1.36 1.36 0 0 0-.506.085.743.743 0 0 0-.333.251 1.11 1.11 0 0 0-.182.398 2.274 2.274 0 0 0-.057.539v1.42c0 .204.019.383.057.538.037.155.1.287.182.402a.778.778 0 0 0 .333.263c.14.06.31.09.506.09.195 0 .36-.03.5-.09a.793.793 0 0 0 .336-.263c.083-.116.144-.251.182-.406.04-.155.061-.333.061-.535v-1.419c0-.413-.087-.73-.255-.949-.17-.218-.442-.324-.824-.324zm11.236 0c-.164 0-.308.022-.433.069a.828.828 0 0 0-.309.19.955.955 0 0 0-.198.308 1.7 1.7 0 0 0-.102.394c-.02.14-.032.298-.032.474v1.115c0 .176.012.331.032.47.02.14.052.274.102.398.05.122.118.225.198.308.08.082.183.144.309.19.125.047.27.07.433.07.192 0 .356-.028.491-.09a.743.743 0 0 0 .32-.267c.08-.118.14-.253.175-.406.036-.152.052-.329.052-.53v-.143h-.555v.142c0 .096-.002.179-.008.252-.006.072-.02.145-.04.223a.562.562 0 0 1-.082.19.376.376 0 0 1-.138.122.45.45 0 0 1-.215.048.494.494 0 0 1-.218-.044.44.44 0 0 1-.15-.126.654.654 0 0 1-.09-.186 1.27 1.27 0 0 1-.048-.228 2.786 2.786 0 0 1-.008-.25v-1.4c0-.107.002-.199.008-.272.006-.074.017-.15.036-.227a.484.484 0 0 1 .085-.182.392.392 0 0 1 .15-.114.583.583 0 0 1 .235-.04c.07 0 .13.004.183.02a.29.29 0 0 1 .13.073c.035.032.063.07.085.11a.424.424 0 0 1 .053.142c.011.058.02.115.024.17.004.054.007.117.008.194v.126h.555v-.13a1.97 1.97 0 0 0-.073-.482 1.082 1.082 0 0 0-.178-.365.73.73 0 0 0-.316-.24 1.246 1.246 0 0 0-.47-.076zm-9.772.036v3.91h.56v-2.6l.997 2.6h.398v-3.91h-.56v2.417l-.977-2.417h-.418zm2.133 0v.499h.698v3.41h.56v-3.41h.697v-.499h-1.955zm2.133 0v3.91h.56v-1.813h.417l.564 1.812H742.56l.206-.977h.702l.207.977h.56l-.84-3.909h-.556l-.83 3.865-.613-1.91a.651.651 0 0 0 .365-.32c.083-.158.121-.356.121-.589 0-.375-.105-.641-.316-.802-.21-.162-.525-.244-.94-.244h-.698zm6.536 0v.499h.698v3.41h.56v-3.41h.697v-.499h-1.955zm-12.266.422c.198 0 .332.054.406.166.074.112.113.28.113.507v1.7c0 .229-.037.404-.113.522-.074.118-.21.175-.406.175-.196 0-.333-.057-.41-.175-.073-.118-.109-.293-.109-.523v-1.699c0-.227.036-.395.11-.507.074-.112.212-.166.41-.166zm6.29 0h.137c.233 0 .407.047.523.146.117.097.175.256.175.478 0 .223-.058.384-.175.483-.116.097-.29.146-.523.146h-.137v-1.253zm2.631.418l.276 1.674h-.556l.28-1.674zm9.497 1.232a.305.305 0 0 0-.183.077l-.308.272-.333-.24a.305.305 0 0 0-.442.09l-.21.357-.39-.126a.305.305 0 0 0-.393.223l-.09.402h-.409a.305.305 0 0 0-.304.332l.037.414-.39.125a.305.305 0 0 0-.186.41l.166.377-.332.243a.305.305 0 0 0-.05.45l.273.309-.244.332a.305.305 0 0 0 .094.442l.352.21-.125.39a.305.305 0 0 0 .223.393l.401.09.004.41a.305.305 0 0 0 .333.303l.41-.036.129.389a.305.305 0 0 0 .41.187l.377-.163.243.329a.305.305 0 0 0 .446.049l.312-.272.333.243a.305.305 0 0 0 .442-.093l.21-.353.39.126a.305.305 0 0 0 .389-.223l.093-.402.41-.004a.305.305 0 0 0 .304-.332l-.037-.41.39-.13a.305.305 0 0 0 .182-.409l-.162-.377.332-.243a.305.305 0 0 0 .05-.446l-.272-.313.239-.332a.305.305 0 0 0-.09-.442l-.356-.211.125-.39a.305.305 0 0 0-.223-.389l-.401-.093v-.41a.305.305 0 0 0-.333-.303l-.413.036-.126-.39a.305.305 0 0 0-.41-.182l-.376.162-.244-.332a.305.305 0 0 0-.267-.126zm-.029.755l.19.259a.305.305 0 0 0 .366.101l.296-.125.097.304a.305.305 0 0 0 .32.207l.32-.029v.32a.305.305 0 0 0 .24.297l.312.073-.097.304a.305.305 0 0 0 .134.356l.275.163-.186.26a.305.305 0 0 0 .016.38l.215.244-.26.186a.305.305 0 0 0-.1.37l.125.291-.304.101a.305.305 0 0 0-.207.317l.028.32h-.32a.305.305 0 0 0-.296.24l-.069.316-.308-.102a.305.305 0 0 0-.357.134l-.162.276-.26-.187a.305.305 0 0 0-.38.02l-.24.211-.19-.26a.305.305 0 0 0-.366-.1l-.296.13-.101-.305a.305.305 0 0 0-.316-.21l-.32.028v-.32a.305.305 0 0 0-.24-.297l-.312-.069.097-.304a.305.305 0 0 0-.134-.356l-.28-.167.191-.26a.305.305 0 0 0-.02-.376l-.21-.24.259-.19a.305.305 0 0 0 .101-.37l-.126-.295.3-.097a.305.305 0 0 0 .211-.32l-.028-.321h.32a.305.305 0 0 0 .296-.24l.069-.312.304.098a.305.305 0 0 0 .357-.134l.166-.276.26.187a.305.305 0 0 0 .377-.016l.243-.215z" fill="#216778" />
        <path d="M735.772 182.907a.421.421 0 0 0-.4.412v3.561c0 .213.194.406.406.406a.422.422 0 0 0 .406-.406v-3.561a.422.422 0 0 0-.412-.412zm-3.626.005a2.193 2.193 0 0 0-2.187 2.187c0 1.203.984 2.187 2.187 2.187a2.193 2.193 0 0 0 2.187-2.187 2.193 2.193 0 0 0-2.187-2.187zm0 .81a1.37 1.37 0 0 1 1.377 1.377 1.37 1.37 0 0 1-1.377 1.377 1.37 1.37 0 0 1-1.376-1.377 1.37 1.37 0 0 1 1.376-1.376zm-3.637-.814a.421.421 0 0 0-.4.411v3.562c0 .212.193.406.406.406a.422.422 0 0 0 .405-.406v-3.562a.422.422 0 0 0-.411-.411zm-1.972 0a.421.421 0 0 0-.4.411v3.562c0 .212.194.406.406.406a.422.422 0 0 0 .406-.406v-3.562a.422.422 0 0 0-.412-.411zm10.274-5.19a.421.421 0 0 0-.4.412v3.564c-.014.22.184.43.404.43.221 0 .419-.21.405-.43v-3.564a.422.422 0 0 0-.41-.412zm-2.077 0a.421.421 0 0 0-.4.412v3.564c0 .212.194.405.406.405a.422.422 0 0 0 .406-.405v-3.564a.422.422 0 0 0-.412-.412zm-3.625.006a2.193 2.193 0 0 0-2.188 2.187c0 1.203.984 2.187 2.188 2.187a2.193 2.193 0 0 0 2.187-2.187 2.193 2.193 0 0 0-2.187-2.187zm0 .81a1.37 1.37 0 0 1 1.376 1.377 1.37 1.37 0 0 1-1.376 1.377 1.37 1.37 0 0 1-1.377-1.377 1.37 1.37 0 0 1 1.377-1.376zm-5.189-.81a2.193 2.193 0 0 0-2.187 2.187c0 1.203.984 2.187 2.187 2.187a2.193 2.193 0 0 0 2.188-2.187 2.193 2.193 0 0 0-2.188-2.187zm0 .81a1.37 1.37 0 0 1 1.377 1.377 1.37 1.37 0 0 1-1.377 1.377 1.37 1.37 0 0 1-1.376-1.377 1.37 1.37 0 0 1 1.376-1.376zm-3.637-.816a.421.421 0 0 0-.4.412v3.564c0 .212.194.406.406.406a.422.422 0 0 0 .406-.406v-3.564a.422.422 0 0 0-.412-.412zm-3.626.006a2.193 2.193 0 0 0-2.187 2.187c0 1.203.984 2.187 2.187 2.187a2.193 2.193 0 0 0 2.187-2.187 2.193 2.193 0 0 0-2.187-2.187zm0 .81a1.37 1.37 0 0 1 1.377 1.377 1.37 1.37 0 0 1-1.377 1.377 1.37 1.37 0 0 1-1.376-1.377 1.37 1.37 0 0 1 1.376-1.376zm-5.188-.81a2.193 2.193 0 0 0-2.187 2.187c0 1.203.984 2.187 2.187 2.187a2.193 2.193 0 0 0 2.187-2.187 2.193 2.193 0 0 0-2.187-2.187zm0 .81a1.37 1.37 0 0 1 1.376 1.377 1.37 1.37 0 0 1-1.376 1.377 1.37 1.37 0 0 1-1.377-1.377 1.37 1.37 0 0 1 1.377-1.376zm-3.636-.816a.421.421 0 0 0-.4.412v3.564c-.014.22.184.43.404.43.22 0 .418-.21.405-.43v-3.564a.422.422 0 0 0-.41-.412zm25.94-5.187a.421.421 0 0 0-.4.412v3.562c0 .212.193.405.405.405a.422.422 0 0 0 .406-.405v-3.562a.422.422 0 0 0-.412-.412zm-1.972 0a.421.421 0 0 0-.4.412v3.562c0 .212.193.405.406.405a.422.422 0 0 0 .406-.405v-3.562a.422.422 0 0 0-.412-.412zm-2.077 0c-.211.004-.4.2-.397.412v3.562c-.014.22.184.43.404.43.22 0 .418-.21.405-.43v-3.562a.422.422 0 0 0-.412-.412zm-3.728.005a2.193 2.193 0 0 0-2.187 2.187c0 1.203.984 2.187 2.187 2.187a2.193 2.193 0 0 0 2.187-2.187 2.193 2.193 0 0 0-2.187-2.187zm0 .81a1.37 1.37 0 0 1 1.376 1.377 1.37 1.37 0 0 1-1.376 1.377 1.37 1.37 0 0 1-1.377-1.377 1.37 1.37 0 0 1 1.377-1.376zm-5.188-.81a2.193 2.193 0 0 0-2.188 2.187c0 1.203.984 2.187 2.188 2.187a2.193 2.193 0 0 0 2.187-2.187 2.193 2.193 0 0 0-2.187-2.187zm0 .81a1.37 1.37 0 0 1 1.376 1.377 1.37 1.37 0 0 1-1.376 1.377 1.37 1.37 0 0 1-1.377-1.377 1.37 1.37 0 0 1 1.377-1.376zm-3.637-.815a.421.421 0 0 0-.4.412v3.562c0 .212.193.405.405.405a.422.422 0 0 0 .406-.405v-3.562a.422.422 0 0 0-.411-.412zm-3.627.005a2.193 2.193 0 0 0-2.187 2.187c0 1.204.984 2.188 2.187 2.188a2.193 2.193 0 0 0 2.187-2.188 2.193 2.193 0 0 0-2.187-2.187zm0 .811a1.37 1.37 0 0 1 1.377 1.376 1.37 1.37 0 0 1-1.377 1.377 1.37 1.37 0 0 1-1.376-1.377 1.37 1.37 0 0 1 1.376-1.376zm-3.534-.815c-.212.004-.401.2-.398.411v3.562c-.013.22.184.43.405.43.22 0 .418-.21.404-.43v-3.562a.422.422 0 0 0-.411-.411zm-2.075 0a.421.421 0 0 0-.4.411v3.562c0 .212.194.405.406.405a.422.422 0 0 0 .406-.405v-3.562a.422.422 0 0 0-.412-.411zm.703-2.993a5.2 5.2 0 0 0-5.194 5.192v15.797a5.2 5.2 0 0 0 5.194 5.192h15.034a5.148 5.148 0 0 1-.239-1.555l.002-.06h-14.797a3.552 3.552 0 0 1-3.578-3.577v-15.797a3.552 3.552 0 0 1 3.578-3.576h24.346a3.55 3.55 0 0 1 3.576 3.576v15.797a3.547 3.547 0 0 1-2.713 3.476c.002.054.005.107.005.161 0 .527-.08 1.036-.227 1.515a5.199 5.199 0 0 0 4.551-5.152v-15.797a5.197 5.197 0 0 0-5.192-5.192h-24.346zm20.003 20.38a4.242 4.242 0 0 0-4.246 4.246c0 1.458.733 2.738 1.85 3.503.099.068.161.187.16.307v5.016l1.975-1.974a.385.385 0 0 1 .523 0l1.888 1.887v-4.87c0-.124.065-.245.168-.312a4.244 4.244 0 0 0-2.318-7.804z" color="#000" fill="#ff8080" overflow="visible"/>
        <path d="M710.16 182.872c-.296 0-.535.086-.714.256-.179.17-.268.401-.268.69a1.104 1.104 0 0 0 .422.908l.698.56c.065.052.116.097.154.133.037.035.083.082.13.142a.707.707 0 0 1 .138.422c0 .279-.143.421-.422.421-.345 0-.532-.28-.56-.84l-.556.143c.022.358.124.637.309.843.186.207.455.312.807.312.298 0 .537-.081.713-.243.178-.161.264-.386.264-.673 0-.419-.183-.777-.556-1.079l-.701-.56a.68.68 0 0 1-.28-.55c0-.134.037-.239.11-.313.072-.075.178-.113.312-.113.167 0 .291.054.377.162a.84.84 0 0 1 .17.426l.012.11.556-.139c-.006-.054-.008-.095-.012-.125-.044-.284-.161-.503-.35-.657-.185-.156-.436-.236-.753-.236zm13.064 0c-.759 0-1.139.479-1.139 1.436v.99c0 .194.009.368.028.518.02.15.052.29.102.426.05.135.116.25.198.337a.882.882 0 0 0 .325.206c.132.051.287.077.466.077.263 0 .447-.152.556-.458l.142.418h.417v-1.95h-1.115v.413h.556v.142c0 .112-.003.209-.013.296a1.507 1.507 0 0 1-.044.264.703.703 0 0 1-.097.223.497.497 0 0 1-.401.195.592.592 0 0 1-.212-.037.412.412 0 0 1-.15-.106.743.743 0 0 1-.101-.154.84.84 0 0 1-.06-.198 2.69 2.69 0 0 1-.037-.483v-1.257c0-.127.007-.238.024-.332a.94.94 0 0 1 .09-.264.414.414 0 0 1 .178-.178.601.601 0 0 1 .287-.065c.083 0 .156.011.215.036a.368.368 0 0 1 .231.252.938.938 0 0 1 .045.198c.009.066.01.144.012.235v.118h.56v-.122a1.94 1.94 0 0 0-.077-.486 1.09 1.09 0 0 0-.187-.37.766.766 0 0 0-.324-.234 1.239 1.239 0 0 0-.475-.086zm-11.637.041v3.909h.56v-1.817h.977v1.817h.56v-3.909h-.56v1.675h-.977v-1.675h-.56zm3.147 0l-.84 3.909h.56l.207-.977h.701l.207.977h.56l-.84-3.909h-.555zm1.61 0v3.909h.555v-1.817h.422l.56 1.817h.555l-.629-1.955a.659.659 0 0 0 .365-.324c.083-.157.126-.351.126-.584 0-.375-.106-.641-.317-.803-.21-.161-.524-.243-.94-.243h-.698zm2.339 0v3.909h.56v-3.909h-.56zm1.062 0v3.909h.556v-2.6l1.001 2.6h.398v-3.909h-.56v2.417l-.977-2.417h-.418zm-2.846.418h.142c.232 0 .406.05.523.15.116.097.174.256.174.478 0 .223-.058.384-.174.483-.117.097-.29.146-.523.146h-.142v-1.257zm-1.886.417l.276 1.679h-.555l.28-1.679zm-4.732 4.712c-.164 0-.308.022-.434.069a.81.81 0 0 0-.304.19.955.955 0 0 0-.198.309c-.05.122-.085.253-.106.393a3.35 3.35 0 0 0-.028.474v1.115c0 .176.008.331.028.47.02.14.056.275.106.398.05.122.118.225.198.308a.81.81 0 0 0 .304.191c.126.046.27.069.434.069.192 0 .36-.028.495-.09a.743.743 0 0 0 .32-.267c.08-.118.14-.253.175-.405.036-.153.052-.33.052-.532v-.142h-.56v.142c0 .096-.001.179-.007.252a1.263 1.263 0 0 1-.037.223.562.562 0 0 1-.08.19.39.39 0 0 1-.143.122.45.45 0 0 1-.215.049.476.476 0 0 1-.215-.045.439.439 0 0 1-.15-.126.654.654 0 0 1-.089-.186 1.27 1.27 0 0 1-.048-.227 2.688 2.688 0 0 1-.013-.252v-1.399c0-.107.006-.199.013-.271.006-.074.017-.15.036-.227a.486.486 0 0 1 .085-.183.392.392 0 0 1 .15-.113c.066-.03.141-.04.231-.041a.65.65 0 0 1 .187.02c.052.015.092.04.126.073.034.032.063.07.085.11a.424.424 0 0 1 .052.142c.012.058.02.115.025.17.004.054.007.118.008.195v.125h.56v-.13a1.97 1.97 0 0 0-.074-.482 1.082 1.082 0 0 0-.178-.365.73.73 0 0 0-.316-.24 1.268 1.268 0 0 0-.475-.076zm2.324 0a1.36 1.36 0 0 0-.507.085.743.743 0 0 0-.333.252 1.11 1.11 0 0 0-.182.397 2.274 2.274 0 0 0-.057.54v1.418c0 .205.02.384.057.54.038.154.1.286.182.401a.778.778 0 0 0 .333.264c.141.06.31.089.507.089.195 0 .359-.03.498-.09a.793.793 0 0 0 .337-.263c.083-.116.145-.251.183-.405.039-.156.06-.333.06-.536v-1.419c0-.413-.086-.73-.255-.949-.169-.218-.442-.324-.823-.324zm11.236 0c-.165 0-.31.022-.434.069a.828.828 0 0 0-.308.19.955.955 0 0 0-.199.309 1.7 1.7 0 0 0-.101.393c-.02.14-.033.298-.033.474v1.115c0 .176.012.331.033.47.02.14.052.275.101.398.05.122.119.225.199.308.08.082.183.144.308.191.125.046.27.069.434.069.192 0 .355-.028.49-.09a.743.743 0 0 0 .32-.267c.08-.118.14-.253.175-.405.036-.153.053-.33.053-.532v-.142h-.556v.142c0 .096-.002.179-.008.252-.006.072-.02.146-.04.223a.562.562 0 0 1-.081.19.376.376 0 0 1-.138.122.45.45 0 0 1-.215.049.494.494 0 0 1-.22-.045.44.44 0 0 1-.15-.126.654.654 0 0 1-.088-.186 1.27 1.27 0 0 1-.05-.227 2.786 2.786 0 0 1-.007-.252v-1.399c0-.107.002-.199.008-.271.006-.074.017-.15.036-.227a.484.484 0 0 1 .086-.183.392.392 0 0 1 .15-.113.583.583 0 0 1 .235-.041c.07 0 .13.004.182.02a.29.29 0 0 1 .13.073c.035.032.063.07.085.11a.424.424 0 0 1 .053.142c.011.058.02.115.024.17.004.054.007.118.008.195v.125h.556v-.13a1.97 1.97 0 0 0-.073-.482 1.082 1.082 0 0 0-.179-.365.73.73 0 0 0-.316-.24 1.246 1.246 0 0 0-.47-.076zm-9.772.037v3.908h.56v-2.599l.997 2.6h.397v-3.91h-.56v2.417l-.977-2.416h-.417zm2.132 0v.498h.698v3.41h.56v-3.41h.697v-.498H716.2zm2.133 0v3.908h.56v-1.812h.417l.564 1.812H720.966l.207-.977h.701l.207.977h.56l-.84-3.908h-.555l-.832 3.864-.612-1.91a.651.651 0 0 0 .365-.32c.083-.157.122-.356.122-.588 0-.376-.106-.642-.317-.803-.21-.162-.524-.243-.94-.243h-.698zm6.537 0v.498h.697v3.41h.56v-3.41h.697v-.498h-1.954zm-12.266.421c.198 0 .331.055.405.166.074.112.114.28.114.507v1.7c0 .23-.038.405-.114.522-.074.118-.209.175-.405.175-.197 0-.334-.057-.41-.175-.074-.117-.11-.293-.11-.523v-1.699c0-.227.036-.395.11-.507.074-.112.212-.166.41-.166zm6.289 0h.138c.232 0 .406.047.523.146.116.098.174.256.174.479 0 .222-.058.383-.174.482-.117.098-.29.146-.523.146h-.138v-1.253zm2.631.418l.276 1.675h-.555l.28-1.675zm9.497 1.233a.305.305 0 0 0-.183.077l-.308.271-.332-.239a.305.305 0 0 0-.442.09l-.211.356-.39-.126a.305.305 0 0 0-.393.223l-.089.402h-.41a.305.305 0 0 0-.304.332l.037.414-.39.126a.305.305 0 0 0-.186.41l.166.376-.332.243a.305.305 0 0 0-.049.45l.272.309-.243.332a.305.305 0 0 0 .093.442l.353.211-.126.39a.305.305 0 0 0 .223.393l.401.089.004.41a.305.305 0 0 0 .333.303l.41-.036.13.39a.305.305 0 0 0 .409.186l.377-.162.243.328a.305.305 0 0 0 .446.049l.312-.272.333.243a.305.305 0 0 0 .442-.093l.21-.353.39.126a.305.305 0 0 0 .39-.223l.093-.401.41-.004a.305.305 0 0 0 .303-.333l-.036-.41.389-.13a.305.305 0 0 0 .182-.409l-.162-.377.333-.243a.305.305 0 0 0 .048-.446l-.271-.312.239-.333a.305.305 0 0 0-.09-.442l-.356-.21.126-.39a.305.305 0 0 0-.223-.39l-.402-.093v-.41a.305.305 0 0 0-.332-.303l-.414.036-.126-.389a.305.305 0 0 0-.41-.183l-.376.163-.243-.333a.305.305 0 0 0-.268-.125zm-.029.754l.191.26a.305.305 0 0 0 .365.1l.296-.125.097.304a.305.305 0 0 0 .32.207l.32-.029v.32a.305.305 0 0 0 .24.297l.312.073-.097.304a.305.305 0 0 0 .134.357l.276.162-.187.26a.305.305 0 0 0 .016.38l.215.244-.26.186a.305.305 0 0 0-.1.37l.125.291-.304.102a.305.305 0 0 0-.207.316l.029.32h-.32a.305.305 0 0 0-.297.24l-.069.316-.308-.102a.305.305 0 0 0-.357.134l-.162.276-.26-.187a.305.305 0 0 0-.38.02l-.24.212-.19-.26a.305.305 0 0 0-.365-.101l-.296.13-.102-.305a.305.305 0 0 0-.316-.21l-.32.028v-.32a.305.305 0 0 0-.24-.296l-.312-.07.098-.303a.305.305 0 0 0-.134-.357l-.28-.166.19-.26a.305.305 0 0 0-.02-.377l-.21-.24.259-.19a.305.305 0 0 0 .101-.369l-.125-.296.3-.097a.305.305 0 0 0 .21-.32l-.028-.32h.32a.305.305 0 0 0 .296-.24l.07-.312.303.097a.305.305 0 0 0 .357-.134l.167-.276.259.187a.305.305 0 0 0 .377-.016l.243-.215z" fill="#216778" />
    </g>
</svg>
