<svg xmlns="http://www.w3.org/2000/svg" viewBox="0 0 1000 440">
    <path opacity=".351" fill="#ff8080" d="M574.8 301.338c-1.184.016-2.246 1.109-2.227 2.292v19.84c.001 1.182 1.078 2.257 2.26 2.257s2.258-1.075 2.26-2.257v-19.84c.019-1.205-1.087-2.311-2.292-2.292zm-20.2.026c-6.701 0-12.18 5.48-12.18 12.18 0 6.7 5.48 12.18 12.18 12.18 6.701 0 12.18-5.48 12.18-12.18 0-6.701-5.48-12.18-12.18-12.18zm0 4.515c4.261 0 7.666 3.405 7.666 7.666s-3.405 7.666-7.666 7.666-7.666-3.405-7.666-7.666 3.405-7.666 7.666-7.666zm-20.26-4.541c-1.184.016-2.246 1.109-2.227 2.292v19.84c0 1.183 1.077 2.26 2.26 2.26s2.26-1.077 2.26-2.26v-19.84c.019-1.205-1.087-2.311-2.292-2.292zm-10.98 0c-1.184.016-2.246 1.109-2.227 2.292v19.84c0 1.183 1.077 2.26 2.26 2.26s2.26-1.077 2.26-2.26v-19.84c.019-1.205-1.087-2.311-2.292-2.292zm57.22-28.9c-1.184.016-2.246 1.109-2.227 2.292v19.85c-.076 1.226 1.025 2.397 2.253 2.397s2.329-1.171 2.253-2.397v-19.85c.019-1.201-1.078-2.304-2.279-2.292zm-11.57 0c-1.184.016-2.246 1.109-2.227 2.292v19.85c.001 1.182 1.078 2.257 2.26 2.257s2.258-1.075 2.26-2.257v-19.85c.019-1.205-1.087-2.311-2.292-2.292zm-20.19.033c-6.701 0-12.18 5.48-12.18 12.18 0 6.7 5.48 12.18 12.18 12.18 6.701 0 12.18-5.48 12.18-12.18 0-6.701-5.48-12.18-12.18-12.18zm0 4.515c4.261 0 7.666 3.405 7.666 7.666s-3.405 7.666-7.666 7.666-7.666-3.405-7.666-7.666 3.405-7.666 7.666-7.666zm-28.9-4.515c-6.701 0-12.18 5.48-12.18 12.18 0 6.7 5.48 12.18 12.18 12.18 6.701 0 12.18-5.48 12.18-12.18 0-6.701-5.48-12.18-12.18-12.18zm0 4.515c4.261 0 7.666 3.405 7.666 7.666s-3.405 7.666-7.666 7.666-7.666-3.405-7.666-7.666 3.405-7.666 7.666-7.666zm-20.26-4.548c-1.184.016-2.246 1.109-2.227 2.292v19.85c0 1.183 1.077 2.26 2.26 2.26s2.26-1.077 2.26-2.26v-19.85c.019-1.205-1.087-2.311-2.292-2.292zm-20.2.033c-6.701 0-12.18 5.48-12.18 12.18 0 6.7 5.48 12.18 12.18 12.18 6.701 0 12.18-5.48 12.18-12.18 0-6.701-5.48-12.18-12.18-12.18zm0 4.515c4.261 0 7.666 3.405 7.666 7.666s-3.405 7.666-7.666 7.666-7.666-3.405-7.666-7.666 3.405-7.666 7.666-7.666zm-28.9-4.515c-6.701 0-12.18 5.48-12.18 12.18 0 6.7 5.48 12.18 12.18 12.18 6.701 0 12.18-5.48 12.18-12.18 0-6.701-5.48-12.18-12.18-12.18zm0 4.515c4.261 0 7.666 3.405 7.666 7.666s-3.405 7.666-7.666 7.666-7.666-3.405-7.666-7.666 3.405-7.666 7.666-7.666zm-20.25-4.548c-1.184.016-2.246 1.109-2.227 2.292v19.85c-.076 1.226 1.025 2.397 2.253 2.397s2.329-1.171 2.253-2.397v-19.85c.019-1.201-1.078-2.304-2.279-2.292zm144.6-28.9c-1.184.016-2.246 1.109-2.227 2.292v19.84c.001 1.182 1.078 2.257 2.26 2.257s2.258-1.075 2.26-2.257v-19.84c.019-1.205-1.087-2.311-2.292-2.292zm-10.98 0c-1.184.016-2.246 1.109-2.227 2.292v19.84c0 1.183 1.077 2.26 2.26 2.26s2.26-1.077 2.26-2.26v-19.84c.019-1.205-1.087-2.311-2.292-2.292zm-11.57 0c-1.179.022-2.233 1.113-2.214 2.292v19.84c-.076 1.226 1.025 2.397 2.253 2.397s2.329-1.171 2.253-2.397v-19.84c.019-1.205-1.087-2.311-2.292-2.292zm-20.77.027c-6.701 0-12.18 5.48-12.18 12.18 0 6.7 5.48 12.18 12.18 12.18 6.701 0 12.18-5.48 12.18-12.18 0-6.701-5.48-12.18-12.18-12.18zm0 4.515c4.261 0 7.666 3.405 7.666 7.666s-3.405 7.666-7.666 7.666-7.666-3.405-7.666-7.666 3.405-7.666 7.666-7.666zm-28.9-4.515c-6.701 0-12.18 5.48-12.18 12.18 0 6.7 5.48 12.18 12.18 12.18 6.701 0 12.18-5.48 12.18-12.18 0-6.701-5.48-12.18-12.18-12.18zm0 4.515c4.261 0 7.666 3.405 7.666 7.666s-3.405 7.666-7.666 7.666-7.666-3.405-7.666-7.666 3.405-7.666 7.666-7.666zm-20.26-4.542c-1.184.016-2.246 1.109-2.227 2.292v19.84c0 1.183 1.077 2.26 2.26 2.26s2.26-1.077 2.26-2.26v-19.84c.019-1.205-1.087-2.311-2.292-2.292zm-20.2.027c-6.701 0-12.18 5.48-12.18 12.18 0 6.7 5.48 12.18 12.18 12.18 6.701 0 12.18-5.48 12.18-12.18 0-6.701-5.48-12.18-12.18-12.18zm0 4.515c4.261 0 7.666 3.405 7.666 7.666s-3.405 7.666-7.666 7.666-7.666-3.405-7.666-7.666 3.405-7.666 7.666-7.666zm-19.68-4.542c-1.179.023-2.233 1.113-2.214 2.292v19.84c-.076 1.226 1.025 2.397 2.253 2.397s2.329-1.171 2.253-2.397v-19.84c.019-1.205-1.087-2.311-2.292-2.292zm-11.55 0c-1.184.016-2.246 1.109-2.227 2.292v19.84c.001 1.182 1.078 2.257 2.26 2.257s2.258-1.075 2.26-2.257v-19.84c.019-1.205-1.087-2.311-2.292-2.292zm3.913-16.66c-15.94 0-28.93 12.97-28.93 28.92v87.98c0 15.94 12.98 28.92 28.93 28.92h83.73a28.678 28.678 0 0 1-1.329-8.662c0-.114.012-.225.013-.339h-82.42c-11.11 0-19.93-8.803-19.93-19.92v-87.98c0-11.11 8.816-19.92 19.93-19.92h135.6c11.11 0 19.92 8.803 19.92 19.92v87.98c0 9.452-6.368 17.24-15.11 19.36.009.3.026.597.026.899 0 2.937-.442 5.771-1.263 8.44 14.27-1.763 25.35-13.96 25.35-28.69v-87.98c0-15.94-12.97-28.92-28.92-28.92h-135.6zm111.4 113.5c-13.09 0-23.65 10.57-23.65 23.65 0 8.12 4.083 15.25 10.3 19.51.552.377.9 1.037.899 1.706v27.94l10.99-10.99c.763-.765 2.154-.765 2.918 0l10.51 10.51v-27.13a2.1 2.1 0 0 1 .937-1.732c6.473-4.222 10.76-11.5 10.76-19.81 0-13.08-10.58-23.65-23.67-23.65z" color="#000"/>
    <path opacity=".351" d="M432.1 301.138c-1.644 0-2.978.475-3.975 1.423-.996.948-1.491 2.235-1.491 3.839 0 1.102.211 2.069.632 2.936a6.15 6.15 0 0 0 1.716 2.123l3.884 3.117c.365.291.648.543.859.745.21.195.463.458.722.79.26.325.443.688.565 1.085.13.388.203.802.203 1.265 0 1.555-.793 2.349-2.349 2.349-1.92 0-2.963-1.564-3.117-4.675l-3.094.79c.122 1.993.688 3.547 1.716 4.697 1.037 1.15 2.534 1.739 4.494 1.739 1.661 0 2.994-.456 3.975-1.355.988-.9 1.468-2.153 1.468-3.75 0-2.332-1.02-4.33-3.094-6.006l-3.907-3.117c-1.037-.826-1.558-1.848-1.558-3.071 0-.745.205-1.326.61-1.74.405-.42.994-.631 1.739-.631.932 0 1.622.304 2.1.903.486.591.81 1.383.948 2.371.033.275.06.472.068.61l3.094-.768c-.032-.3-.043-.53-.068-.7-.243-1.58-.897-2.8-1.942-3.66-1.037-.866-2.435-1.31-4.2-1.31zm72.76 0c-4.229 0-6.346 2.664-6.346 7.995v5.51c0 1.086.053 2.056.158 2.89.105.835.29 1.619.565 2.372.275.753.644 1.388 1.107 1.874.461.486 1.078.868 1.807 1.152.737.283 1.6.429 2.597.429 1.466 0 2.486-.85 3.094-2.552l.79 2.326h2.326v-10.86h-6.21v2.304h3.094v.79c0 .624-.02 1.163-.068 1.65-.04.485-.118.973-.248 1.467s-.315.918-.542 1.242c-.219.316-.523.566-.903.768s-.814.316-1.332.316c-.438 0-.834-.073-1.174-.203a2.295 2.295 0 0 1-.836-.587 4.137 4.137 0 0 1-.564-.858 4.69 4.69 0 0 1-.34-1.107 15.064 15.064 0 0 1-.157-1.287 18.372 18.372 0 0 1-.046-1.4v-7.001c0-.705.039-1.325.136-1.852.097-.535.27-1.03.497-1.468.235-.446.564-.767.993-.994.438-.235.972-.361 1.603-.361.462 0 .865.065 1.197.203.34.13.61.315.813.542.203.219.361.502.475.858.121.357.208.734.248 1.107.049.365.06.8.068 1.31v.655h3.117c0-.3.008-.532 0-.677a10.856 10.856 0 0 0-.43-2.71c-.234-.786-.576-1.472-1.038-2.055-.462-.584-1.061-1.01-1.807-1.31-.746-.308-1.63-.475-2.642-.475zm-64.81.226v21.77h3.117v-10.12h5.443v10.12h3.117v-21.77h-3.117v9.327h-5.443v-9.327h-3.117zm17.52 0l-4.675 21.77h3.117l1.152-5.443h3.907l1.152 5.443h3.117l-4.675-21.77h-3.094zm8.966 0v21.77h3.094v-10.12h2.349l3.117 10.12h3.094l-3.5-10.89c.891-.324 1.571-.932 2.033-1.807.462-.875.7-1.956.7-3.252 0-2.09-.587-3.572-1.762-4.472-1.175-.9-2.923-1.355-5.239-1.355h-3.884zm13.03 0v21.77h3.117v-21.77h-3.117zm5.917 0v21.77h3.094v-14.48l5.578 14.48h2.213v-21.77h-3.117v13.46l-5.443-13.46h-2.326zm-15.85 2.326h.79c1.296 0 2.265.284 2.913.835.648.543.971 1.425.971 2.665s-.323 2.137-.97 2.687c-.649.543-1.618.813-2.914.813h-.79v-7zm-10.5 2.326l1.536 9.35h-3.094l1.558-9.35zm-26.35 26.24c-.915 0-1.72.124-2.416.384-.697.259-1.248.607-1.694 1.06a5.328 5.328 0 0 0-1.107 1.717 9.47 9.47 0 0 0-.587 2.19c-.114.778-.158 1.663-.158 2.643v6.21c0 .98.044 1.842.158 2.62.113.777.311 1.525.587 2.213a5.48 5.48 0 0 0 1.107 1.716c.445.453.997.802 1.694 1.06.697.26 1.501.384 2.416.384 1.069 0 2.002-.156 2.755-.496a4.134 4.134 0 0 0 1.784-1.491 6.609 6.609 0 0 0 .971-2.258c.203-.851.294-1.832.294-2.958v-.79h-3.117v.79c0 .534-.013.995-.046 1.4-.032.405-.09.812-.203 1.242-.105.429-.257.786-.451 1.06-.187.276-.459.5-.79.678s-.736.271-1.198.271-.848-.078-1.197-.248a2.446 2.446 0 0 1-.835-.7 3.643 3.643 0 0 1-.497-1.04 7.05 7.05 0 0 1-.271-1.264c-.04-.422-.068-.882-.068-1.4v-7.791c0-.6.035-1.108.068-1.513a7.89 7.89 0 0 1 .203-1.265c.113-.43.272-.765.474-1.016.203-.26.48-.47.836-.633.364-.162.785-.225 1.287-.225.389 0 .747.023 1.039.112.291.081.514.22.7.407.194.178.353.39.474.61.13.21.229.466.294.79s.111.64.135.949c.025.3.037.654.045 1.084v.7h3.117c0-.324.008-.569 0-.723-.04-1.029-.18-1.918-.406-2.687a6.032 6.032 0 0 0-.994-2.033 4.06 4.06 0 0 0-1.762-1.332c-.737-.3-1.63-.43-2.642-.43zm12.94 0c-1.094 0-2.037.158-2.823.474-.778.316-1.39.768-1.852 1.4a6.177 6.177 0 0 0-1.016 2.213c-.21.85-.316 1.86-.316 3.004v7.904c0 1.142.105 2.137.316 3.004a6.36 6.36 0 0 0 1.016 2.236 4.333 4.333 0 0 0 1.852 1.468c.786.332 1.729.497 2.823.497 1.086 0 2-.165 2.778-.497.786-.34 1.413-.828 1.874-1.468.462-.648.806-1.4 1.016-2.258.219-.867.339-1.855.339-2.981v-7.904c0-2.301-.483-4.07-1.423-5.285-.94-1.215-2.462-1.807-4.584-1.807zm62.58 0c-.915 0-1.72.124-2.416.384-.697.259-1.271.607-1.716 1.06a5.328 5.328 0 0 0-1.107 1.717c-.275.68-.451 1.413-.565 2.19-.113.778-.18 1.663-.18 2.643v6.21c0 .98.067 1.842.18 2.62.114.777.29 1.525.565 2.213a5.48 5.48 0 0 0 1.107 1.716c.445.453 1.02.802 1.716 1.06.697.26 1.501.384 2.416.384 1.069 0 1.979-.156 2.733-.496a4.134 4.134 0 0 0 1.784-1.491 6.609 6.609 0 0 0 .971-2.258c.203-.851.294-1.832.294-2.958v-.79h-3.094v.79c0 .534-.013.995-.046 1.4a7.059 7.059 0 0 1-.225 1.242c-.106.429-.258.786-.452 1.06-.186.276-.436.5-.768.678s-.735.271-1.197.271-.871-.078-1.22-.248a2.446 2.446 0 0 1-.835-.7 3.643 3.643 0 0 1-.497-1.04 7.05 7.05 0 0 1-.271-1.264c-.04-.422-.045-.882-.045-1.4v-7.791c0-.6.012-1.108.045-1.513.032-.413.098-.836.203-1.265.113-.43.272-.765.474-1.016.203-.26.48-.47.836-.633.364-.162.807-.225 1.31-.225.389 0 .724.023 1.016.112.291.081.536.22.723.407.194.178.352.39.474.61.13.21.229.466.293.79s.112.64.136.949c.024.3.037.654.045 1.084v.7h3.094c0-.324.008-.569 0-.723-.04-1.029-.18-1.918-.406-2.687a6.032 6.032 0 0 0-.994-2.033 4.061 4.061 0 0 0-1.762-1.332c-.737-.3-1.607-.43-2.62-.43zm-54.43.203v21.77h3.117v-14.48l5.556 14.48h2.213v-21.77h-3.117v13.46l-5.443-13.46h-2.326zm11.88 0v2.778h3.884v18.99h3.117v-18.99h3.884v-2.778h-10.89zm11.88 0v21.77h3.117v-10.09h2.326l3.139 10.09H492.29l1.152-5.443h3.907l1.152 5.443h3.117l-4.675-21.77h-3.094l-4.63 21.52-3.41-10.64c.891-.324 1.571-.91 2.033-1.784.462-.875.677-1.978.677-3.275 0-2.09-.586-3.572-1.762-4.472-1.175-.9-2.923-1.355-5.239-1.355h-3.884zm36.4 0v2.778h3.884v18.99h3.117v-18.99h3.884v-2.778h-10.89zm-68.32 2.349c1.102 0 1.845.302 2.258.926.413.624.632 1.559.632 2.823v9.463c0 1.28-.21 2.257-.632 2.913-.413.656-1.165.97-2.258.97-1.094 0-1.86-.314-2.281-.97-.413-.656-.61-1.633-.61-2.913v-9.463c0-1.264.197-2.2.61-2.823.413-.624 1.179-.926 2.281-.926zm35.03 0h.768c1.296 0 2.265.262 2.913.813.648.543.97 1.425.97 2.665 0 1.239-.322 2.137-.97 2.687-.648.543-1.617.813-2.913.813h-.768v-6.978zm14.66 2.326l1.536 9.327h-3.094l1.558-9.327zm52.89 6.865a1.699 1.699 0 0 0-1.016.429l-1.716 1.513-1.852-1.332a1.699 1.699 0 0 0-2.462.497l-1.174 1.987-2.168-.7a1.699 1.699 0 0 0-2.191 1.242l-.497 2.236h-2.28a1.699 1.699 0 0 0-1.695 1.852l.203 2.304-2.168.7a1.699 1.699 0 0 0-1.039 2.28l.926 2.1-1.852 1.356a1.699 1.699 0 0 0-.27 2.507l1.512 1.716-1.355 1.852a1.699 1.699 0 0 0 .52 2.462l1.965 1.174-.7 2.168a1.699 1.699 0 0 0 1.242 2.19l2.236.498.022 2.28a1.699 1.699 0 0 0 1.852 1.695l2.281-.204.723 2.168a1.699 1.699 0 0 0 2.28 1.04l2.1-.904 1.356 1.83a1.699 1.699 0 0 0 2.484.27l1.739-1.513 1.852 1.355a1.699 1.699 0 0 0 2.462-.52l1.174-1.964 2.168.7a1.699 1.699 0 0 0 2.168-1.242l.52-2.236 2.28-.023a1.699 1.699 0 0 0 1.694-1.852l-.203-2.28 2.168-.723a1.699 1.699 0 0 0 1.016-2.281l-.903-2.1 1.852-1.355a1.699 1.699 0 0 0 .27-2.484l-1.512-1.74 1.332-1.851a1.699 1.699 0 0 0-.497-2.462l-1.987-1.174.7-2.168a1.699 1.699 0 0 0-1.242-2.168l-2.236-.52v-2.28a1.699 1.699 0 0 0-1.852-1.695l-2.304.203-.7-2.168a1.699 1.699 0 0 0-2.281-1.016l-2.1.904-1.355-1.852a1.699 1.699 0 0 0-1.491-.7zm-.158 4.2l1.06 1.446a1.699 1.699 0 0 0 2.034.565l1.649-.7.542 1.693a1.699 1.699 0 0 0 1.784 1.152l1.784-.158v1.784a1.699 1.699 0 0 0 1.332 1.65l1.739.406-.542 1.694a1.699 1.699 0 0 0 .745 1.987l1.536.903-1.039 1.445a1.699 1.699 0 0 0 .09 2.123l1.197 1.355-1.445 1.04a1.699 1.699 0 0 0-.564 2.054l.7 1.626-1.694.565a1.699 1.699 0 0 0-1.152 1.762l.158 1.784h-1.784a1.699 1.699 0 0 0-1.649 1.332l-.384 1.762-1.716-.565a1.699 1.699 0 0 0-1.987.745l-.903 1.536-1.445-1.039a1.699 1.699 0 0 0-2.123.113l-1.332 1.174-1.061-1.445a1.699 1.699 0 0 0-2.033-.564l-1.65.722-.564-1.694a1.699 1.699 0 0 0-1.762-1.174l-1.784.159v-1.784a1.699 1.699 0 0 0-1.332-1.65l-1.739-.383.542-1.694a1.699 1.699 0 0 0-.745-1.987l-1.558-.926 1.06-1.445a1.699 1.699 0 0 0-.112-2.1l-1.174-1.332 1.445-1.061a1.699 1.699 0 0 0 .565-2.055l-.7-1.65 1.67-.541a1.699 1.699 0 0 0 1.174-1.784l-.158-1.784h1.784a1.699 1.699 0 0 0 1.65-1.332l.383-1.74 1.694.543a1.699 1.699 0 0 0 1.987-.746l.926-1.536 1.445 1.04a1.699 1.699 0 0 0 2.1-.09l1.355-1.198z" fill="#216778"/>
    <path fill="#89a02c" d="M210.9 223.238c-13.99 0-25.41 11.43-25.41 25.43 0 8.61 4.322 16.24 10.91 20.84-15.45 5.87-26.47 20.82-26.47 38.3a3.614 3.614 0 1 0 7.227 0c0-18.55 14.86-33.53 33.36-33.74.128.002.256.022.384.022s.256-.02.384-.022c18.5.206 33.36 15.19 33.36 33.74a3.614 3.614 0 1 0 7.227 0c0-17.49-11.03-32.44-26.49-38.3 6.592-4.604 10.93-12.23 10.93-20.84 0-13.99-11.41-25.43-25.41-25.43zm0 7.249c10.09 0 18.18 8.09 18.18 18.18s-8.091 18.18-18.18 18.18-18.2-8.091-18.2-18.18 8.114-18.18 18.2-18.18zm-.068 46.25c-1.205.12-2.22 1.25-2.213 2.462v42.89c-2.804-.719-5.955-.552-8.988.745-6.528 2.791-10.64 9.539-8.514 15.7 1.062 3.078 3.61 5.259 6.572 6.188 2.963.93 6.38.718 9.643-.677 5.568-2.381 9.3-7.524 9.033-12.92-.003-.053.004-.106 0-.159v-42.52c.302.062.506.049.858.159 1.765.549 3.802 1.682 5.33 4.675 3.273 6.409 3.185 15.36 3.185 15.36-.042 1.23.988 2.405 2.213 2.529 1.225.124 2.457-.82 2.665-2.033 0 0 2.784-13.77-2.937-24.37-4.42-8.184-13.51-8.024-13.78-8.017h-2.823a2.572 2.572 0 0 0-.248 0zm9.485 71.82c-.915 0-1.72.125-2.416.384s-1.27.608-1.716 1.06c-.445.454-.8 1.029-1.084 1.717a9.47 9.47 0 0 0-.587 2.19c-.113.778-.158 1.663-.158 2.643v6.21c0 .98.045 1.842.158 2.62.113.777.312 1.525.587 2.213.284.68.639 1.255 1.084 1.716.446.453 1.02.802 1.716 1.06.697.26 1.501.385 2.416.385 1.07 0 1.98-.157 2.733-.497a4.205 4.205 0 0 0 1.807-1.491 6.609 6.609 0 0 0 .971-2.258c.203-.85.294-1.832.294-2.958v-.79h-3.117v.79c0 .535-.013.995-.045 1.4a7.059 7.059 0 0 1-.226 1.242c-.105.43-.235.786-.43 1.06-.185.276-.457.5-.79.678s-.735.271-1.197.271-.848-.078-1.197-.248a2.446 2.446 0 0 1-.835-.7 3.643 3.643 0 0 1-.497-1.04 7.05 7.05 0 0 1-.27-1.264c-.041-.421-.069-.882-.069-1.4v-7.791c0-.6.036-1.085.068-1.491.033-.413.098-.835.203-1.265.114-.43.272-.788.475-1.04.202-.258.479-.47.835-.631.365-.162.785-.226 1.287-.226.389 0 .747.046 1.04.135.29.081.513.198.7.384.194.178.352.391.474.61.13.21.228.466.293.79s.111.641.136.949c.024.3.037.677.045 1.107v.677h3.117c0-.324.008-.546 0-.7-.04-1.029-.18-1.94-.407-2.71a6.032 6.032 0 0 0-.993-2.033c-.438-.583-1.024-1.01-1.762-1.31-.738-.3-1.63-.451-2.642-.451zm-30.04.203l-4.675 21.79h3.117l1.174-5.443h3.884l1.152 5.443h3.117l-4.652-21.79h-3.117zm8.966 0v21.79h8.56v-2.349h-5.444v-19.44h-3.117zm9.598 0v21.79h3.094v-21.79h-3.094zm18.79 0v21.79h8.56v-2.349h-5.444v-7.769h3.884v-2.326h-3.884v-7.001h5.443v-2.349h-8.559zm-35.79 4.675l1.558 9.327h-3.117l1.558-9.327z" color="#000"/>
    <path opacity=".351" d="M404.4 290.838c-5.239 0-9.676 3.422-11.2 8.153h-46.34a8.91 8.91 0 0 0-8.153-5.307 8.937 8.937 0 0 0-8.175 5.307h-48.42l-14.41-7.995v23.24l14.43-8.017h48.4a8.99 8.99 0 0 0 4.562 4.562v13.44l-7.995 14.43h23.22l-7.995-14.43v-13.44a8.957 8.957 0 0 0 4.539-4.562h46.34c1.526 4.73 5.963 8.153 11.2 8.153v-23.54zM338.7 345.038c-6.933 0-13.19.873-17.91 2.406-2.36.766-4.346 1.7-5.875 2.875-1.433 1.1-2.55 2.574-2.688 4.375a2.091 2.091 0 0 0-.031.375v46.784c0 1.966 1.19 3.576 2.719 4.75 1.528 1.174 3.515 2.077 5.875 2.844 4.72 1.534 10.97 2.438 17.91 2.438 6.933 0 13.22-.904 17.94-2.438 2.36-.767 4.347-1.67 5.875-2.844 1.528-1.174 2.75-2.784 2.75-4.75v-46.78a2.091 2.091 0 0 0-.031-.407 2.091 2.091 0 0 0 0-.03c-.162-1.772-1.303-3.227-2.72-4.313-1.528-1.174-3.483-2.108-5.843-2.875-4.72-1.533-11.04-2.406-17.97-2.406zm0 4.188c6.566 0 12.53.879 16.66 2.219 2.063.67 3.649 1.462 4.594 2.188.877.673 1.102 1.13 1.125 1.375.002.019 0 .046 0 .062 0 .227-.18.712-1.125 1.438-.945.726-2.531 1.517-4.594 2.188-4.126 1.34-10.09 2.22-16.66 2.22-6.566 0-12.5-.88-16.62-2.22-2.063-.67-3.649-1.462-4.594-2.188-.945-.725-1.094-1.21-1.094-1.438 0-.226.149-.712 1.094-1.438.945-.725 2.531-1.549 4.594-2.219 4.126-1.34 10.06-2.188 16.62-2.188zm-22.31 11.56c1.264.729 2.736 1.332 4.406 1.875 4.72 1.533 10.97 2.438 17.91 2.438 6.933 0 13.25-.905 17.97-2.438 1.67-.543 3.145-1.146 4.406-1.875v41.06c0 .226-.18.711-1.125 1.438-.945.726-2.531 1.517-4.594 2.188-4.125 1.34-10.09 2.219-16.66 2.219-6.566 0-12.5-.878-16.62-2.22-2.063-.67-3.649-1.461-4.594-2.187-.945-.726-1.094-1.211-1.094-1.438 0-.172.01-.163 0-.031a2.091 2.091 0 0 0 0-.156v-40.87zm12.56 13.84c-4.486 0-8.156 3.67-8.156 8.156 0 4.487 3.67 8.125 8.156 8.125 3.167 0 5.873-1.814 7.219-4.47l2.406-1.78 2.312 1.844.688.5.687-.469 2.656-1.969 2.312 2.125.906.813.75-.907 1.375-1.688 2.97.75.5.125.405-.28 1.97-1.345.406-.25.093-.469.625-3.28.282-1.345h-21.535c-1.401-2.474-3.997-4.188-7.031-4.188z" fill="#89a02c" color="#000"/>
    <path fill="#216778" d="M789.1 237.7c-14 0-25.4 11.4-25.4 25.4 0 8.6 4.3 16.2 10.9 20.8-15.5 5.9-26.5 20.9-26.5 38.3 0 2 1.7 3.7 3.6 3.7s3.7-1.7 3.6-3.7c0-18.5 14.9-33.5 33.4-33.7h.8c18.5.2 33.3 15.2 33.3 33.7 0 2 1.7 3.7 3.6 3.7s3.7-1.7 3.6-3.7c0-17.4-11-32.4-26.4-38.3 6.6-4.6 10.9-12.2 10.9-20.8 0-14-11.4-25.4-25.4-25.4zm0 7.2c10.1 0 18.1 8.1 18.1 18.2s-8 18.2-18.1 18.2-18.2-8.1-18.2-18.2 8.1-18.2 18.2-18.2zm-18.9 74.9v21.8h4.9c2.2 0 3.8-.6 4.8-1.7.9-1.2 1.4-2.9 1.4-5.3V326c0-2.3-.5-3.9-1.4-4.8s-2.5-1.4-4.8-1.4h-4.9zm16.8 0l-4.7 21.8h3.1l1.2-5.4h3.9l1.1 5.4h3.2l-4.7-21.8H787zm9.5 0v21.8h3.1v-14.5l5.6 14.5h2.2v-21.8h-3.1v13.5l-5.5-13.5h-2.3zm-23.1 2.3h1.6c.4 0 .7 0 1 .1.2 0 .5.1.7.2.2 0 .4.1.5.3.2.1.3.3.4.4s.2.3.3.5c.1.3.1.5.2.6 0 .2 0 .5.1.8V335.7c0 .3 0 .7-.1 1.1-.1.5-.1.9-.3 1.1-.1.2-.3.5-.5.7-.2.3-.5.4-.9.5s-.8.1-1.3.1h-1.7v-17.1zm15.1 2.4l1.6 9.3H787l1.5-9.3z" color="#000"/>
    <path opacity=".351" d="M673.8 269.938c-6.933 0-13.22.873-17.94 2.406-2.36.766-4.315 1.67-5.844 2.844-1.433 1.1-2.581 2.605-2.719 4.406-.017.112-.033.23-.031.344V326.72c0 1.966 1.222 3.607 2.75 4.781s3.484 2.077 5.844 2.844c4.72 1.534 11 2.438 17.94 2.438 6.933 0 13.22-.903 17.94-2.438 2.36-.767 4.315-1.669 5.844-2.844 1.528-1.174 2.75-2.816 2.75-4.78v-46.78c-.002-.137-.003-.273-.031-.407-.163-1.77-1.304-3.257-2.72-4.344-1.528-1.174-3.483-2.077-5.843-2.844-4.72-1.533-11-2.406-17.94-2.406zm0 4.156c6.566 0 12.5.879 16.62 2.219 2.063.67 3.68 1.462 4.625 2.188.922.707 1.086 1.205 1.094 1.438 0 .226-.149.712-1.094 1.438-.945.725-2.562 1.517-4.625 2.188-4.126 1.34-10.06 2.25-16.62 2.25-6.566 0-12.5-.91-16.62-2.25-2.063-.67-3.68-1.462-4.625-2.188-.945-.726-1.094-1.211-1.094-1.438.008-.233.171-.73 1.094-1.438.945-.726 2.562-1.517 4.625-2.188 4.126-1.34 10.06-2.22 16.62-2.22zm-22.34 11.56c1.264.729 2.736 1.364 4.406 1.906 4.72 1.533 11 2.406 17.94 2.406 6.933 0 13.22-.873 17.94-2.406 1.67-.543 3.145-1.177 4.406-1.906v41.06c0 .226-.149.711-1.094 1.438-.945.726-2.562 1.517-4.625 2.188-4.125 1.34-10.06 2.25-16.62 2.25-6.566 0-12.5-.91-16.62-2.25-2.063-.67-3.68-1.462-4.625-2.188-.945-.726-1.094-1.211-1.094-1.438 0-.172.01-.163 0-.031a4.067 4.067 0 0 0 0-.157v-40.88zm85.28 5.156c-5.239 0-9.662 3.425-11.19 8.156h-20.41v7.219h20.41c1.526 4.73 5.949 8.156 11.19 8.156v-23.53zm-136.2.156v23.25l14.44-8.031h27.5v-7.219h-27.53l-14.41-8zm63.5 8.531c-4.486 0-8.156 3.67-8.156 8.156 0 4.487 3.67 8.156 8.156 8.156 3.167 0 5.904-1.846 7.25-4.5l2.375-1.75 2.312 1.812.688.531.687-.5 2.656-1.938 2.344 2.125.875.813.781-.938 1.375-1.688 2.938.781.5.094.406-.25 2-1.344.375-.25.094-.469.656-3.28.282-1.345h-21.566c-1.401-2.474-3.997-4.219-7.031-4.219z" fill="#216778" color="#000"/>
    <path fill="#ff8080" d="M574.8 101.338c-1.184.016-2.246 1.109-2.227 2.292v19.84c.001 1.182 1.078 2.257 2.26 2.257s2.258-1.075 2.26-2.257v-19.84c.019-1.205-1.087-2.311-2.292-2.292zm-20.2.026c-6.701 0-12.18 5.48-12.18 12.18 0 6.7 5.48 12.18 12.18 12.18 6.701 0 12.18-5.48 12.18-12.18 0-6.701-5.48-12.18-12.18-12.18zm0 4.515c4.261 0 7.666 3.405 7.666 7.666s-3.405 7.666-7.666 7.666-7.666-3.405-7.666-7.666 3.405-7.666 7.666-7.666zm-20.26-4.541c-1.184.016-2.246 1.109-2.227 2.292v19.84c0 1.183 1.077 2.26 2.26 2.26s2.26-1.077 2.26-2.26v-19.84c.019-1.205-1.087-2.311-2.292-2.292zm-10.98 0c-1.184.016-2.246 1.109-2.227 2.292v19.84c0 1.183 1.077 2.26 2.26 2.26s2.26-1.077 2.26-2.26v-19.84c.019-1.205-1.087-2.311-2.292-2.292zm57.22-28.9c-1.184.016-2.246 1.109-2.227 2.292v19.85c-.076 1.226 1.025 2.397 2.253 2.397s2.329-1.171 2.253-2.397V74.73c.019-1.201-1.078-2.304-2.279-2.292zm-11.57 0c-1.184.016-2.246 1.109-2.227 2.292v19.85c.001 1.182 1.078 2.257 2.26 2.257s2.258-1.075 2.26-2.257V74.73c.019-1.205-1.087-2.311-2.292-2.292zm-20.19.033c-6.701 0-12.18 5.48-12.18 12.18 0 6.7 5.48 12.18 12.18 12.18 6.701 0 12.18-5.48 12.18-12.18 0-6.701-5.48-12.18-12.18-12.18zm0 4.515c4.261 0 7.666 3.405 7.666 7.666s-3.405 7.666-7.666 7.666-7.666-3.405-7.666-7.666 3.405-7.666 7.666-7.666zm-28.9-4.515c-6.701 0-12.18 5.48-12.18 12.18 0 6.7 5.48 12.18 12.18 12.18 6.701 0 12.18-5.48 12.18-12.18 0-6.701-5.48-12.18-12.18-12.18zm0 4.515c4.261 0 7.666 3.405 7.666 7.666s-3.405 7.666-7.666 7.666-7.666-3.405-7.666-7.666 3.405-7.666 7.666-7.666zm-20.26-4.548c-1.184.016-2.246 1.109-2.227 2.292v19.85c0 1.183 1.077 2.26 2.26 2.26s2.26-1.077 2.26-2.26V74.73c.019-1.205-1.087-2.311-2.292-2.292zm-20.2.033c-6.701 0-12.18 5.48-12.18 12.18 0 6.7 5.48 12.18 12.18 12.18 6.701 0 12.18-5.48 12.18-12.18 0-6.701-5.48-12.18-12.18-12.18zm0 4.515c4.261 0 7.666 3.405 7.666 7.666s-3.405 7.666-7.666 7.666-7.666-3.405-7.666-7.666 3.405-7.666 7.666-7.666zm-28.9-4.515c-6.701 0-12.18 5.48-12.18 12.18 0 6.7 5.48 12.18 12.18 12.18 6.701 0 12.18-5.48 12.18-12.18 0-6.701-5.48-12.18-12.18-12.18zm0 4.515c4.261 0 7.666 3.405 7.666 7.666s-3.405 7.666-7.666 7.666-7.666-3.405-7.666-7.666 3.405-7.666 7.666-7.666zm-20.25-4.548c-1.184.016-2.246 1.109-2.227 2.292v19.85c-.076 1.226 1.025 2.397 2.253 2.397s2.329-1.171 2.253-2.397V74.73c.019-1.201-1.078-2.304-2.279-2.292zm144.6-28.9c-1.184.016-2.246 1.109-2.227 2.292v19.84c.001 1.182 1.078 2.257 2.26 2.257s2.258-1.075 2.26-2.257V45.83c.019-1.205-1.087-2.311-2.292-2.292zm-10.98 0c-1.184.016-2.246 1.109-2.227 2.292v19.84c0 1.183 1.077 2.26 2.26 2.26s2.26-1.077 2.26-2.26V45.83c.019-1.205-1.087-2.311-2.292-2.292zm-11.57 0c-1.179.022-2.233 1.113-2.214 2.292v19.84c-.076 1.226 1.025 2.397 2.253 2.397s2.329-1.171 2.253-2.397V45.83c.019-1.205-1.087-2.311-2.292-2.292zm-20.77.027c-6.701 0-12.18 5.48-12.18 12.18 0 6.7 5.48 12.18 12.18 12.18 6.701 0 12.18-5.48 12.18-12.18 0-6.701-5.48-12.18-12.18-12.18zm0 4.515c4.261 0 7.666 3.405 7.666 7.666s-3.405 7.666-7.666 7.666-7.666-3.405-7.666-7.666 3.405-7.666 7.666-7.666zm-28.9-4.515c-6.701 0-12.18 5.48-12.18 12.18 0 6.7 5.48 12.18 12.18 12.18 6.701 0 12.18-5.48 12.18-12.18 0-6.701-5.48-12.18-12.18-12.18zm0 4.515c4.261 0 7.666 3.405 7.666 7.666s-3.405 7.666-7.666 7.666-7.666-3.405-7.666-7.666 3.405-7.666 7.666-7.666zm-20.26-4.542c-1.184.016-2.246 1.109-2.227 2.292v19.84c0 1.183 1.077 2.26 2.26 2.26s2.26-1.077 2.26-2.26V45.83c.019-1.205-1.087-2.311-2.292-2.292zm-20.2.027c-6.701 0-12.18 5.48-12.18 12.18 0 6.7 5.48 12.18 12.18 12.18 6.701 0 12.18-5.48 12.18-12.18 0-6.701-5.48-12.18-12.18-12.18zm0 4.515c4.261 0 7.666 3.405 7.666 7.666s-3.405 7.666-7.666 7.666-7.666-3.405-7.666-7.666 3.405-7.666 7.666-7.666zm-19.68-4.542c-1.179.023-2.233 1.113-2.214 2.292v19.84c-.076 1.226 1.025 2.397 2.253 2.397s2.329-1.171 2.253-2.397V45.83c.019-1.205-1.087-2.311-2.292-2.292zm-11.55 0c-1.184.016-2.246 1.109-2.227 2.292v19.84c.001 1.182 1.078 2.257 2.26 2.257s2.258-1.075 2.26-2.257V45.83c.019-1.205-1.087-2.311-2.292-2.292zm3.913-16.66c-15.94 0-28.93 12.97-28.93 28.92v87.98c0 15.94 12.98 28.92 28.93 28.92h83.73a28.678 28.678 0 0 1-1.329-8.662c0-.114.012-.225.013-.339h-82.42c-11.11 0-19.93-8.803-19.93-19.92v-87.98c0-11.11 8.816-19.92 19.93-19.92h135.6c11.11 0 19.92 8.803 19.92 19.92v87.98c0 9.452-6.368 17.24-15.11 19.36.009.3.026.597.026.899 0 2.937-.442 5.771-1.263 8.44 14.27-1.763 25.35-13.96 25.35-28.69v-87.98c0-15.94-12.97-28.92-28.92-28.92h-135.6zm111.4 113.5c-13.09 0-23.65 10.57-23.65 23.65 0 8.12 4.083 15.25 10.3 19.51.552.377.9 1.037.899 1.706v27.94l10.99-10.99c.763-.765 2.154-.765 2.918 0l10.51 10.51v-27.13a2.1 2.1 0 0 1 .937-1.732c6.473-4.222 10.76-11.5 10.76-19.81 0-13.08-10.58-23.65-23.67-23.65z" color="#000"/>
    <path d="M548.3 143.938c-.374.026-.737.18-1.016.429l-1.716 1.513-1.852-1.332c-.76-.557-1.977-.311-2.462.497l-1.174 1.987-2.168-.7c-.898-.297-1.984.32-2.191 1.242l-.497 2.236h-2.28c-.942-.001-1.779.914-1.695 1.852l.203 2.304-2.168.7c-.893.29-1.406 1.416-1.039 2.28l.926 2.1-1.852 1.356c-.766.556-.9 1.8-.27 2.507l1.512 1.716-1.355 1.852c-.552.765-.295 1.985.52 2.462l1.965 1.174-.7 2.168c-.297.898.32 1.984 1.242 2.19l2.236.498.022 2.28c0 .942.915 1.779 1.852 1.695l2.281-.204.723 2.168c.29.894 1.416 1.406 2.28 1.04l2.1-.904 1.356 1.829c.556.753 1.779.886 2.484.271l1.739-1.513 1.852 1.355c.765.553 1.985.296 2.462-.52l1.174-1.964 2.168.7c.892.281 1.96-.33 2.168-1.242l.52-2.236 2.28-.023c.941 0 1.778-.914 1.694-1.852l-.203-2.28 2.168-.723c.886-.3 1.386-1.422 1.016-2.281l-.903-2.1 1.852-1.355c.752-.556.886-1.78.27-2.484l-1.512-1.74 1.332-1.851c.556-.76.31-1.977-.497-2.462l-1.987-1.174.7-2.168c.281-.893-.33-1.96-1.242-2.168l-2.236-.52v-2.28c0-.942-.915-1.779-1.852-1.695l-2.304.203-.7-2.168c-.3-.885-1.422-1.386-2.281-1.016l-2.1.904-1.355-1.852a1.732 1.732 0 0 0-1.491-.7zm-.158 4.2l1.06 1.446c.448.613 1.334.859 2.034.564l1.649-.7.542 1.694c.242.725 1.023 1.23 1.784 1.152l1.784-.158v1.784c.005.763.587 1.484 1.332 1.65l1.739.406-.542 1.694c-.237.726.089 1.596.745 1.987l1.536.903-1.039 1.445c-.452.617-.413 1.547.09 2.123l1.197 1.355-1.445 1.039c-.622.45-.87 1.351-.564 2.055l.7 1.626-1.694.565c-.717.24-1.219 1.008-1.152 1.762l.158 1.784h-1.784c-.763.005-1.484.587-1.649 1.332l-.384 1.762-1.716-.565c-.726-.237-1.596.089-1.987.745l-.903 1.536-1.445-1.039c-.622-.446-1.552-.397-2.123.113l-1.332 1.174-1.061-1.445c-.447-.613-1.333-.859-2.033-.564l-1.65.722-.564-1.694c-.232-.725-1.002-1.239-1.762-1.174l-1.784.158v-1.784c-.005-.762-.587-1.484-1.332-1.649l-1.739-.383.542-1.694c.237-.727-.089-1.596-.745-1.987l-1.558-.926 1.06-1.445c.436-.618.387-1.532-.112-2.1l-1.174-1.332 1.445-1.061c.623-.45.87-1.351.565-2.055l-.7-1.65 1.67-.541c.734-.235 1.25-1.018 1.174-1.784l-.158-1.784h1.784c.763-.005 1.484-.588 1.65-1.332l.383-1.74 1.694.543c.727.237 1.596-.09 1.987-.746l.926-1.536 1.445 1.04c.613.44 1.527.401 2.1-.091l1.355-1.197zM448.1 100.9c-.9 0-1.7.2-2.4.4-.7.3-1.3.6-1.8 1.1-.4.4-.8 1-1.1 1.7-.2.7-.4 1.4-.6 2.2-.1.8-.1 1.6-.1 2.6v6.3c0 .9 0 1.8.1 2.6.2.8.4 1.5.6 2.2.3.7.7 1.3 1.1 1.7.5.5 1.1.8 1.8 1.1.7.2 1.5.4 2.4.4 1.1 0 2-.2 2.7-.5.8-.4 1.4-.9 1.8-1.5.5-.7.8-1.4 1-2.3.2-.8.3-1.8.3-3v-.7h-3.1v.7c0 .6 0 1-.1 1.4 0 .4-.1.9-.2 1.3s-.2.8-.4 1.1c-.2.2-.5.5-.8.6-.4.2-.7.3-1.2.3s-.9-.1-1.2-.3c-.4-.1-.7-.4-.9-.6-.2-.3-.3-.7-.5-1.1-.1-.4-.2-.8-.2-1.3-.1-.4-.1-.8-.1-1.4v-9.3l.3-1.2c.1-.5.2-.8.4-1.1.2-.2.5-.4.9-.6.3-.1.8-.2 1.3-.2.4 0 .7 0 1 .1s.5.2.7.4.4.4.5.6.2.5.3.8.1.6.1.9.1.7.1 1.1v.8h3.1v-.8c-.1-1-.2-1.9-.4-2.7-.3-.8-.6-1.4-1-2-.5-.6-1-1-1.8-1.3-.7-.3-1.6-.5-2.6-.5zm35.7 0c-1.7 0-3 .5-4 1.4-1 1-1.5 2.2-1.5 3.9 0 1.1.2 2.1.6 2.9.5.9 1 1.6 1.8 2.1l3.9 3.2c.3.3.6.5.8.7s.5.5.7.8c.3.3.5.7.6 1.1s.2.8.2 1.3c0 1.5-.8 2.3-2.3 2.3-2 0-3-1.5-3.2-4.7l-3.1.8c.2 2 .7 3.6 1.8 4.7 1 1.2 2.5 1.8 4.5 1.8 1.6 0 2.9-.5 3.9-1.4s1.5-2.1 1.5-3.7c0-2.4-1-4.4-3.1-6.1l-3.9-3.1c-1-.8-1.6-1.8-1.6-3.1 0-.7.3-1.3.7-1.7s.9-.6 1.7-.6c.9 0 1.6.3 2.1.9s.8 1.4.9 2.4c.1.2.1.4.1.6l3.1-.8c0-.3 0-.6-.1-.7-.2-1.6-.9-2.8-1.9-3.7-1-.8-2.4-1.3-4.2-1.3zm-56.9.2v21.8h8.6v-2.3H430v-19.5h-3.1zm9.6 0v21.8h3.2v-21.8h-3.2zm18.9 0v21.8h8.6v-2.3h-5.4v-7.8h3.9v-2.3h-3.9v-7h5.4v-2.4h-8.6zm10 0v21.8h3.1v-14.5l5.6 14.5h2.2v-21.8h-3.1v13.5l-5.5-13.5h-2.3zm26.4 0v21.8h8.6v-2.3h-5.5v-7.8h3.9v-2.3h-3.9v-7h5.5v-2.4h-8.6zm-60 31c-.6 0-1.2.2-1.7.4-.7.2-1.3.6-1.8 1-.4.5-.8 1.1-1.1 1.7-.2.7-.4 1.5-.5 2.2-.2.8-.2 1.7-.2 2.7v6.2c0 1 0 1.9.2 2.6.1.8.3 1.6.5 2.3.3.6.7 1.2 1.1 1.7.5.4 1.1.8 1.8 1 .7.3 1.5.4 2.4.4 1.1 0 2-.1 2.7-.5.8-.3 1.4-.8 1.8-1.5.5-.6.8-1.4 1-2.2.2-.9.3-1.9.3-3v-.8h-3.1v.8c0 .5 0 1-.1 1.4 0 .4-.1.9-.2 1.3s-.2.7-.4 1-.5.5-.8.7-.7.3-1.2.3-.9-.1-1.2-.3c-.4-.1-.7-.4-.9-.7s-.3-.6-.5-1c-.1-.4-.2-.9-.2-1.3-.1-.4-.1-.9-.1-1.4v-7.8c0-.6 0-1.1.1-1.5 0-.4.1-.8.2-1.3.1-.4.2-.7.4-1s.5-.5.9-.6c.4-.2.8-.3 1.3-.3.4 0 .7.1 1 .2s.5.2.7.4c.2.1.4.4.5.6s.2.4.3.8c.1.3.1.6.1.9s.1.7.1 1.1v.7h3.1v-.7c-.1-1-.2-2-.4-2.7-.2-.8-.6-1.5-1-2.1-.5-.5-1-1-1.8-1.3-.7-.3-1.6-.4-2.6-.4h-.7zm12.9 0c-.8.1-1.5.2-2 .5-.8.3-1.5.7-1.9 1.4-.5.6-.8 1.3-1 2.2-.2.8-.3 1.8-.3 3v7.9c0 1.1.1 2.2.3 3 .2.9.5 1.6 1 2.3.4.6 1.1 1.1 1.9 1.4.7.4 1.7.5 2.8.5s2-.1 2.8-.5c.8-.3 1.4-.8 1.9-1.4.4-.7.7-1.4 1-2.3.2-.9.3-1.9.3-3v-7.9c0-2.3-.5-4.1-1.4-5.3-1-1.2-2.5-1.8-4.6-1.8h-.8zm63 0c-.7 0-1.2.2-1.8.4-.7.2-1.2.6-1.7 1-.4.5-.8 1.1-1.1 1.7-.3.7-.5 1.5-.6 2.2-.1.8-.2 1.7-.2 2.7v6.2c0 1 .1 1.9.2 2.6.1.8.3 1.6.6 2.3.3.6.7 1.2 1.1 1.7.5.4 1 .8 1.7 1 .7.3 1.5.4 2.4.4 1.1 0 2-.1 2.8-.5.8-.3 1.3-.8 1.8-1.5.4-.6.7-1.4.9-2.2.2-.9.4-1.9.4-3v-.8H511v2.2c0 .4-.1.9-.2 1.3s-.3.7-.5 1-.4.5-.8.7c-.3.2-.7.3-1.2.3-.4 0-.8-.1-1.2-.3-.3-.1-.6-.4-.8-.7s-.4-.6-.5-1-.2-.9-.3-1.3v-10.7c.1-.4.1-.8.2-1.3.1-.4.3-.7.5-1s.5-.5.8-.6c.4-.2.8-.3 1.3-.3.4 0 .8.1 1.1.2s.5.2.7.4c.2.1.3.4.5.6.1.2.2.4.2.8.1.3.2.6.2.9v1.8h3.2v-.7c-.1-1-.2-2-.4-2.7-.3-.8-.6-1.5-1-2.1-.5-.5-1.1-1-1.8-1.3-.8-.3-1.6-.4-2.7-.4h-.6zm-54 .2v21.8h3.1v-14.5l5.6 14.5h2.2v-21.8h-3.1v13.5l-5.5-13.5h-2.3zm11.9 0v2.8h3.9v19h3.1v-19h3.9v-2.8h-10.9zm12 0v21.8h3.1V144h2.3l3.2 10.1h6.1l1.1-5.4h3.9l1.2 5.4h3.1l-4.7-21.8h-3.1l-4.6 21.6-3.4-10.7c.8-.3 1.5-.9 2-1.8.4-.9.7-1.9.7-3.2 0-2.1-.6-3.6-1.8-4.5s-2.9-1.4-5.3-1.4h-3.8zm36.5 0v2.8h3.9v19h3.2v-19h3.8v-2.8h-10.9zm-68.6 2.3c1.1 0 1.8.3 2.3 1 .4.6.6 1.5.6 2.8v9.5c0 1.3-.2 2.2-.6 2.9-.5.6-1.2 1-2.3 1s-1.9-.4-2.3-1c-.4-.7-.6-1.6-.6-2.9v-9.5c0-1.3.2-2.2.6-2.8.4-.7 1.2-1 2.3-1zm35.2 0h.7c1.3 0 2.3.3 3 .9.6.5.9 1.4.9 2.7 0 1.2-.3 2.1-.9 2.6-.7.6-1.7.9-3 .9h-.7v-7.1zm14.7 2.4l1.5 9.3h-3.1l1.6-9.3z" fill="#216778"/>
    <path fill="#89a02c" d="M251.2 238.538l11.62 20.14 8.476-14.13 128-73.92-3.625-6.28-128 73.92-16.48.276zm148.1-67.92l16.5-.29-11.62-20.14-8.476 14.13 3.598 6.293z" color="#000"/>
    <path fill="#216778" d="M753.9 238.538l-11.62 20.14-8.476-14.13-128-73.92 3.625-6.28 128 73.92 16.48.276zm-148.1-67.92l-16.5-.29 11.62-20.14 8.476 14.13-3.598 6.293z" color="#000"/>
</svg>
