<svg xmlns="http://www.w3.org/2000/svg" width="150px" height="150px" vieBox="0 0 1000 1000">
    <defs>
        <clipPath id="a">
            <path d="M614.286 486.648a200 200 0 1 1-400 0 200 200 0 1 1 400 0z" transform="translate(-343.022 -313.788) scale(1.72603)" fill="#2c5aa0"/>
        </clipPath>
    </defs>
    <path d="M962.349 500c0 255.348-207 462.349-462.349 462.349-255.348 0-462.349-207-462.349-462.349 0-255.348 207-462.349 462.349-462.349 255.348 0 462.349 207 462.349 462.349z" fill="#2c89a0"/>
    <g clip-path="url(#a)" fill="#00112b" transform="translate(1.702 -204.736) scale(1.33934)">
        <path d="M305.345 751.447l388.65 388.65L916.25 715.592 527.6 326.942l-111.878-3.766-59.148 54.525-12.382 37.862 7.289 61.825L498.41 624.32 355 733.076l-41.964 16.25z" fill-opacity=".145"/>
        <path d="M109.49 696.087l224.255 224.255 248.085-14.02 98.179-188.555-388.65-388.65-69.93.388-4.286 310z" fill-opacity=".145"/>
        <path d="M637.653 439.523l-35.125 38.375 388.656 388.625 35.094-38.375-388.625-388.625zM632.113 525.999l-35.125 38.375 388.656 388.625 35.094-38.375-388.625-388.625z" fill-opacity=".157"/>
    </g>
    <path d="M859.697 526.905c0 23.234-14.872 34.032-33.217 34.032s-33.217-10.798-33.217-34.032c0-23.233 14.872-34.032 33.217-34.032s33.217 10.799 33.217 34.032zM867.733 411.56c0 23.234-14.872 34.033-33.217 34.033s-33.217-10.799-33.217-34.032c0-23.233 14.872-34.032 33.217-34.032s33.217 10.799 33.217 34.032zM616.257 198.292c-99.718 0-157.804 104.588-163.986 177.718-.582 3.602-.816 7.547-.816 11.366 0 30.551 19.525 55.279 43.648 55.279 24.123 0 43.648-24.728 43.648-55.279 0-30.551-19.525-55.279-43.648-55.279-11.125 0-21.25 5.276-28.963 13.95 26.067-60.92 68.952-107.975 149.709-107.975 58.153 0 97.494 63.2 97.494 148.787 0 314.377-302.68 414.85-302.68 414.85s357.75-57.458 357.75-410.2c0-128.38-73.423-193.217-152.156-193.217zM287.066 203.931v400.01c-22.271-16.856-56.566-20.241-89.865-6.005-47.575 20.339-75.086 68.91-61.436 108.457 13.65 39.547 63.29 55.113 110.866 34.774 40.976-17.518 67.033-55.975 64.759-91.57V260.204c.221-.025 61.449-6.908 92.994 54.881 31.602 61.901 29.564 142.013 29.564 142.013s20.85-114.265-22.994-195.458c-32.647-60.456-99.564-57.71-99.564-57.71z" fill="#fff"/>
</svg>
